<svg version="1.2" xmlns="http://www.w3.org/2000/svg" viewBox="0 0 1000 1000" width="1000" height="1000">
	<title>4970534-ai</title>
	<style>
		.s0 { fill: #ebebeb } 
		.s1 { fill: #e0e0e0 } 
		.s2 { fill: #fafafa } 
		.s3 { fill: #e6e6e6 } 
		.s4 { fill: #f0f0f0 } 
		.s5 { fill: #f5f5f5 } 
		.s6 { fill: #263238 } 
		.s7 { opacity: .7;fill: #ffffff } 
		.s8 { fill: #407bff } 
		.s9 { opacity: .4;fill: #ffffff } 
		.s10 { opacity: .5;fill: #000000 } 
		.s11 { fill: #ffffff } 
		.s12 { opacity: .1;fill: #ffffff } 
		.s13 { opacity: .2;fill: #000000 } 
		.s14 { opacity: .1;fill: #000000 } 
		.s15 { fill: #000000 } 
		.s16 { opacity: .1;fill: #407bff } 
		.s17 { opacity: .4;fill: #000000 } 
		.s18 { opacity: .8;fill: #ffffff } 
		.s19 { fill: #fab27b } 
		.s20 { opacity: .3;fill: #000000 } 
		.s21 { opacity: .5;fill: #ffffff } 
		.s22 { fill: #ed893e } 
	</style>
	<g id="Background Complete">
		<g id="&lt;Group&gt;">
			<path id="&lt;Path&gt;" class="s0" d="m833.6 797h66.2v0.5h-66.2z"/>
			<path id="&lt;Path&gt;" class="s0" d="m645.1 802.4h17.3v0.5h-17.3z"/>
			<path id="&lt;Path&gt;" class="s0" d="m793.2 778.4h38.4v0.5h-38.4z"/>
			<path id="&lt;Path&gt;" class="s0" d="m104.9 781.8h86.4v0.5h-86.4z"/>
			<path id="&lt;Path&gt;" class="s0" d="m209.1 781.8h12.7v0.5h-12.7z"/>
			<path id="&lt;Path&gt;" class="s0" d="m262.9 790.2h187.4v0.5h-187.4z"/>
			<path id="&lt;Compound Path&gt;" fill-rule="evenodd" class="s0" d="m474 675.6h-386.2c-6.3 0-11.4-5.1-11.4-11.4v-542.9c0-6.3 5.1-11.4 11.4-11.4h386.2c6.3 0 11.4 5.1 11.4 11.4v542.9c0 6.3-5.1 11.4-11.4 11.4zm-386.2-565.2c-6 0-10.9 4.9-10.9 10.9v542.9c0 6 4.9 10.9 10.9 10.9h386.2c6 0 10.9-4.9 10.9-10.9v-542.9c0-6-4.9-10.9-10.9-10.9z"/>
			<path id="&lt;Compound Path&gt;" fill-rule="evenodd" class="s0" d="m906.6 675.6h-386.2c-6.3 0-11.4-5.1-11.4-11.4v-542.9c0-6.3 5.1-11.4 11.4-11.4h386.2c6.3 0 11.4 5.1 11.4 11.4v542.9c0 6.3-5.1 11.4-11.4 11.4zm-386.2-565.2c-6 0-10.9 4.9-10.9 10.9v542.9c0 6 4.9 10.9 10.9 10.9h386.2c6 0 10.9-4.9 10.9-10.9v-542.9c0-6-4.9-10.9-10.9-10.9z"/>
			<path id="&lt;Path&gt;" class="s0" d="m1000 765.3h-1000v-0.5h1000z"/>
		</g>
		<g id="&lt;Group&gt;">
			<g id="&lt;Group&gt;">
				<path id="&lt;Path&gt;" class="s1" d="m159.9 504.7h-3.3v-257.5h3.3z"/>
				<path id="&lt;Path&gt;" class="s1" d="m365.4 504.7h-3.3v-257.5h3.3z"/>
			</g>
			<path id="&lt;Path&gt;" class="s0" d="m378.4 263.4h-234.7l-4.9-11.5h244.5z"/>
			<path id="&lt;Path&gt;" class="s0" d="m378.4 279.3h-234.7l-4.9-11.6h244.5z"/>
			<path id="&lt;Path&gt;" class="s0" d="m378.4 295.1h-234.7l-4.9-11.5h244.5z"/>
			<path id="&lt;Path&gt;" class="s0" d="m378.4 311h-234.7l-4.9-11.6h244.5z"/>
			<path id="&lt;Path&gt;" class="s0" d="m378.4 326.9h-234.7l-4.9-11.6h244.5z"/>
			<path id="&lt;Path&gt;" class="s0" d="m378.4 342.7h-234.7l-4.9-11.5h244.5z"/>
			<path id="&lt;Path&gt;" class="s0" d="m378.4 358.6h-234.7l-4.9-11.6h244.5z"/>
			<path id="&lt;Path&gt;" class="s0" d="m378.4 374.5h-234.7l-4.9-11.6h244.5z"/>
			<path id="&lt;Path&gt;" class="s0" d="m378.4 390.3h-234.7l-4.9-11.5h244.5z"/>
			<path id="&lt;Path&gt;" class="s0" d="m378.4 406.2h-234.7l-4.9-11.6h244.5z"/>
			<path id="&lt;Path&gt;" class="s0" d="m378.4 422h-234.7l-4.9-11.5h244.5z"/>
			<path id="&lt;Path&gt;" class="s0" d="m378.4 437.9h-234.7l-4.9-11.6h244.5z"/>
			<path id="&lt;Path&gt;" class="s0" d="m378.4 453.8h-234.7l-4.9-11.6h244.5z"/>
			<path id="&lt;Path&gt;" class="s0" d="m378.4 469.6h-234.7l-4.9-11.5h244.5z"/>
			<path id="&lt;Path&gt;" class="s0" d="m378.4 485.5h-234.7l-4.9-11.6h244.5z"/>
			<path id="&lt;Path&gt;" class="s0" d="m378.4 501.4h-234.7l-4.9-11.6h244.5z"/>
			<path id="&lt;Path&gt;" class="s1" d="m383.3 508h-244.5v-6.6h244.5z"/>
			<path id="&lt;Path&gt;" class="s1" d="m391.8 252.8h-261.6v-15.4h261.6z"/>
			<path id="&lt;Path&gt;" class="s1" d="m132.9 392.5c-1.5 0-2.6-1.2-2.6-2.7v-89.8c0-1.5 1.1-2.7 2.6-2.7 1.5 0 2.7 1.2 2.7 2.7v89.8c0 1.5-1.2 2.7-2.7 2.7z"/>
			<path id="&lt;Path&gt;" class="s1" d="m133.9 303.1h-1.9v-53.4h1.9z"/>
		</g>
		<g id="&lt;Group&gt;">
			<g id="&lt;Group&gt;">
				<path id="&lt;Path&gt;" class="s1" d="m642.4 504.7h-3.3v-257.5h3.3z"/>
				<path id="&lt;Path&gt;" class="s1" d="m847.9 504.7h-3.3v-257.5h3.3z"/>
			</g>
			<path id="&lt;Path&gt;" class="s0" d="m860.8 263.4h-234.7l-4.9-11.5h244.6z"/>
			<path id="&lt;Path&gt;" class="s0" d="m860.8 279.3h-234.7l-4.9-11.6h244.6z"/>
			<path id="&lt;Path&gt;" class="s0" d="m860.8 295.1h-234.7l-4.9-11.5h244.6z"/>
			<path id="&lt;Path&gt;" class="s0" d="m860.8 311h-234.7l-4.9-11.6h244.6z"/>
			<path id="&lt;Path&gt;" class="s0" d="m860.8 326.9h-234.7l-4.9-11.6h244.6z"/>
			<path id="&lt;Path&gt;" class="s0" d="m860.8 342.7h-234.7l-4.9-11.5h244.6z"/>
			<path id="&lt;Path&gt;" class="s0" d="m860.8 358.6h-234.7l-4.9-11.6h244.6z"/>
			<path id="&lt;Path&gt;" class="s0" d="m860.8 374.5h-234.7l-4.9-11.6h244.6z"/>
			<path id="&lt;Path&gt;" class="s0" d="m860.8 390.3h-234.7l-4.9-11.5h244.6z"/>
			<path id="&lt;Path&gt;" class="s0" d="m860.8 406.2h-234.7l-4.9-11.6h244.6z"/>
			<path id="&lt;Path&gt;" class="s0" d="m860.8 422h-234.7l-4.9-11.5h244.6z"/>
			<path id="&lt;Path&gt;" class="s0" d="m860.8 437.9h-234.7l-4.9-11.6h244.6z"/>
			<path id="&lt;Path&gt;" class="s0" d="m860.8 453.8h-234.7l-4.9-11.6h244.6z"/>
			<path id="&lt;Path&gt;" class="s0" d="m860.8 469.6h-234.7l-4.9-11.5h244.6z"/>
			<path id="&lt;Path&gt;" class="s0" d="m860.8 485.5h-234.7l-4.9-11.6h244.6z"/>
			<path id="&lt;Path&gt;" class="s0" d="m860.8 501.4h-234.7l-4.9-11.6h244.6z"/>
			<path id="&lt;Path&gt;" class="s1" d="m865.8 508h-244.6v-6.6h244.6z"/>
			<path id="&lt;Path&gt;" class="s1" d="m874.3 252.8h-261.6v-15.4h261.6z"/>
			<path id="&lt;Path&gt;" class="s1" d="m615.4 392.5c-1.5 0-2.7-1.2-2.7-2.7v-89.8c0-1.5 1.2-2.7 2.7-2.7 1.4 0 2.6 1.2 2.6 2.7v89.8c0 1.5-1.2 2.7-2.6 2.7z"/>
			<path id="&lt;Path&gt;" class="s1" d="m616.3 303.1h-1.9v-53.4h1.9z"/>
		</g>
		<g id="&lt;Group&gt;">
			<path id="&lt;Path&gt;" class="s1" d="m779.3 526.2h-558.6v-316h558.6z"/>
			<path id="&lt;Path&gt;" class="s0" d="m782.2 533.9h-564.4c-1.8 0-3.3-1.4-3.3-3.2v-6.7c0-1.8 1.5-3.3 3.3-3.3h564.4c1.8 0 3.3 1.5 3.3 3.3v6.7c0 1.8-1.5 3.2-3.3 3.2z"/>
			<path id="&lt;Path&gt;" class="s2" d="m766.5 523.7h-533v-303.9h533z"/>
			<path id="&lt;Path&gt;" class="s3" d="m529.3 580.3q-13.1-14.5-26.3-29 0-8.7 0-17.4c0-4.2-6-4.2-6 0q0 8.7 0 17.4-13.2 14.5-26.3 29c-2.8 3 1.5 7.6 4.2 4.6q11-12.1 22.1-24.3 0 10.9 0 21.8c0 4.2 6 4.2 6 0q0-10.9 0-21.8 11.1 12.2 22.1 24.3c2.7 3 7-1.6 4.2-4.6z"/>
			<path id="&lt;Path&gt;" class="s4" d="m792 224.7h-584c-4.6 0-8.3-3.7-8.3-8.2v-12.5c0-4.6 3.7-8.3 8.3-8.3h584c4.6 0 8.3 3.7 8.3 8.3v12.5c0 4.5-3.7 8.2-8.3 8.2z"/>
		</g>
		<g id="&lt;Group&gt;">
			<g id="&lt;Group&gt;">
				<path id="&lt;Path&gt;" class="s0" d="m373.7 668.4h-236.1v-81.5h236.1z"/>
				<path id="&lt;Path&gt;" class="s0" d="m373.7 749.9h-236.1v-81.5h236.1z"/>
				<g id="&lt;Group&gt;">
					<path id="&lt;Path&gt;" class="s4" d="m227.3 668.4l29.4-81.5h-45.2l-29.4 81.5z"/>
					<path id="&lt;Path&gt;" class="s4" d="m278.6 586.9h-10l-29.3 81.5h9.9z"/>
				</g>
				<g id="&lt;Group&gt;">
					<path id="&lt;Path&gt;" class="s4" d="m197.9 749.9l29.4-81.5h-45.2l-29.4 81.5z"/>
					<path id="&lt;Path&gt;" class="s4" d="m249.2 668.4h-9.9l-29.4 81.5h9.9z"/>
				</g>
				<path id="&lt;Path&gt;" class="s1" d="m137.6 599.4v-8.2h236.1v8.2z"/>
				<path id="&lt;Path&gt;" class="s1" d="m137.6 680.3v-8.2h236.1v8.2z"/>
				<g id="&lt;Group&gt;">
					<path id="&lt;Path&gt;" class="s1" d="m261.7 638.1c1.9 0 3.5-1.6 3.5-3.5 0-2-1.6-3.6-3.5-3.6-1 0-11.1 0-12.1 0-2 0-3.5 1.6-3.5 3.6 0 1.9 1.5 3.5 3.5 3.5 1.1 0 11 0 12.1 0z"/>
					<path id="&lt;Path&gt;" class="s5" d="m261.7 636.8c1.9 0 3.5-1.5 3.5-3.5 0-1.9-1.6-3.5-3.5-3.5-1 0-11.1 0-12.1 0-2 0-3.5 1.6-3.5 3.5 0 2 1.5 3.5 3.5 3.5 1.1 0 11 0 12.1 0z"/>
				</g>
				<g id="&lt;Group&gt;">
					<path id="&lt;Path&gt;" class="s1" d="m261.7 713.3c1.9 0 3.5-1.6 3.5-3.5 0-2-1.6-3.6-3.5-3.6-1 0-11.1 0-12.1 0-2 0-3.5 1.6-3.5 3.6 0 1.9 1.5 3.5 3.5 3.5 1.1 0 11 0 12.1 0z"/>
					<path id="&lt;Path&gt;" class="s5" d="m261.7 712.1c1.9 0 3.5-1.6 3.5-3.6 0-1.9-1.6-3.5-3.5-3.5-1 0-11.1 0-12.1 0-2 0-3.5 1.6-3.5 3.5 0 2 1.5 3.6 3.5 3.6 1.1 0 11 0 12.1 0z"/>
				</g>
				<path id="&lt;Compound Path&gt;" fill-rule="evenodd" class="s5" d="m377.8 583.3v170.2h-244.3v-170.2zm-8.3 89.4h-227.8v72.5h227.8zm0-80.7h-227.8v72.5h227.8z"/>
				<g id="&lt;Group&gt;">
					<path id="&lt;Path&gt;" class="s0" d="m618.1 668.4h-236.2v-81.5h236.2z"/>
					<path id="&lt;Path&gt;" class="s0" d="m618.1 749.9h-236.2v-81.5h236.2z"/>
					<g id="&lt;Group&gt;">
						<path id="&lt;Path&gt;" class="s4" d="m565 668.4l29.4-81.5h-45.2l-29.4 81.5z"/>
						<path id="&lt;Path&gt;" class="s4" d="m616.3 586.9h-10l-29.3 81.5h9.9z"/>
					</g>
					<g id="&lt;Group&gt;">
						<path id="&lt;Path&gt;" class="s4" d="m535.6 749.9l29.4-81.5h-45.2l-29.4 81.5z"/>
						<path id="&lt;Path&gt;" class="s4" d="m586.9 668.4h-9.9l-29.4 81.5h9.9z"/>
					</g>
					<path id="&lt;Path&gt;" class="s1" d="m381.9 599.4v-8.2h236.2v8.2z"/>
					<path id="&lt;Path&gt;" class="s1" d="m381.9 680.3v-8.2h236.2v8.2z"/>
					<g id="&lt;Group&gt;">
						<path id="&lt;Path&gt;" class="s1" d="m506 638.1c2 0 3.6-1.6 3.6-3.5 0-2-1.6-3.6-3.6-3.6-1 0-11 0-12 0-2 0-3.6 1.6-3.6 3.6 0 1.9 1.6 3.5 3.6 3.5 1 0 11 0 12 0z"/>
						<path id="&lt;Path&gt;" class="s5" d="m506 636.8c2 0 3.6-1.5 3.6-3.5 0-1.9-1.6-3.5-3.6-3.5-1 0-11 0-12 0-2 0-3.6 1.6-3.6 3.5 0 2 1.6 3.5 3.6 3.5 1 0 11 0 12 0z"/>
					</g>
					<g id="&lt;Group&gt;">
						<path id="&lt;Path&gt;" class="s1" d="m506 713.3c2 0 3.6-1.6 3.6-3.5 0-2-1.6-3.6-3.6-3.6-1 0-11 0-12 0-2 0-3.6 1.6-3.6 3.6 0 1.9 1.6 3.5 3.6 3.5 1 0 11 0 12 0z"/>
						<path id="&lt;Path&gt;" class="s5" d="m506 712.1c2 0 3.6-1.6 3.6-3.6 0-1.9-1.6-3.5-3.6-3.5-1 0-11 0-12 0-2 0-3.6 1.6-3.6 3.5 0 2 1.6 3.6 3.6 3.6 1 0 11 0 12 0z"/>
					</g>
					<path id="&lt;Compound Path&gt;" fill-rule="evenodd" class="s5" d="m622.2 583.3v170.2h-244.4v-170.2zm-8.2 89.4h-227.9v72.5h227.9zm0-80.7h-227.9v72.5h227.9z"/>
				</g>
				<g id="&lt;Group&gt;">
					<path id="&lt;Path&gt;" class="s0" d="m862.4 668.4h-236.1v-81.5h236.1z"/>
					<path id="&lt;Path&gt;" class="s0" d="m862.4 749.9h-236.1v-81.5h236.1z"/>
					<g id="&lt;Group&gt;">
						<path id="&lt;Path&gt;" class="s4" d="m775.8 668.4l29.4-81.5h-45.2l-29.4 81.5z"/>
						<path id="&lt;Path&gt;" class="s4" d="m827.1 586.9h-10l-29.3 81.5h9.9z"/>
					</g>
					<g id="&lt;Group&gt;">
						<path id="&lt;Path&gt;" class="s4" d="m746.4 749.9l29.4-81.5h-45.2l-29.4 81.5z"/>
						<path id="&lt;Path&gt;" class="s4" d="m797.7 668.4h-9.9l-29.4 81.5h9.9z"/>
					</g>
					<path id="&lt;Path&gt;" class="s1" d="m626.3 599.4v-8.2h236.1v8.2z"/>
					<path id="&lt;Path&gt;" class="s1" d="m626.3 680.3v-8.2h236.1v8.2z"/>
					<g id="&lt;Group&gt;">
						<path id="&lt;Path&gt;" class="s1" d="m750.4 638.1c2 0 3.5-1.6 3.5-3.5 0-2-1.5-3.6-3.5-3.6-1 0-11.1 0-12.1 0-1.9 0-3.5 1.6-3.5 3.6 0 1.9 1.6 3.5 3.5 3.5 1.1 0 11 0 12.1 0z"/>
						<path id="&lt;Path&gt;" class="s5" d="m750.4 636.8c2 0 3.5-1.5 3.5-3.5 0-1.9-1.5-3.5-3.5-3.5-1 0-11.1 0-12.1 0-1.9 0-3.5 1.6-3.5 3.5 0 2 1.6 3.5 3.5 3.5 1.1 0 11 0 12.1 0z"/>
					</g>
					<g id="&lt;Group&gt;">
						<path id="&lt;Path&gt;" class="s1" d="m750.4 713.3c2 0 3.5-1.6 3.5-3.5 0-2-1.5-3.6-3.5-3.6-1 0-11.1 0-12.1 0-1.9 0-3.5 1.6-3.5 3.6 0 1.9 1.6 3.5 3.5 3.5 1.1 0 11 0 12.1 0z"/>
						<path id="&lt;Path&gt;" class="s5" d="m750.4 712.1c2 0 3.5-1.6 3.5-3.6 0-1.9-1.5-3.5-3.5-3.5-1 0-11.1 0-12.1 0-1.9 0-3.5 1.6-3.5 3.5 0 2 1.6 3.6 3.5 3.6 1.1 0 11 0 12.1 0z"/>
					</g>
					<path id="&lt;Compound Path&gt;" fill-rule="evenodd" class="s5" d="m866.5 583.3v170.2h-244.3v-170.2zm-8.3 89.4h-227.8v72.5h227.8zm0-80.7h-227.8v72.5h227.8z"/>
				</g>
			</g>
			<path id="&lt;Path&gt;" class="s1" d="m842.9 765.7h-685.8l-3.6-12.2h693z"/>
		</g>
	</g>
	<g id="Shadow">
		<path id="&lt;Path&gt; 1 " class="s5" d="m887.8 824.8c0 12.5-173.6 22.6-387.8 22.6-214.2 0-387.8-10.1-387.8-22.6 0-12.5 173.6-22.7 387.8-22.7 214.2 0 387.8 10.2 387.8 22.7z"/>
	</g>
	<g id="Form">
		<g id="&lt;Group&gt;">
			<g id="&lt;Group&gt;">
				<path id="&lt;Path&gt;" class="s6" d="m265.5 480h443.9c12.2 0 21.1-9.8 20-21.9l-23.8-272.7c-1.1-12.1-11.7-22-23.8-22h-444c-12.1 0-21.1 9.9-20 22l23.9 272.7c1 12.1 11.7 21.9 23.8 21.9z"/>
				<path id="&lt;Path&gt;" class="s7" d="m265.5 480h443.9c12.2 0 21.1-9.8 20-21.9l-23.8-272.7c-1.1-12.1-11.7-22-23.8-22h-444c-12.1 0-21.1 9.9-20 22l23.9 272.7c1 12.1 11.7 21.9 23.8 21.9z"/>
				<g id="&lt;Group&gt;">
					<g id="&lt;Group&gt;">
						<g id="&lt;Group&gt;">
							<path id="&lt;Path&gt;" class="s8" d="m266 452.1h432.9l-24-274.4h-432.9z"/>
							<path id="&lt;Path&gt;" class="s8" d="m271.9 473.6h444c12.1 0 21-9.8 20-21.9l-23.9-272.8c-1-12.1-11.7-21.9-23.8-21.9h-444c-12.1 0-21 9.8-20 21.9l23.9 272.8c1 12.1 11.7 21.9 23.8 21.9z"/>
						</g>
						<path id="&lt;Path&gt;" class="s8" d="m266 452.1h432.9l-24-274.4h-432.9z"/>
						<g id="&lt;Group&gt;">
							<g id="&lt;Group&gt;">
								<g id="&lt;Group&gt;">
									<path id="&lt;Path&gt;" class="s9" d="m266 452.5h432.9l-24-274.4h-432.9z"/>
									<path id="&lt;Path&gt;" class="s8" d="m677 202.8h-432.9l-2.1-24.7h432.9z"/>
									<path id="&lt;Path&gt;" class="s10" d="m677 202.8h-432.9l-2.1-24.7h432.9z"/>
									<g id="&lt;Group&gt;">
										<path id="&lt;Compound Path&gt;" class="s11" d="m260.2 188.2l0.2 2.3h3.9l0.2 1.5h-3.9l0.2 3.1h-1.9l-0.7-8.4h6.3l0.1 1.5z"/>
										<path id="&lt;Compound Path&gt;" fill-rule="evenodd" class="s11" d="m265.6 190.9c-0.2-2.5 1.5-4.4 4.2-4.4 2.6 0 4.7 1.9 5 4.4 0.2 2.5-1.6 4.3-4.2 4.3-2.7 0-4.8-1.8-5-4.3zm7.2 0c-0.1-1.6-1.4-2.7-2.9-2.7-1.5 0-2.5 1.1-2.4 2.7 0.2 1.6 1.4 2.7 2.9 2.7 1.5 0 2.5-1.1 2.4-2.7z"/>
										<path id="&lt;Compound Path&gt;" fill-rule="evenodd" class="s11" d="m282 195.1l-1.9-2.4h-1.8l0.2 2.4h-1.9l-0.7-8.4h3.6c2.2 0 3.8 1.1 3.9 3 0.1 1.3-0.4 2.2-1.5 2.7l2.1 2.7zm-2.4-6.8h-1.6l0.3 2.9h1.6c1.2 0 1.7-0.6 1.6-1.5 0-0.9-0.7-1.4-1.9-1.4z"/>
										<path id="&lt;Compound Path&gt;" class="s11" d="m293.1 195.1l-0.5-5.1-2.1 4.2h-0.9l-2.8-4 0.4 4.9h-1.8l-0.7-8.4h1.6l3.6 5.2 2.6-5.2h1.6l0.8 8.4z"/>
									</g>
									<g id="&lt;Group&gt;">
										<path id="&lt;Compound Path&gt;" class="s8" d="m272.5 222.4l0.1 1.8h3.3l0.1 1.3h-3.2l0.2 2.6h-1.6l-0.7-7h5.3l0.2 1.3z"/>
										<path id="&lt;Compound Path&gt;" class="s8" d="m276.7 221.1c0-0.5 0.4-0.9 0.9-0.9 0.6 0 1 0.4 1.1 0.9 0 0.5-0.3 0.9-0.9 0.9-0.6 0-1-0.4-1.1-0.9zm0.4 1.6h1.5l0.5 5.4h-1.6z"/>
										<path id="&lt;Compound Path&gt;" class="s8" d="m283.4 222.6l0.1 1.5q-0.1 0-0.3-0.1c-0.9 0-1.4 0.5-1.3 1.6l0.2 2.5h-1.6l-0.4-5.4h1.5v0.7c0.4-0.5 1-0.8 1.8-0.8z"/>
										<path id="&lt;Compound Path&gt;" class="s8" d="m284.3 227.6l0.4-1.1c0.5 0.3 1.3 0.5 1.9 0.5 0.7 0 1-0.2 1-0.5-0.1-0.9-3.3 0-3.5-2.1-0.1-1 0.8-1.8 2.4-1.8 0.7 0 1.5 0.2 2.1 0.5l-0.4 1.1c-0.6-0.3-1.1-0.4-1.6-0.4-0.7 0-1 0.2-1 0.5 0.1 0.9 3.3 0 3.4 2.2 0.1 1-0.7 1.7-2.3 1.7-1 0-1.9-0.3-2.4-0.6z"/>
										<path id="&lt;Compound Path&gt;" class="s8" d="m293.6 227.8c-0.3 0.3-0.8 0.4-1.2 0.4-1.3 0-2.1-0.7-2.2-2l-0.2-2.2h-0.8l-0.2-1.2h0.9l-0.1-1.3h1.5l0.1 1.3h1.4l0.1 1.2h-1.4l0.2 2.2c0.1 0.5 0.3 0.7 0.8 0.7q0.3 0 0.6-0.2z"/>
										<path id="&lt;Compound Path&gt;" class="s8" d="m303.3 221.1l0.6 7h-1.4l-3.8-4.3 0.3 4.3h-1.6l-0.6-7h1.4l3.8 4.2-0.4-4.2z"/>
										<path id="&lt;Compound Path&gt;" fill-rule="evenodd" class="s8" d="m309.9 225l0.3 3.1h-1.5v-0.7q-0.4 0.8-1.6 0.8c-1.3 0-2.1-0.7-2.2-1.7-0.1-0.9 0.6-1.6 2.2-1.6h1.2c0-0.6-0.5-1-1.3-1-0.6 0-1.1 0.2-1.5 0.5l-0.7-1.1c0.6-0.4 1.4-0.7 2.3-0.7 1.6 0 2.7 0.8 2.8 2.4zm-1.4 1.4l-0.1-0.6h-1.1c-0.7 0-0.9 0.3-0.9 0.7 0.1 0.4 0.4 0.6 1 0.6 0.5 0 0.9-0.2 1.1-0.7z"/>
										<path id="&lt;Compound Path&gt;" class="s8" d="m320.4 225l0.3 3.1h-1.6l-0.2-2.8c-0.1-0.9-0.5-1.3-1.2-1.3-0.7 0-1.1 0.4-1 1.4l0.2 2.7h-1.6l-0.2-2.8c-0.1-0.9-0.5-1.3-1.1-1.3-0.7 0-1.2 0.4-1.1 1.4l0.2 2.7h-1.5l-0.5-5.4h1.5l0.1 0.6c0.3-0.4 0.9-0.7 1.6-0.7 0.7 0 1.4 0.3 1.8 0.9 0.4-0.5 1.1-0.9 1.9-0.9 1.3 0 2.3 0.8 2.4 2.4z"/>
										<path id="&lt;Compound Path&gt;" fill-rule="evenodd" class="s8" d="m327.2 225.8h-4.1c0.2 0.7 0.8 1.1 1.6 1.1 0.6 0 1-0.1 1.3-0.5l1 0.9q-0.7 0.9-2.2 0.9c-1.9 0-3.2-1.2-3.3-2.8-0.1-1.6 1-2.8 2.6-2.8 1.6 0 2.9 1.1 3.1 2.8 0 0.1 0 0.3 0 0.4zm-4.2-0.9h2.7c-0.2-0.6-0.8-1.1-1.5-1.1-0.7 0-1.1 0.4-1.2 1.1z"/>
									</g>
									<g id="&lt;Group&gt;">
										<path id="&lt;Compound Path&gt;" class="s8" d="m288.4 360.5l0.1 1.3h-5.4l-0.7-7h5.3l0.2 1.3h-3.7l0.1 1.5h3.3l0.1 1.3h-3.3l0.2 1.6z"/>
										<path id="&lt;Compound Path&gt;" class="s8" d="m298.5 358.7l0.3 3.1h-1.6l-0.3-2.8c0-0.9-0.5-1.3-1.1-1.3-0.7 0-1.1 0.4-1.1 1.4l0.3 2.7h-1.6l-0.2-2.8c-0.1-0.9-0.5-1.3-1.2-1.3-0.7 0-1.1 0.4-1 1.4l0.2 2.7h-1.5l-0.5-5.4h1.5v0.6c0.4-0.4 1-0.7 1.7-0.7 0.7 0 1.4 0.3 1.8 0.9 0.4-0.5 1.1-0.9 1.9-0.9 1.3 0 2.2 0.8 2.4 2.4z"/>
										<path id="&lt;Compound Path&gt;" fill-rule="evenodd" class="s8" d="m304.6 358.7l0.3 3.1h-1.4l-0.1-0.7q-0.4 0.8-1.6 0.8c-1.2 0-2.1-0.7-2.1-1.7-0.1-0.9 0.5-1.6 2.1-1.6h1.3c-0.1-0.6-0.5-1-1.4-1-0.5 0-1.1 0.2-1.5 0.5l-0.6-1.1c0.5-0.4 1.4-0.7 2.2-0.7 1.7 0 2.7 0.8 2.8 2.4zm-1.4 1.4v-0.6h-1.1c-0.7 0-1 0.3-0.9 0.7 0 0.4 0.4 0.6 0.9 0.6 0.5 0 1-0.2 1.1-0.7z"/>
										<path id="&lt;Compound Path&gt;" class="s8" d="m305.5 354.8c0-0.5 0.3-0.9 0.9-0.9 0.6 0 1 0.4 1.1 0.9 0 0.5-0.4 0.9-0.9 0.9-0.6 0-1-0.4-1.1-0.9zm0.3 1.6h1.6l0.5 5.4h-1.6z"/>
										<path id="&lt;Compound Path&gt;" class="s8" d="m308.7 354.4h1.5l0.7 7.4h-1.6z"/>
									</g>
									<g id="&lt;Group&gt;">
										<path id="&lt;Compound Path&gt;" fill-rule="evenodd" class="s8" d="m279.4 267.1h-3.3l-0.5 1.5h-1.6l2.5-7h1.6l3.7 7h-1.7zm-0.6-1.2l-1.3-2.7-0.9 2.7z"/>
										<path id="&lt;Compound Path&gt;" fill-rule="evenodd" class="s8" d="m287.2 261.2l0.7 7.4h-1.5l-0.1-0.6q-0.5 0.7-1.6 0.7c-1.5 0-2.8-1.1-2.9-2.7-0.2-1.7 0.9-2.8 2.4-2.8 0.7 0 1.3 0.2 1.7 0.6l-0.2-2.6zm-1.1 4.8c-0.1-1-0.8-1.5-1.5-1.5-0.8 0-1.4 0.5-1.3 1.5 0.1 0.9 0.7 1.4 1.5 1.4 0.8 0 1.3-0.5 1.3-1.4z"/>
										<path id="&lt;Compound Path&gt;" fill-rule="evenodd" class="s8" d="m294.2 261.2l0.6 7.4h-1.5v-0.6q-0.6 0.7-1.7 0.7c-1.5 0-2.7-1.1-2.9-2.7-0.1-1.7 0.9-2.8 2.5-2.8 0.6 0 1.2 0.2 1.6 0.6l-0.2-2.6zm-1.1 4.8c-0.1-1-0.7-1.5-1.5-1.5-0.8 0-1.4 0.5-1.3 1.5 0.1 0.9 0.8 1.4 1.5 1.4 0.8 0 1.4-0.5 1.3-1.4z"/>
										<path id="&lt;Compound Path&gt;" class="s8" d="m299.1 263.2l0.1 1.4q-0.1 0-0.3 0c-0.9 0-1.4 0.5-1.3 1.5l0.2 2.5h-1.6l-0.4-5.3h1.5v0.7c0.4-0.5 1-0.8 1.8-0.8z"/>
										<path id="&lt;Compound Path&gt;" fill-rule="evenodd" class="s8" d="m305.5 266.4h-4.1c0.2 0.7 0.9 1.1 1.7 1.1 0.5 0 0.9-0.2 1.3-0.5l0.9 0.9q-0.7 0.8-2.2 0.8c-1.8 0-3.1-1.1-3.3-2.7-0.1-1.7 1-2.8 2.7-2.8 1.5 0 2.9 1 3 2.8 0 0.1 0 0.3 0 0.4zm-4.2-0.9h2.7c-0.2-0.7-0.7-1.1-1.4-1.1-0.7 0-1.2 0.4-1.3 1.1z"/>
										<path id="&lt;Compound Path&gt;" class="s8" d="m306.2 268.1l0.4-1.1c0.5 0.3 1.3 0.5 2 0.5 0.7 0 0.9-0.1 0.9-0.4-0.1-0.9-3.3 0-3.4-2.2-0.1-1 0.7-1.7 2.3-1.7 0.7 0 1.6 0.2 2.1 0.5l-0.4 1.1c-0.6-0.3-1.1-0.4-1.6-0.4-0.7 0-1 0.2-1 0.5 0.1 0.9 3.3 0 3.5 2.1 0.1 1-0.8 1.7-2.4 1.7-0.9 0-1.9-0.2-2.4-0.6z"/>
										<path id="&lt;Compound Path&gt;" class="s8" d="m311.5 268.1l0.4-1.1c0.6 0.3 1.3 0.5 2 0.5 0.7 0 0.9-0.1 0.9-0.4-0.1-0.9-3.2 0-3.4-2.2-0.1-1 0.7-1.7 2.3-1.7 0.8 0 1.6 0.2 2.1 0.5l-0.4 1.1c-0.6-0.3-1.1-0.4-1.6-0.4-0.7 0-1 0.2-0.9 0.5 0 0.9 3.2 0 3.4 2.1 0.1 1-0.8 1.7-2.4 1.7-0.9 0-1.8-0.2-2.4-0.6z"/>
									</g>
									<g id="&lt;Group&gt;">
										<path id="&lt;Compound Path&gt;" fill-rule="evenodd" class="s8" d="m292.6 401.4c0.1 1.5-1 2.5-2.8 2.5h-1.4l0.1 1.9h-1.6l-0.6-7h3c1.9 0 3.2 1 3.3 2.6zm-1.6 0c-0.1-0.8-0.7-1.2-1.6-1.2h-1.4l0.2 2.4h1.4c1 0 1.4-0.5 1.4-1.2z"/>
										<path id="&lt;Compound Path&gt;" fill-rule="evenodd" class="s8" d="m298.5 402.8l0.2 3h-1.4l-0.1-0.6q-0.4 0.7-1.6 0.7c-1.2 0-2-0.7-2.1-1.6-0.1-1 0.5-1.6 2.2-1.6h1.2c-0.1-0.7-0.5-1.1-1.3-1.1-0.6 0-1.2 0.2-1.5 0.5l-0.7-1.1c0.6-0.4 1.4-0.6 2.3-0.6 1.6 0 2.6 0.7 2.8 2.4zm-1.5 1.3v-0.5h-1.1c-0.7 0-0.9 0.3-0.9 0.6 0 0.4 0.4 0.7 0.9 0.7 0.6 0 1-0.3 1.1-0.8z"/>
										<path id="&lt;Compound Path&gt;" class="s8" d="m299.6 405.3l0.4-1.1c0.5 0.3 1.3 0.5 1.9 0.5 0.7 0 1-0.2 1-0.5-0.1-0.8-3.3 0.1-3.5-2.1-0.1-1 0.8-1.7 2.4-1.7 0.7 0 1.5 0.1 2.1 0.4l-0.4 1.2c-0.6-0.3-1.1-0.4-1.6-0.4-0.7 0-1 0.2-1 0.5 0.1 0.9 3.3 0 3.5 2.1 0 1-0.8 1.7-2.4 1.7-1 0-1.9-0.2-2.4-0.6z"/>
										<path id="&lt;Compound Path&gt;" class="s8" d="m304.9 405.3l0.4-1.1c0.5 0.3 1.3 0.5 1.9 0.5 0.7 0 1-0.2 1-0.5-0.1-0.8-3.3 0.1-3.5-2.1-0.1-1 0.8-1.7 2.4-1.7 0.7 0 1.5 0.1 2.1 0.4l-0.4 1.2c-0.6-0.3-1.1-0.4-1.6-0.4-0.7 0-1 0.2-1 0.5 0.1 0.9 3.3 0 3.5 2.1 0 1-0.8 1.7-2.4 1.7-0.9 0-1.9-0.2-2.4-0.6z"/>
										<path id="&lt;Compound Path&gt;" class="s8" d="m318.8 400.5l-1.4 5.3h-1.5l-1.5-3.3-1 3.3h-1.5l-2.4-5.3h1.4l1.6 3.6 1-3.6h1.4l1.6 3.6 1-3.6z"/>
										<path id="&lt;Compound Path&gt;" fill-rule="evenodd" class="s8" d="m319.2 403.1c-0.1-1.6 1.1-2.7 2.8-2.7 1.7 0 3 1.1 3.2 2.7 0.1 1.7-1 2.8-2.8 2.8-1.7 0-3-1.1-3.2-2.8zm4.4 0c-0.1-0.9-0.7-1.4-1.5-1.4-0.8 0-1.4 0.5-1.3 1.4 0.1 1 0.8 1.5 1.5 1.5 0.8 0 1.4-0.5 1.3-1.5z"/>
										<path id="&lt;Compound Path&gt;" class="s8" d="m329.3 400.4l0.1 1.4q-0.2 0-0.3 0c-0.9 0-1.4 0.5-1.3 1.5l0.2 2.5h-1.6l-0.4-5.3h1.4l0.1 0.7c0.3-0.6 1-0.8 1.8-0.8z"/>
										<path id="&lt;Compound Path&gt;" fill-rule="evenodd" class="s8" d="m335.5 398.4l0.6 7.4h-1.5v-0.6q-0.5 0.7-1.6 0.7c-1.6 0-2.8-1.1-3-2.8-0.1-1.6 1-2.7 2.5-2.7 0.6 0 1.2 0.2 1.7 0.6l-0.3-2.6zm-1.1 4.7c-0.1-0.9-0.7-1.4-1.5-1.4-0.8 0-1.3 0.5-1.2 1.4 0 1 0.7 1.5 1.5 1.5 0.7 0 1.3-0.5 1.2-1.5z"/>
									</g>
									<g id="&lt;Group&gt;">
										<path id="&lt;Path&gt;" class="s8" d="m566.4 433.1h-39.4c-7.5 0-14.1-6.1-14.7-13.6-0.7-7.4 4.8-13.5 12.3-13.5h39.5c7.5 0 14 6.1 14.7 13.5 0.6 7.5-4.9 13.6-12.4 13.6z"/>
										<g id="&lt;Group&gt;">
											<path id="&lt;Compound Path&gt;" class="s11" d="m532.9 422.5l0.4-1.3c0.7 0.5 1.6 0.8 2.4 0.8 1 0 1.3-0.4 1.3-0.8-0.1-1.3-4.1-0.4-4.3-3-0.1-1.2 0.7-2.2 2.7-2.2 0.9 0 1.8 0.2 2.5 0.6l-0.4 1.3c-0.7-0.4-1.3-0.6-2-0.6-0.9 0-1.3 0.4-1.2 0.8 0.1 1.3 4.1 0.4 4.3 3 0.1 1.2-0.8 2.2-2.8 2.2-1.1 0-2.2-0.4-2.9-0.8z"/>
											<path id="&lt;Compound Path&gt;" fill-rule="evenodd" class="s11" d="m544.3 420.1l0.2 3h-1.4l-0.1-0.6q-0.4 0.7-1.6 0.7c-1.2 0-2-0.7-2.1-1.6-0.1-1 0.5-1.6 2.2-1.6h1.2c-0.1-0.7-0.5-1.1-1.3-1.1-0.6 0-1.2 0.2-1.5 0.5l-0.7-1.1c0.6-0.4 1.4-0.6 2.3-0.6 1.6 0 2.6 0.7 2.8 2.4zm-1.5 1.3v-0.5h-1.1c-0.7 0-0.9 0.3-0.9 0.6 0 0.4 0.4 0.7 0.9 0.7 0.6 0 1-0.3 1.1-0.8z"/>
											<path id="&lt;Compound Path&gt;" class="s11" d="m550.7 417.8l-1.8 5.3h-1.6l-2.7-5.3h1.6l1.8 3.6 1.2-3.6z"/>
											<path id="&lt;Compound Path&gt;" fill-rule="evenodd" class="s11" d="m556.7 420.9h-4c0.2 0.7 0.8 1.1 1.6 1.1 0.6 0 1-0.2 1.3-0.6l0.9 1q-0.7 0.8-2.1 0.8c-1.9 0-3.2-1.2-3.4-2.8-0.1-1.6 1-2.7 2.7-2.7 1.6 0 2.9 1 3 2.8 0 0.1 0 0.3 0 0.4zm-4.1-0.9h2.6c-0.2-0.7-0.7-1.1-1.4-1.1-0.7 0-1.2 0.4-1.2 1.1z"/>
										</g>
										<path id="&lt;Path&gt;" class="s8" d="m641.5 433.1h-39.4c-7.5 0-14.1-6.1-14.8-13.6-0.6-7.4 4.9-13.5 12.4-13.5h39.5c7.4 0 14 6.1 14.7 13.5 0.6 7.5-4.9 13.6-12.4 13.6z"/>
										<g id="&lt;Group&gt;">
											<path id="&lt;Compound Path&gt;" class="s11" d="m597.2 419.6c-0.2-2.1 1.3-3.6 3.5-3.6 1.2 0 2.2 0.5 2.9 1.3l-0.9 0.9q-0.8-0.8-1.8-0.8c-1.4 0-2.2 0.9-2.1 2.2 0.1 1.4 1.1 2.3 2.5 2.3q1 0 1.6-0.9l1.2 1c-0.6 0.8-1.6 1.3-2.8 1.3-2.2 0-3.9-1.6-4.1-3.7z"/>
											<path id="&lt;Compound Path&gt;" fill-rule="evenodd" class="s11" d="m604.3 420.4c-0.1-1.6 1-2.7 2.7-2.7 1.7 0 3.1 1.1 3.2 2.7 0.2 1.7-1 2.8-2.7 2.8-1.7 0-3-1.1-3.2-2.8zm4.3 0c0-0.9-0.7-1.4-1.5-1.4-0.7 0-1.3 0.5-1.2 1.4 0.1 1 0.7 1.5 1.5 1.5 0.8 0 1.3-0.5 1.2-1.5z"/>
											<path id="&lt;Compound Path&gt;" class="s11" d="m616.7 420.1l0.3 3h-1.6l-0.2-2.8c-0.1-0.9-0.5-1.3-1.2-1.3-0.8 0-1.3 0.5-1.2 1.5l0.3 2.6h-1.6l-0.5-5.3h1.5l0.1 0.6c0.4-0.5 1-0.7 1.7-0.7 1.3 0 2.3 0.7 2.4 2.4z"/>
											<path id="&lt;Compound Path&gt;" class="s11" d="m621.9 422.9c-0.3 0.2-0.8 0.3-1.3 0.3-1.3 0-2.1-0.6-2.2-1.9l-0.2-2.2h-0.8l-0.1-1.2h0.8l-0.1-1.3h1.6l0.1 1.3h1.3l0.1 1.2h-1.3l0.2 2.2c0 0.4 0.3 0.7 0.7 0.7q0.4 0 0.6-0.2z"/>
											<path id="&lt;Compound Path&gt;" class="s11" d="m622 416.1c-0.1-0.5 0.3-0.8 0.9-0.8 0.5 0 1 0.3 1 0.8 0 0.5-0.3 0.9-0.9 0.9-0.6 0-1-0.4-1-0.9zm0.3 1.7h1.5l0.5 5.3h-1.5z"/>
											<path id="&lt;Compound Path&gt;" class="s11" d="m631 420.1l0.3 3h-1.6l-0.2-2.8c-0.1-0.9-0.5-1.3-1.2-1.3-0.8 0-1.3 0.5-1.2 1.5l0.2 2.6h-1.5l-0.5-5.3h1.5v0.6c0.4-0.5 1-0.7 1.8-0.7 1.2 0 2.3 0.7 2.4 2.4z"/>
											<path id="&lt;Compound Path&gt;" class="s11" d="m637.6 417.8l0.5 5.3h-1.5v-0.6c-0.4 0.5-1 0.7-1.6 0.7-1.4 0-2.4-0.7-2.6-2.4l-0.2-3h1.5l0.3 2.8c0.1 0.9 0.5 1.3 1.2 1.3 0.7 0 1.2-0.5 1.1-1.5l-0.2-2.6z"/>
											<path id="&lt;Compound Path&gt;" fill-rule="evenodd" class="s11" d="m644.6 420.9h-4.1c0.2 0.7 0.8 1.1 1.7 1.1 0.5 0 0.9-0.2 1.3-0.6l0.9 1q-0.7 0.8-2.2 0.8c-1.8 0-3.1-1.2-3.3-2.8-0.1-1.6 1-2.7 2.6-2.7 1.6 0 2.9 1 3.1 2.8 0 0.1 0 0.3 0 0.4zm-4.2-0.9h2.7c-0.2-0.7-0.7-1.1-1.4-1.1-0.8 0-1.2 0.4-1.3 1.1z"/>
										</g>
									</g>
									<g id="&lt;Group&gt;">
										<path id="&lt;Compound Path&gt;" class="s8" d="m484.1 359.7c-0.2-1.8 1.4-3 3.5-3 1.3 0 2.3 0.3 3 1l-1 0.8q-0.7-0.7-1.8-0.7c-1.3 0-2.2 0.8-2.1 1.9 0.1 1.1 1.1 1.8 2.4 1.8q1.1 0 1.8-0.6l1.1 0.8c-0.6 0.6-1.6 1-2.8 1-2.2 0-3.9-1.3-4.1-3z"/>
										<path id="&lt;Compound Path&gt;" fill-rule="evenodd" class="s8" d="m491.2 360.4c-0.1-1.4 1.1-2.3 2.8-2.3 1.7 0 3 0.9 3.1 2.3 0.2 1.3-1 2.3-2.7 2.3-1.7 0-3.1-1-3.2-2.3zm4.4 0c-0.1-0.8-0.7-1.3-1.5-1.3-0.8 0-1.4 0.5-1.3 1.3 0.1 0.7 0.7 1.2 1.5 1.2 0.8 0 1.3-0.5 1.3-1.2z"/>
										<path id="&lt;Compound Path&gt;" class="s8" d="m503.7 360l0.2 2.6h-1.6l-0.2-2.4c0-0.7-0.5-1-1.2-1-0.7 0-1.2 0.4-1.2 1.2l0.2 2.2h-1.5l-0.4-4.5h1.5v0.5c0.4-0.3 1-0.5 1.8-0.5 1.2 0 2.2 0.6 2.4 1.9z"/>
										<path id="&lt;Compound Path&gt;" class="s8" d="m508.7 362.4c-0.3 0.2-0.7 0.3-1.2 0.3-1.3 0-2.1-0.6-2.2-1.6l-0.1-1.9h-0.8l-0.1-1h0.8l-0.1-1.1h1.6l0.1 1.1h1.3l0.1 1h-1.4l0.2 1.8c0 0.4 0.3 0.6 0.7 0.6q0.4 0 0.6-0.1z"/>
										<path id="&lt;Compound Path&gt;" fill-rule="evenodd" class="s8" d="m514.2 360l0.2 2.6h-1.5v-0.6q-0.4 0.6-1.6 0.7c-1.3 0-2.1-0.6-2.1-1.4-0.1-0.8 0.5-1.3 2.2-1.3h1.2c0-0.6-0.5-0.9-1.3-0.9-0.6 0-1.2 0.1-1.5 0.4l-0.7-0.9c0.6-0.4 1.5-0.5 2.3-0.5 1.7 0 2.7 0.6 2.8 1.9zm-1.5 1.2v-0.5h-1.1c-0.7 0-0.9 0.2-0.9 0.5 0 0.4 0.4 0.6 0.9 0.6 0.5 0 1-0.2 1.1-0.6z"/>
										<path id="&lt;Compound Path&gt;" class="s8" d="m515.3 360.4c-0.1-1.4 1-2.3 2.8-2.3 1.1 0 2 0.4 2.5 1.1l-1.2 0.5c-0.3-0.4-0.8-0.6-1.2-0.6-0.8 0-1.4 0.5-1.3 1.3 0 0.7 0.7 1.2 1.5 1.2 0.5 0 0.9-0.2 1.1-0.6l1.3 0.5c-0.3 0.7-1.2 1.2-2.3 1.2-1.8 0-3.1-1-3.2-2.3z"/>
										<path id="&lt;Compound Path&gt;" class="s8" d="m525.3 362.4c-0.3 0.2-0.8 0.3-1.2 0.3-1.3 0-2.1-0.6-2.2-1.6l-0.1-1.9h-0.9l-0.1-1h0.9l-0.1-1.1h1.5l0.1 1.1h1.4l0.1 1h-1.4l0.2 1.8c0 0.4 0.3 0.6 0.7 0.6q0.4 0 0.6-0.1z"/>
										<path id="&lt;Compound Path&gt;" class="s8" d="m535.1 356.8l0.5 5.8h-1.4l-3.8-3.5 0.3 3.5h-1.6l-0.5-5.8h1.4l3.8 3.5-0.3-3.5z"/>
										<path id="&lt;Compound Path&gt;" class="s8" d="m542.2 358.1l0.3 4.5h-1.4l-0.1-0.5c-0.4 0.3-0.9 0.6-1.6 0.6-1.4 0-2.4-0.7-2.5-2.1l-0.2-2.5h1.6l0.2 2.4c0 0.7 0.5 1 1.1 1 0.8 0 1.3-0.3 1.2-1.2l-0.2-2.2z"/>
										<path id="&lt;Compound Path&gt;" class="s8" d="m552.9 360l0.2 2.6h-1.6l-0.2-2.4c0-0.7-0.5-1-1.1-1-0.7 0-1.2 0.4-1.1 1.1l0.2 2.3h-1.5l-0.3-2.4c0-0.7-0.4-1-1.1-1-0.7 0-1.1 0.4-1 1.1l0.1 2.3h-1.5l-0.4-4.5h1.5v0.5c0.4-0.3 1-0.5 1.7-0.5 0.7 0 1.4 0.2 1.8 0.7 0.4-0.5 1.1-0.7 1.9-0.7 1.3 0 2.2 0.6 2.4 1.9z"/>
										<path id="&lt;Compound Path&gt;" fill-rule="evenodd" class="s8" d="m560.1 360.4c0.2 1.4-0.9 2.3-2.4 2.3q-1.1 0-1.8-0.6l0.1 0.5h-1.5l-0.6-6.2h1.6l0.2 2.2q0.6-0.5 1.6-0.5c1.5 0 2.7 0.9 2.8 2.3zm-1.5 0c-0.1-0.8-0.7-1.3-1.5-1.3-0.8 0-1.3 0.5-1.3 1.3 0.1 0.7 0.7 1.2 1.5 1.2 0.8 0 1.3-0.5 1.3-1.2z"/>
										<path id="&lt;Compound Path&gt;" fill-rule="evenodd" class="s8" d="m566.5 360.7h-4.1c0.2 0.6 0.8 0.9 1.6 0.9 0.6 0 1-0.1 1.3-0.4l0.9 0.7q-0.7 0.7-2.1 0.8c-1.9 0-3.2-1-3.3-2.3-0.1-1.4 1-2.3 2.7-2.3 1.5 0 2.8 0.8 3 2.3 0 0.1 0 0.2 0 0.3zm-4.2-0.7h2.7c-0.2-0.6-0.8-1-1.5-1-0.7 0-1.1 0.4-1.2 1z"/>
										<path id="&lt;Compound Path&gt;" class="s8" d="m570.6 358.1l0.1 1.2q-0.1-0.1-0.3-0.1c-0.9 0-1.4 0.4-1.3 1.3l0.1 2.1h-1.5l-0.4-4.5h1.5v0.6c0.4-0.4 1-0.6 1.8-0.6z"/>
									</g>
									<g id="&lt;Group&gt;">
										<path id="&lt;Compound Path&gt;" class="s8" d="m278.1 311.6l0.5-1c0.6 0.3 1.5 0.6 2.3 0.6 1 0 1.4-0.3 1.3-0.6-0.1-1.1-4.1-0.4-4.3-2.5 0-1 0.8-1.8 2.8-1.8 0.9 0 1.8 0.1 2.5 0.5l-0.4 1c-0.7-0.3-1.4-0.5-2-0.5-0.9 0-1.3 0.3-1.2 0.7 0 1.1 4.1 0.3 4.2 2.5 0.1 0.9-0.8 1.8-2.8 1.8-1.1 0-2.2-0.3-2.9-0.7z"/>
										<path id="&lt;Compound Path&gt;" class="s8" d="m288.4 311.9c-0.3 0.2-0.7 0.3-1.2 0.3-1.3 0-2.1-0.5-2.2-1.6l-0.1-1.8h-0.9v-1h0.8l-0.1-1.1h1.6l0.1 1.1h1.3l0.1 1h-1.4l0.2 1.8c0 0.4 0.3 0.6 0.7 0.6q0.4 0 0.6-0.2z"/>
										<path id="&lt;Compound Path&gt;" fill-rule="evenodd" class="s8" d="m293.9 309.6l0.2 2.6h-1.5v-0.6q-0.4 0.6-1.6 0.6c-1.3 0-2.1-0.6-2.1-1.3-0.1-0.8 0.5-1.4 2.2-1.4h1.2c0-0.5-0.5-0.8-1.3-0.8-0.6 0-1.2 0.1-1.5 0.4l-0.7-0.9c0.6-0.4 1.4-0.6 2.3-0.6 1.7 0 2.7 0.7 2.8 2zm-1.5 1.2v-0.5h-1.1c-0.7 0-0.9 0.2-0.9 0.5 0 0.3 0.4 0.6 0.9 0.6 0.5 0 1-0.2 1.1-0.6z"/>
										<path id="&lt;Compound Path&gt;" class="s8" d="m299 311.9c-0.3 0.2-0.8 0.3-1.3 0.3-1.3 0-2-0.5-2.1-1.6l-0.2-1.8h-0.8l-0.1-1h0.8l-0.1-1.1h1.6l0.1 1.1h1.3l0.1 1h-1.3l0.1 1.8c0.1 0.4 0.3 0.6 0.7 0.6q0.4 0 0.7-0.2z"/>
										<path id="&lt;Compound Path&gt;" fill-rule="evenodd" class="s8" d="m304.8 310.3h-4.1c0.2 0.5 0.8 0.9 1.6 0.9 0.6 0 1-0.2 1.3-0.4l0.9 0.7q-0.7 0.7-2.1 0.7c-1.9 0-3.2-0.9-3.3-2.3-0.1-1.3 1-2.3 2.7-2.3 1.5 0 2.8 0.9 3 2.3 0 0.1 0 0.3 0 0.4zm-4.2-0.8h2.7c-0.2-0.5-0.7-0.9-1.4-0.9-0.8 0-1.2 0.4-1.3 0.9z"/>
									</g>
									<g id="&lt;Group&gt;">
										<path id="&lt;Compound Path&gt;" class="s8" d="m472.4 221.1h1.6l0.5 5.7h3.6l0.1 1.3h-5.2z"/>
										<path id="&lt;Compound Path&gt;" fill-rule="evenodd" class="s8" d="m483.5 225l0.3 3.1h-1.5v-0.7q-0.4 0.8-1.6 0.8c-1.3 0-2.1-0.7-2.2-1.7 0-0.9 0.6-1.6 2.2-1.6h1.2c0-0.6-0.4-1-1.3-1-0.6 0-1.1 0.2-1.5 0.5l-0.7-1.1c0.6-0.4 1.5-0.7 2.3-0.7 1.7 0 2.7 0.8 2.8 2.4zm-1.4 1.4l-0.1-0.6h-1c-0.8 0-1 0.3-1 0.7 0.1 0.4 0.4 0.6 1 0.6 0.5 0 0.9-0.2 1.1-0.7z"/>
										<path id="&lt;Compound Path&gt;" class="s8" d="m484.6 227.6l0.4-1.1c0.6 0.3 1.3 0.5 2 0.5 0.7 0 0.9-0.2 0.9-0.5-0.1-0.9-3.2 0-3.4-2.1-0.1-1 0.7-1.8 2.3-1.8 0.8 0 1.6 0.2 2.1 0.5l-0.4 1.1c-0.6-0.3-1.1-0.4-1.6-0.4-0.7 0-1 0.2-0.9 0.5 0 0.9 3.2 0 3.4 2.2 0.1 1-0.8 1.7-2.4 1.7-0.9 0-1.8-0.3-2.4-0.6z"/>
										<path id="&lt;Compound Path&gt;" class="s8" d="m494 227.8c-0.4 0.3-0.8 0.4-1.3 0.4-1.3 0-2.1-0.7-2.2-2l-0.2-2.2h-0.8l-0.1-1.2h0.8l-0.1-1.3h1.6l0.1 1.3h1.3l0.1 1.2h-1.3l0.2 2.2c0 0.5 0.3 0.7 0.7 0.7q0.4 0 0.6-0.2z"/>
										<path id="&lt;Compound Path&gt;" class="s8" d="m503.6 221.1l0.6 7h-1.3l-3.9-4.3 0.4 4.3h-1.6l-0.6-7h1.3l3.9 4.2-0.4-4.2z"/>
										<path id="&lt;Compound Path&gt;" fill-rule="evenodd" class="s8" d="m510.3 225l0.2 3.1h-1.4l-0.1-0.7q-0.4 0.8-1.6 0.8c-1.2 0-2-0.7-2.1-1.7-0.1-0.9 0.5-1.6 2.1-1.6h1.3c-0.1-0.6-0.5-1-1.3-1-0.6 0-1.2 0.2-1.6 0.5l-0.6-1.1c0.5-0.4 1.4-0.7 2.3-0.7 1.6 0 2.6 0.8 2.8 2.4zm-1.5 1.4v-0.6h-1.1c-0.7 0-0.9 0.3-0.9 0.7 0 0.4 0.4 0.6 0.9 0.6 0.5 0 1-0.2 1.1-0.7z"/>
										<path id="&lt;Compound Path&gt;" class="s8" d="m520.8 225l0.2 3.1h-1.5l-0.3-2.8c-0.1-0.9-0.5-1.3-1.1-1.3-0.7 0-1.2 0.4-1.1 1.4l0.3 2.7h-1.6l-0.3-2.8c0-0.9-0.4-1.3-1.1-1.3-0.7 0-1.1 0.4-1 1.4l0.2 2.7h-1.6l-0.4-5.4h1.4l0.1 0.6c0.4-0.4 0.9-0.7 1.6-0.7 0.8 0 1.5 0.3 1.9 0.9 0.4-0.5 1-0.9 1.8-0.9 1.3 0 2.3 0.8 2.5 2.4z"/>
										<path id="&lt;Compound Path&gt;" fill-rule="evenodd" class="s8" d="m527.5 225.8h-4c0.2 0.7 0.8 1.1 1.6 1.1 0.6 0 1-0.1 1.3-0.5l0.9 0.9q-0.7 0.9-2.1 0.9c-1.9 0-3.2-1.2-3.4-2.8-0.1-1.6 1-2.8 2.7-2.8 1.6 0 2.9 1.1 3 2.8 0 0.1 0 0.3 0 0.4zm-4.1-0.9h2.6c-0.2-0.6-0.7-1.1-1.4-1.1-0.7 0-1.2 0.4-1.2 1.1z"/>
									</g>
								</g>
								<path id="&lt;Path&gt;" class="s11" d="m460.3 250.3h-187.9l-1.4-16.1h187.9z"/>
								<path id="&lt;Path&gt;" class="s11" d="m467.7 334h-188l-1.4-16.1h188z"/>
								<path id="&lt;Path&gt;" class="s11" d="m471.9 382.9h-187.9l-1.4-16.1h187.9z"/>
								<path id="&lt;Path&gt;" class="s11" d="m475.9 427.6h-188l-1.4-16.1h187.9z"/>
								<path id="&lt;Path&gt;" class="s11" d="m674.1 382.9h-188l-1.4-16.1h187.9z"/>
								<path id="&lt;Path&gt;" class="s11" d="m665.9 290.2h-390l-1.4-16.1h390z"/>
								<path id="&lt;Path&gt;" class="s11" d="m662.4 250.3h-187.9l-1.4-16.1h187.9z"/>
							</g>
							<path id="&lt;Path&gt;" class="s1" d="m528.9 381.2h-14.5l-1.1-13.3h14.5z"/>
							<g id="&lt;Group&gt;">
								<path id="&lt;Path&gt;" class="s6" d="m525.6 372.3l-4.2 5.1-5-5.1z"/>
							</g>
							<g id="&lt;Group&gt;">
								<path id="&lt;Compound Path&gt;" class="s6" d="m494.7 374.9h-1.8l0.2 1.7h-1.3l-0.2-1.7h-1.7l-0.1-1.3h1.7l-0.1-1.7h1.3l0.1 1.7h1.8z"/>
								<path id="&lt;Compound Path&gt;" class="s6" d="m500.7 375.6c0.1 1.2-0.7 2.3-2.7 2.3-1 0-2-0.3-2.7-0.8l0.5-1.2c0.6 0.4 1.3 0.6 2.1 0.6 0.8 0 1.2-0.3 1.2-0.9-0.1-0.5-0.5-0.8-1.4-0.8h-0.7l-0.1-1.1 1.3-1.6h-3l-0.1-1.3h4.9l0.1 1-1.5 1.8c1.3 0.2 2 1 2.1 2z"/>
								<path id="&lt;Compound Path&gt;" class="s6" d="m506.7 376.4l0.1 1.4h-5.3l-0.1-1.1 2.5-2.5c0.6-0.6 0.7-1 0.6-1.3 0-0.6-0.4-0.9-1.2-0.9-0.6 0-1 0.2-1.3 0.7l-1.3-0.8c0.5-0.8 1.4-1.3 2.7-1.3 1.5 0 2.7 0.8 2.8 2.1 0 0.7-0.1 1.3-1 2.2l-1.5 1.5z"/>
							</g>
							<path id="&lt;Path&gt;" class="s6" d="m633.1 377.8h-95.5l-0.5-5.5h95.5z"/>
							<path id="&lt;Path&gt;" class="s6" d="m384.1 377.8h-95.6l-0.5-5.5h95.6z"/>
							<path id="&lt;Path&gt;" class="s6" d="m328 328.7h-43.8l-0.5-5.5h43.8z"/>
							<path id="&lt;Path&gt;" class="s6" d="m320.6 245h-43.7l-0.5-5.5h43.7z"/>
							<path id="&lt;Path&gt;" class="s6" d="m523.6 245h-43.7l-0.5-5.5h43.7z"/>
							<path id="&lt;Path&gt;" class="s6" d="m625 284.9h-344.6l-0.5-5.5h344.6z"/>
							<g id="&lt;Group&gt;">
								<path id="&lt;Compound Path&gt;" class="s6" d="m298.1 419.9l1.6 0.8-0.6 1.2-1.6-0.9 0.1 1.7h-1.3l-0.1-1.7-1.5 0.9-0.7-1.2 1.4-0.8-1.6-0.8 0.6-1.2 1.6 1-0.2-1.8h1.4l0.1 1.8 1.4-1 0.8 1.2z"/>
								<path id="&lt;Compound Path&gt;" class="s6" d="m308.1 419.9l1.6 0.8-0.6 1.2-1.6-0.9 0.2 1.7h-1.3l-0.2-1.7-1.4 0.9-0.8-1.2 1.5-0.8-1.6-0.8 0.5-1.2 1.7 1-0.2-1.8h1.3l0.1 1.8 1.5-1 0.8 1.2z"/>
								<path id="&lt;Compound Path&gt;" class="s6" d="m318.2 419.9l1.6 0.8-0.6 1.2-1.7-0.9 0.2 1.7h-1.3l-0.1-1.7-1.5 0.9-0.8-1.2 1.5-0.8-1.6-0.8 0.6-1.2 1.6 1-0.2-1.8h1.3l0.2 1.8 1.4-1 0.8 1.2z"/>
								<path id="&lt;Compound Path&gt;" class="s6" d="m328.2 419.9l1.6 0.8-0.6 1.2-1.6-0.9 0.2 1.7h-1.4l-0.1-1.7-1.4 0.9-0.8-1.2 1.4-0.8-1.6-0.8 0.6-1.2 1.6 1-0.1-1.8h1.3l0.1 1.8 1.5-1 0.7 1.2z"/>
								<path id="&lt;Compound Path&gt;" class="s6" d="m338.2 419.9l1.6 0.8-0.6 1.2-1.6-0.9 0.2 1.7h-1.3l-0.2-1.7-1.4 0.9-0.8-1.2 1.5-0.8-1.6-0.8 0.5-1.2 1.7 1-0.2-1.8h1.3l0.1 1.8 1.5-1 0.8 1.2z"/>
								<path id="&lt;Compound Path&gt;" class="s6" d="m348.3 419.9l1.6 0.8-0.6 1.2-1.6-0.9 0.1 1.7h-1.3l-0.1-1.7-1.5 0.9-0.7-1.2 1.4-0.8-1.6-0.8 0.6-1.2 1.6 1-0.2-1.8h1.4l0.1 1.8 1.4-1 0.8 1.2z"/>
								<path id="&lt;Compound Path&gt;" class="s6" d="m358.3 419.9l1.6 0.8-0.6 1.2-1.6-0.9 0.2 1.7h-1.3l-0.2-1.7-1.4 0.9-0.8-1.2 1.4-0.8-1.6-0.8 0.6-1.2 1.6 1-0.1-1.8h1.3l0.1 1.8 1.5-1 0.8 1.2z"/>
							</g>
							<path id="&lt;Path&gt;" class="s12" d="m266 452.1h432.9l-24-274.4h-432.9z"/>
						</g>
						<g id="&lt;Group&gt;">
							<g id="&lt;Group&gt;">
								<path id="&lt;Path&gt;" class="s12" d="m335.4 157.2l84.5 316.2h-28.4l-83.6-316.2z"/>
								<path id="&lt;Path&gt;" class="s12" d="m291.5 157.2l84.5 316.2h-56.4l-83.6-316.2z"/>
							</g>
						</g>
						<g id="&lt;Group&gt;">
							<path id="&lt;Path&gt;" class="s8" d="m278 151.2l12.4-0.1v-2.5l-12.4 0.1z"/>
							<path id="&lt;Path&gt;" class="s8" d="m301.3 151.1l35.7-0.3v-2.6l-35.7 0.3z"/>
						</g>
					</g>
					<path id="&lt;Path&gt;" class="s10" d="m719.7 321.2c0.6 7.3-4.8 13.2-12.1 13.2-7.3 0-13.7-5.9-14.3-13.2-0.7-7.3 4.7-13.2 12-13.2 7.3 0 13.7 5.9 14.4 13.2z"/>
				</g>
			</g>
			<path id="&lt;Path&gt;" class="s10" d="m250.3 367.9c-1.4 0-2.7-1.1-2.8-2.5l-8.7-100.2c-0.2-1.4 0.9-2.5 2.3-2.5 1.4 0 2.6 1.1 2.7 2.5l8.8 100.2c0.1 1.4-0.9 2.5-2.3 2.5z"/>
		</g>
	</g>
	<g id="Plant">
		<g id="&lt;Group&gt;">
			<path id="&lt;Path&gt;" class="s8" d="m282.8 820h-41.7l-4.6-8.7c-11.3-21.3-17.3-44.9-17.7-68.9v-2.1h86.3c0 25.7-6.5 51-18.9 73.6z"/>
			<path id="&lt;Path&gt;" class="s7" d="m282.8 820h-41.7l-4.6-8.7c-11.3-21.3-17.3-44.9-17.7-68.9v-2.1h86.3c0 25.7-6.5 51-18.9 73.6z"/>
			<g id="&lt;Group&gt;">
				<path id="&lt;Path&gt;" class="s8" d="m192.7 742c7.9 5.3 17 8.1 26.1 7.9 1.1 0 2.2-0.1 3.2-0.6 1-0.5 1.8-1.7 1.7-2.9 0-1.5-1.2-2.5-2.2-3.2-5.9-4.4-12.3-7.9-18.9-10.3q-5.1-1.9-10.4-3c-2.8-0.6-5.7-1.9-8.6-1.9-0.5 6.1 5 11.3 9.1 14z"/>
				<g id="&lt;Group&gt;">
					<g id="&lt;Group&gt;">
						<path id="&lt;Path&gt;" class="s8" d="m303.9 706.9c3.9-5 9.5-8.2 15.4-8.8 0.3-0.1 0.7-0.1 1 0.1 0.3 0.3 0.4 0.9 0.4 1.4 0.1 7.9-2.2 15.8-6.6 21.9-2 2.8-4.6 5.3-7.6 6.4-2.2 0.8-4.8 0.8-6.9-0.4-2.1-1.2-1.8-2.9-1.5-5.3 0.5-5.6 2.5-11 5.8-15.3z"/>
						<path id="&lt;Path&gt;" class="s13" d="m303.9 706.9c3.9-5 9.5-8.2 15.4-8.8 0.3-0.1 0.7-0.1 1 0.1 0.3 0.3 0.4 0.9 0.4 1.4 0.1 7.9-2.2 15.8-6.6 21.9-2 2.8-4.6 5.3-7.6 6.4-2.2 0.8-4.8 0.8-6.9-0.4-2.1-1.2-1.8-2.9-1.5-5.3 0.5-5.6 2.5-11 5.8-15.3z"/>
					</g>
					<g id="&lt;Group&gt;">
						<path id="&lt;Path&gt;" class="s8" d="m266.2 710.5c2.9-5.2 5-11.8 5.1-18.8 0.1-5.9-1.3-11.7-3.2-16.7-1.9-4.9-4.4-9.2-6.9-13.5-0.8 12.8-1.1 25.7-0.7 38.6 0 2.7 0.2 5.5 0.9 7.9 0.8 2.4 2.5 4.3 4.1 3.7z"/>
					</g>
					<g id="&lt;Group&gt;">
						<path id="&lt;Path&gt;" class="s8" d="m277.3 671.4c-5.4 8.1-8.8 19.8-9.3 31.8-0.1 4.3 0.1 8.7 1.3 12.5 1.3 3.7 3.8 6.5 6.3 6.2 2.7-0.4 4.8-4.1 6.3-7.8 2.6-6.1 5.6-14.8 4.2-22.4-1.6-8.1-4.6-15.3-8.8-20.3z"/>
						<path id="&lt;Path&gt;" class="s14" d="m277.3 671.4c-5.4 8.1-8.8 19.8-9.3 31.8-0.1 4.3 0.1 8.7 1.3 12.5 1.3 3.7 3.8 6.5 6.3 6.2 2.7-0.4 4.8-4.1 6.3-7.8 2.6-6.1 5.6-14.8 4.2-22.4-1.6-8.1-4.6-15.3-8.8-20.3z"/>
					</g>
					<g id="&lt;Group&gt;">
						<path id="&lt;Path&gt;" class="s8" d="m293.9 716.4c4.4-4.2 6.3-11.1 6.1-17.6-0.2-6.6-2.2-12.8-4.1-19-4.3 5.9-7.9 12.6-10.5 19.8-0.9 2.7-1.8 5.6-1.9 8.5 0 3 0.8 6.1 2.8 8.1 1.9 1.9 5.1 2.5 7.2 0.7q-0.4 0.2-0.8 0.5z"/>
					</g>
					<g id="&lt;Group&gt;" style="opacity: .2">
						<path id="&lt;Path&gt;" class="s15" d="m293.9 716.4c4.4-4.2 6.3-11.1 6.1-17.6-0.2-6.6-2.2-12.8-4.1-19-4.3 5.9-7.9 12.6-10.5 19.8-0.9 2.7-1.8 5.6-1.9 8.5 0 3 0.8 6.1 2.8 8.1 1.9 1.9 5.1 2.5 7.2 0.7q-0.4 0.2-0.8 0.5z"/>
					</g>
					<g id="&lt;Group&gt;">
						<g id="&lt;Group&gt;">
							<path id="&lt;Path&gt;" class="s8" d="m304 690.8c1.1 8 2.2 16.3 0.9 24.3-1.4 8-5.7 15.9-12.4 18.7-2.8 1.2-6.5 1.2-8.3-1.5-1.3-1.7-1.4-4.3-0.9-6.5 0.6-2.2 1.8-4.1 2.9-6 5.4-8.7 16.6-29.9 17.8-29z"/>
						</g>
						<g id="&lt;Group&gt;">
							<path id="&lt;Path&gt;" class="s8" d="m304 690.8c1.1 8 2.2 16.3 0.9 24.3-1.4 8-5.7 15.9-12.4 18.7-2.8 1.2-6.5 1.2-8.3-1.5-1.3-1.7-1.4-4.3-0.9-6.5 0.6-2.2 1.8-4.1 2.9-6 5.4-8.7 16.6-29.9 17.8-29z"/>
						</g>
						<g id="&lt;Group&gt;" style="opacity: .1">
							<path id="&lt;Path&gt;" class="s15" d="m304 690.8c1.1 8 2.2 16.3 0.9 24.3-1.4 8-5.7 15.9-12.4 18.7-2.8 1.2-6.5 1.2-8.3-1.5-1.3-1.7-1.4-4.3-0.9-6.5 0.6-2.2 1.8-4.1 2.9-6 5.4-8.7 16.6-29.9 17.8-29z"/>
						</g>
					</g>
					<path id="&lt;Path&gt;" class="s8" d="m283.2 701.7c2.6 4.7 4.8 9.9 5.7 15.5 1 5.5 0.5 11.5-2 16.3-2.5 4.9-7.1 8.5-12.1 8.6-3.9 0-7.6-2.3-9.7-6-2.3-4-0.6-7.7 1.1-11.6 4-9 10.6-16.1 17-22.8z"/>
					<g id="&lt;Group&gt;">
						<path id="&lt;Path&gt;" class="s8" d="m332.7 716.6c1.4 2.2 1.3 5.3 0.4 7.8-0.9 2.5-2.6 4.6-4.4 6.4-11.8 12.8-28.7 19.2-45 17.3-1.3-0.2-2.8-0.6-3.5-1.9-0.8-1.4-0.1-3.4 1.1-4.5 1.2-1 2.7-1.3 4.2-1.7 8.3-2 16.2-5.7 23.5-10.7 7.3-5.1 15.9-8.5 23.7-12.7z"/>
						<path id="&lt;Path&gt;" class="s14" d="m332.7 716.6c1.4 2.2 1.3 5.3 0.4 7.8-0.9 2.5-2.6 4.6-4.4 6.4-11.8 12.8-28.7 19.2-45 17.3-1.3-0.2-2.8-0.6-3.5-1.9-0.8-1.4-0.1-3.4 1.1-4.5 1.2-1 2.7-1.3 4.2-1.7 8.3-2 16.2-5.7 23.5-10.7 7.3-5.1 15.9-8.5 23.7-12.7z"/>
					</g>
					<path id="&lt;Path&gt;" class="s8" d="m304 716.5c1.2-1.7 2.7-3.8 4.7-3.6 1.5 0.2 2.6 1.7 3.3 3.3 2.5 6.5-0.5 14.4-5.5 18.8-4.9 4.3-11.2 6-17.3 7.5q-3.1 0.8-6.3 1.6c-2.4 0.6-7.4-0.2-5.2-4.2 1.5-2.6 6.5-4.1 8.8-5.7 6.7-4.5 12.7-10.6 17.5-17.7z"/>
					<path id="&lt;Path&gt;" class="s8" d="m329.8 742c-7.8 5.3-16.9 8.1-26 7.9-1.1 0-2.3-0.1-3.2-0.6-1-0.5-1.8-1.7-1.8-2.9 0.1-1.5 1.3-2.5 2.3-3.2 5.9-4.4 12.3-7.9 18.9-10.3q5.1-1.9 10.3-3c2.8-0.6 5.8-1.9 8.7-1.9 0.5 6.1-5.1 11.3-9.2 14z"/>
					<g id="&lt;Group&gt;">
						<path id="&lt;Path&gt;" class="s8" d="m304.6 766.2c7.7-0.6 15-4.1 21.4-9.1 1.2-0.9 2.5-2.4 2-4-0.4-1.1-1.5-1.5-2.5-1.9-7.3-2.4-14.7-4.9-22.3-4.5-3.6 0.1-7.2 1-10.4 2.6-2.6 1.3-7.9 4.5-8.6 8-0.8 3.5 5.8 6.1 8.3 7.1 3.8 1.5 8 2.1 12.1 1.8z"/>
						<path id="&lt;Path&gt;" class="s14" d="m304.6 766.2c7.7-0.6 15-4.1 21.4-9.1 1.2-0.9 2.5-2.4 2-4-0.4-1.1-1.5-1.5-2.5-1.9-7.3-2.4-14.7-4.9-22.3-4.5-3.6 0.1-7.2 1-10.4 2.6-2.6 1.3-7.9 4.5-8.6 8-0.8 3.5 5.8 6.1 8.3 7.1 3.8 1.5 8 2.1 12.1 1.8z"/>
					</g>
					<g id="&lt;Group&gt;">
						<path id="&lt;Path&gt;" class="s8" d="m274.2 747.1c7.5-1.7 15.2-2.1 22.8-1.2 1.9 0.2 3.8 0.5 5.5 1.6 1.6 1 3 2.9 3.1 5 0 2.2-1.2 4.2-2.8 5.4-1.6 1.2-3.5 1.7-5.4 2.2-5.5 1.4-11.1 2.8-16.7 2-4.1-0.5-8.9-2.5-11.6-6.3-3.4-5 1.1-7.7 5.1-8.7z"/>
						<path id="&lt;Path&gt;" class="s12" d="m274.2 747.1c7.5-1.7 15.2-2.1 22.8-1.2 1.9 0.2 3.8 0.5 5.5 1.6 1.6 1 3 2.9 3.1 5 0 2.2-1.2 4.2-2.8 5.4-1.6 1.2-3.5 1.7-5.4 2.2-5.5 1.4-11.1 2.8-16.7 2-4.1-0.5-8.9-2.5-11.6-6.3-3.4-5 1.1-7.7 5.1-8.7z"/>
					</g>
					<g id="&lt;Group&gt;">
						<g id="&lt;Group&gt;">
							<path id="&lt;Path&gt;" class="s8" d="m251.4 747.1c-1.4-1.1-2.9-2.4-3.7-4.1-0.8-1.8-0.9-4.1 0.3-5.6 1.8-2 11.4-4.9 13.8-5.5 2.1-0.4 4.1 0.4 6 1.3q4.2 1.9 8.2 4.1c1.4 0.8 2.7 1.6 3.7 2.8 1.1 1.2 1.7 3 1.3 4.6-0.5 2.3-2.7 3.5-4.7 4.2-5.2 1.9-10.6 2.7-16 2.5 0.4 0-6.5-2.5-8.9-4.3z"/>
						</g>
						<g id="&lt;Group&gt;" style="opacity: .1">
							<path id="&lt;Path&gt;" class="s15" d="m251.4 747.1c-1.4-1.1-2.9-2.4-3.7-4.1-0.8-1.8-0.9-4.1 0.3-5.6 1.8-2 11.4-4.9 13.8-5.5 2.1-0.4 4.1 0.4 6 1.3q4.2 1.9 8.2 4.1c1.4 0.8 2.7 1.6 3.7 2.8 1.1 1.2 1.7 3 1.3 4.6-0.5 2.3-2.7 3.5-4.7 4.2-5.2 1.9-10.6 2.7-16 2.5 0.4 0-6.5-2.5-8.9-4.3z"/>
						</g>
					</g>
					<path id="&lt;Path&gt;" class="s8" d="m271 750.9c2.4 0.7 4.6 2.3 5.8 4.8 1.1 2.5 0.7 5.9-1.2 7.6-1.4 1.3-3.2 1.5-5 1.7q-3.3 0.3-6.6 0.7c-1.4 0.1-2.9 0.2-4.1-0.7-1.5-1.3-1.6-3.7-1.6-5.9 0-2 0-4.1 0.7-6 0.9-2.4 2.6-3.6 4.8-3.3 2.4 0.4 4.9 0.4 7.2 1.1z"/>
					<g id="&lt;Group&gt;">
						<path id="&lt;Path&gt;" class="s8" d="m218.7 706.9c-3.9-5-9.5-8.2-15.4-8.8-0.3-0.1-0.7-0.1-1 0.1-0.3 0.3-0.4 0.9-0.4 1.4-0.2 7.9 2.2 15.8 6.6 21.9 2 2.8 4.5 5.3 7.6 6.4 2.2 0.8 4.8 0.8 6.9-0.4 2.1-1.2 1.7-2.9 1.5-5.3-0.5-5.6-2.5-11-5.8-15.3z"/>
						<path id="&lt;Path&gt;" class="s13" d="m218.7 706.9c-3.9-5-9.5-8.2-15.4-8.8-0.3-0.1-0.7-0.1-1 0.1-0.3 0.3-0.4 0.9-0.4 1.4-0.2 7.9 2.2 15.8 6.6 21.9 2 2.8 4.5 5.3 7.6 6.4 2.2 0.8 4.8 0.8 6.9-0.4 2.1-1.2 1.7-2.9 1.5-5.3-0.5-5.6-2.5-11-5.8-15.3z"/>
					</g>
					<g id="&lt;Group&gt;">
						<path id="&lt;Path&gt;" class="s8" d="m256.4 710.5c-2.9-5.2-5-11.8-5.1-18.8-0.1-5.9 1.3-11.7 3.2-16.7 1.9-4.9 4.4-9.2 6.9-13.5 0.8 12.8 1.1 25.7 0.7 38.6-0.1 2.7-0.2 5.5-1 7.9-0.7 2.4-2.4 4.3-4 3.7z"/>
					</g>
					<g id="&lt;Group&gt;">
						<path id="&lt;Path&gt;" class="s8" d="m245.2 671.4c5.5 8.1 8.9 19.8 9.4 31.8 0.1 4.3-0.1 8.7-1.4 12.5-1.2 3.7-3.7 6.5-6.3 6.2-2.7-0.4-4.7-4.1-6.2-7.8-2.6-6.1-5.6-14.8-4.2-22.4 1.5-8.1 4.6-15.3 8.7-20.3z"/>
						<path id="&lt;Path&gt;" class="s14" d="m245.2 671.4c5.5 8.1 8.9 19.8 9.4 31.8 0.1 4.3-0.1 8.7-1.4 12.5-1.2 3.7-3.7 6.5-6.3 6.2-2.7-0.4-4.7-4.1-6.2-7.8-2.6-6.1-5.6-14.8-4.2-22.4 1.5-8.1 4.6-15.3 8.7-20.3z"/>
					</g>
					<g id="&lt;Group&gt;">
						<path id="&lt;Path&gt;" class="s8" d="m228.7 716.4c-4.5-4.2-6.3-11.1-6.1-17.6 0.2-6.6 2.2-12.8 4.1-19 4.3 5.9 7.9 12.6 10.4 19.8 1 2.7 1.9 5.6 1.9 8.5 0.1 3-0.7 6.1-2.7 8.1-1.9 1.9-5.1 2.5-7.2 0.7q0.4 0.2 0.8 0.5z"/>
					</g>
					<g id="&lt;Group&gt;" style="opacity: .2">
						<path id="&lt;Path&gt;" class="s15" d="m228.7 716.4c-4.5-4.2-6.3-11.1-6.1-17.6 0.2-6.6 2.2-12.8 4.1-19 4.3 5.9 7.9 12.6 10.4 19.8 1 2.7 1.9 5.6 1.9 8.5 0.1 3-0.7 6.1-2.7 8.1-1.9 1.9-5.1 2.5-7.2 0.7q0.4 0.2 0.8 0.5z"/>
					</g>
					<g id="&lt;Group&gt;">
						<g id="&lt;Group&gt;">
							<path id="&lt;Path&gt;" class="s8" d="m218.6 690.8c-1.2 8-2.3 16.3-0.9 24.3 1.4 8 5.7 15.9 12.4 18.7 2.8 1.2 6.4 1.2 8.3-1.5 1.3-1.7 1.4-4.3 0.8-6.5-0.5-2.2-1.7-4.1-2.8-6-5.4-8.7-16.6-29.9-17.8-29z"/>
						</g>
						<g id="&lt;Group&gt;">
							<path id="&lt;Path&gt;" class="s8" d="m218.6 690.8c-1.2 8-2.3 16.3-0.9 24.3 1.4 8 5.7 15.9 12.4 18.7 2.8 1.2 6.4 1.2 8.3-1.5 1.3-1.7 1.4-4.3 0.8-6.5-0.5-2.2-1.7-4.1-2.8-6-5.4-8.7-16.6-29.9-17.8-29z"/>
						</g>
						<g id="&lt;Group&gt;" style="opacity: .1">
							<path id="&lt;Path&gt;" class="s15" d="m218.6 690.8c-1.2 8-2.3 16.3-0.9 24.3 1.4 8 5.7 15.9 12.4 18.7 2.8 1.2 6.4 1.2 8.3-1.5 1.3-1.7 1.4-4.3 0.8-6.5-0.5-2.2-1.7-4.1-2.8-6-5.4-8.7-16.6-29.9-17.8-29z"/>
						</g>
					</g>
					<path id="&lt;Path&gt;" class="s8" d="m239.4 701.7c-2.6 4.7-4.9 9.9-5.8 15.5-0.9 5.5-0.4 11.5 2.1 16.3 2.5 4.9 7.1 8.5 12.1 8.6 3.8 0 7.6-2.3 9.7-6 2.3-4 0.6-7.7-1.2-11.6-3.9-9-10.5-16.1-16.9-22.8z"/>
					<g id="&lt;Group&gt;">
						<path id="&lt;Path&gt;" class="s8" d="m189.9 717.2c-1.4 2.2-1.3 5.2-0.4 7.7 0.9 2.4 2.5 4.5 4.2 6.3 11.7 12.5 28.2 18.8 44.2 16.9 1.3-0.2 2.8-0.5 3.5-1.8 0.7-1.5 0-3.4-1.1-4.4-1.2-1.1-2.7-1.4-4.1-1.7-8.2-2-16-5.6-23.1-10.5-7.1-5-15.6-8.4-23.2-12.5z"/>
						<path id="&lt;Path&gt;" class="s14" d="m189.9 717.2c-1.4 2.2-1.3 5.2-0.4 7.7 0.9 2.4 2.5 4.5 4.2 6.3 11.7 12.5 28.2 18.8 44.2 16.9 1.3-0.2 2.8-0.5 3.5-1.8 0.7-1.5 0-3.4-1.1-4.4-1.2-1.1-2.7-1.4-4.1-1.7-8.2-2-16-5.6-23.1-10.5-7.1-5-15.6-8.4-23.2-12.5z"/>
					</g>
					<path id="&lt;Path&gt;" class="s8" d="m217.2 716c-1.1-1.8-2.6-3.8-4.6-3.6-1.5 0.2-2.6 1.7-3.2 3.3-2.5 6.3 0.5 14.1 5.3 18.4 4.9 4.2 11.1 5.9 17 7.4q3.1 0.8 6.2 1.5c2.4 0.7 7.3-0.2 5.2-4-1.5-2.6-6.4-4.1-8.7-5.6-6.6-4.5-12.5-10.4-17.2-17.4z"/>
					<g id="&lt;Group&gt;">
						<path id="&lt;Path&gt;" class="s8" d="m218 766.2c-7.7-0.6-15.1-4.1-21.4-9.1-1.2-0.9-2.5-2.4-2-4 0.4-1.1 1.5-1.5 2.5-1.9 7.3-2.4 14.7-4.9 22.3-4.5 3.6 0.1 7.2 1 10.4 2.6 2.6 1.3 7.9 4.5 8.6 8 0.8 3.5-5.8 6.1-8.3 7.1-3.9 1.5-8 2.1-12.1 1.8z"/>
						<path id="&lt;Path&gt;" class="s14" d="m218 766.2c-7.7-0.6-15.1-4.1-21.4-9.1-1.2-0.9-2.5-2.4-2-4 0.4-1.1 1.5-1.5 2.5-1.9 7.3-2.4 14.7-4.9 22.3-4.5 3.6 0.1 7.2 1 10.4 2.6 2.6 1.3 7.9 4.5 8.6 8 0.8 3.5-5.8 6.1-8.3 7.1-3.9 1.5-8 2.1-12.1 1.8z"/>
					</g>
					<g id="&lt;Group&gt;">
						<path id="&lt;Path&gt;" class="s8" d="m248.4 747.1c-7.5-1.7-15.2-2.1-22.8-1.2-1.9 0.2-3.8 0.5-5.5 1.6-1.7 1-3 2.9-3.1 5-0.1 2.2 1.2 4.2 2.8 5.4 1.6 1.2 3.5 1.7 5.4 2.2 5.5 1.4 11.1 2.8 16.7 2 4.1-0.5 8.9-2.5 11.6-6.3 3.4-5-1.1-7.7-5.1-8.7z"/>
						<path id="&lt;Path&gt;" class="s12" d="m248.4 747.1c-7.5-1.7-15.2-2.1-22.8-1.2-1.9 0.2-3.8 0.5-5.5 1.6-1.7 1-3 2.9-3.1 5-0.1 2.2 1.2 4.2 2.8 5.4 1.6 1.2 3.5 1.7 5.4 2.2 5.5 1.4 11.1 2.8 16.7 2 4.1-0.5 8.9-2.5 11.6-6.3 3.4-5-1.1-7.7-5.1-8.7z"/>
					</g>
					<g id="&lt;Group&gt;">
						<g id="&lt;Group&gt;">
							<path id="&lt;Path&gt;" class="s8" d="m271.2 747.1c1.4-1.1 2.9-2.4 3.7-4.1 0.8-1.8 0.9-4.1-0.4-5.6-1.7-2-11.3-4.9-13.8-5.5-2-0.4-4.1 0.4-6 1.3q-4.1 1.9-8.1 4.1c-1.4 0.8-2.7 1.6-3.8 2.8-1 1.2-1.6 3-1.3 4.6 0.6 2.3 2.8 3.5 4.8 4.2 5.1 1.9 10.6 2.7 16 2.5-0.4 0 6.5-2.5 8.9-4.3z"/>
						</g>
						<g id="&lt;Group&gt;" style="opacity: .1">
							<path id="&lt;Path&gt;" class="s15" d="m271.2 747.1c1.4-1.1 2.9-2.4 3.7-4.1 0.8-1.8 0.9-4.1-0.4-5.6-1.7-2-11.3-4.9-13.8-5.5-2-0.4-4.1 0.4-6 1.3q-4.1 1.9-8.1 4.1c-1.4 0.8-2.7 1.6-3.8 2.8-1 1.2-1.6 3-1.3 4.6 0.6 2.3 2.8 3.5 4.8 4.2 5.1 1.9 10.6 2.7 16 2.5-0.4 0 6.5-2.5 8.9-4.3z"/>
						</g>
					</g>
					<path id="&lt;Path&gt;" class="s8" d="m251.6 750.9c-2.4 0.7-4.7 2.3-5.8 4.8-1.1 2.5-0.8 5.9 1.1 7.6 1.4 1.3 3.3 1.5 5.1 1.7q3.3 0.3 6.6 0.7c1.4 0.1 2.9 0.2 4.1-0.7 1.5-1.3 1.6-3.7 1.6-5.9 0-2 0-4.1-0.7-6-0.9-2.4-2.6-3.6-4.8-3.3-2.4 0.4-4.9 0.4-7.2 1.1z"/>
					<g id="&lt;Group&gt;">
						<path id="&lt;Path&gt;" class="s8" d="m262.4 703.7c-0.4-0.3-0.8-0.6-1.1-0.7q0.2-0.1 0.4-0.1 0.1 0 0.2 0.1 0.1 0 0.2 0.2 0.1 0.1 0.2 0.2 0.1 0.1 0.1 0.2 0 0.1 0 0.1z"/>
						<path id="&lt;Path&gt;" class="s16" d="m262.5 703.7h-0.1c-0.4-0.3-0.8-0.6-1.1-0.7q0.2-0.1 0.4-0.1 0.1 0 0.2 0.1 0.1 0 0.2 0.2 0.1 0.1 0.2 0.2 0.1 0.1 0.1 0.2 0 0.1 0.1 0.1z"/>
						<g id="&lt;Group&gt;">
							<g id="&lt;Group&gt;">
								<path id="&lt;Path&gt;" class="s8" d="m270.7 726.1c-0.9 2.2-1.9 4.4-3.4 6-1.6 1.7-3.6 2.9-5.8 2.8q-0.1 0-0.2 0-0.1 0-0.3 0c-2.1 0.1-4.2-1.1-5.7-2.8-1.5-1.6-2.6-3.8-3.4-6-1.1-2.9-1.8-6.1-1.4-9.3 0.5-3.4 2.3-6.5 4.6-8.9 0.6 0 2.6-2.2 3.2-2.7q0.1 0 0.1-0.1 0.1-0.1 0.2-0.2c0.4-0.3 1-0.8 1.5-1.2q0.4-0.3 0.8-0.5 0.1-0.1 0.2-0.1 0.1-0.1 0.2-0.1c0.3 0.1 0.7 0.4 1.1 0.7h0.1c0.7 0.6 1.4 1.2 1.8 1.5 0.6 0.5 2.5 2.7 3.2 2.7 2.3 2.4 4.1 5.5 4.6 8.9 0.4 3.2-0.3 6.4-1.4 9.3z"/>
								<path id="&lt;Path&gt;" class="s8" d="m261.3 703q-0.1 0-0.2 0.1-0.1 0-0.2 0.1-0.4 0.2-0.8 0.5c0.2-0.5 0.5-0.7 0.8-0.8q0.2 0 0.4 0.1z"/>
							</g>
							<g id="&lt;Group&gt;" style="opacity: .2">
								<path id="&lt;Path&gt;" class="s11" d="m270.7 726.1c-0.9 2.2-1.9 4.4-3.4 6-1.6 1.7-3.6 2.9-5.8 2.8q-0.1 0-0.2 0-0.1 0-0.3 0c-2.1 0.1-4.2-1.1-5.7-2.8-1.5-1.6-2.6-3.8-3.4-6-1.1-2.9-1.8-6.1-1.4-9.3 0.5-3.4 2.3-6.5 4.6-8.9 0.6 0 2.6-2.2 3.2-2.7 0.4-0.3 1.1-1 1.8-1.5 0.5-0.3 0.9-0.6 1.2-0.7 0.3 0.1 0.8 0.4 1.2 0.7 0.7 0.6 1.4 1.2 1.8 1.5 0.6 0.5 2.5 2.7 3.2 2.7 2.3 2.4 4.1 5.5 4.6 8.9 0.4 3.2-0.3 6.4-1.4 9.3z"/>
								<path id="&lt;Path&gt;" class="s11" d="m261.3 703c-0.3 0.1-0.7 0.4-1.2 0.7 0.2-0.5 0.5-0.7 0.8-0.8q0.2 0 0.4 0.1z"/>
							</g>
						</g>
					</g>
					<path id="&lt;Path&gt;" class="s12" d="m262.5 703.7c-0.4-0.3-0.9-0.6-1.2-0.7q0.2-0.1 0.4-0.1c0.3 0.1 0.6 0.3 0.8 0.8z"/>
				</g>
			</g>
		</g>
	</g>
	<g id="Character">
		<g id="&lt;Group&gt;">
			<g id="&lt;Group&gt;">
				<g id="&lt;Group&gt;">
					<g id="&lt;Group&gt;">
						<path id="&lt;Path&gt;" class="s8" d="m641.2 523.4h54.8c1.8 0 2.6-1.5 1.8-3.3l-13.7-30.9c-0.8-1.8-2.9-3.2-4.7-3.2h-54.8c-1.8 0-2.6 1.4-1.8 3.2l13.7 30.9c0.8 1.8 2.9 3.3 4.7 3.3z"/>
						<path id="&lt;Path&gt;" class="s13" d="m641.2 523.4h54.8c1.8 0 2.6-1.5 1.8-3.3l-13.7-30.9c-0.8-1.8-2.9-3.2-4.7-3.2h-54.8c-1.8 0-2.6 1.4-1.8 3.2l13.7 30.9c0.8 1.8 2.9 3.3 4.7 3.3z"/>
						<path id="&lt;Path&gt;" class="s8" d="m622.2 486h2.4c-1.8 0-2.6 1.4-1.8 3.2l13.7 30.9c0.8 1.8 2.9 3.3 4.7 3.3h-2.4c-1.8 0-3.8-1.5-4.6-3.3l-13.8-30.9c-0.8-1.8 0-3.2 1.8-3.2z"/>
						<path id="&lt;Path&gt;" class="s17" d="m622.2 486h2.4c-1.8 0-2.6 1.4-1.8 3.2l13.7 30.9c0.8 1.8 2.9 3.3 4.7 3.3h-2.4c-1.8 0-3.8-1.5-4.6-3.3l-13.8-30.9c-0.8-1.8 0-3.2 1.8-3.2z"/>
					</g>
					<g id="&lt;Group&gt;">
						<path id="&lt;Path&gt;" class="s6" d="m642.2 519.8h49.6l-13.4-30.3h-49.7z"/>
						<path id="&lt;Path&gt;" class="s18" d="m642.2 519.8h49.6l-13.4-30.3h-49.7z"/>
					</g>
				</g>
				<g id="&lt;Group&gt;">
					<g id="&lt;Group&gt;">
						<path id="&lt;Path&gt;" class="s19" d="m619.7 778.8l-3.4 15.8-17.1-2.2 2.5-17.6z"/>
						<g id="&lt;Group&gt;">
							<path id="&lt;Compound Path&gt;" fill-rule="evenodd" class="s8" d="m590.4 792.4c-2.2-0.3-4.5-0.9-5.1-1.9-0.4-0.6-0.3-1.4 0.2-1.9 0.3-0.5 0.8-0.8 1.4-0.9 3.1-0.5 9 3.7 9.3 3.9 0.1 0.1 0.2 0.3 0.2 0.5-0.1 0.1-0.2 0.3-0.4 0.3q-2.8 0.2-5.6 0zm-2.5-3.8q-0.4-0.1-0.8 0c-0.4 0-0.7 0.2-0.9 0.5-0.4 0.5-0.3 0.8-0.2 0.9 0.7 1.3 5.3 1.8 8.7 1.7-2.1-1.5-4.4-2.5-6.8-3.1z"/>
							<path id="&lt;Compound Path&gt;" fill-rule="evenodd" class="s8" d="m595.9 792.4q-0.1 0-0.2-0.1c-2-1.1-6-5.5-5.4-7.4 0.1-0.5 0.5-1.1 1.7-1.1 0.9 0 1.7 0.3 2.3 1 2.1 2.1 2.1 7 2.1 7.2 0 0.2 0 0.3-0.2 0.4q-0.1 0-0.3 0zm-3.7-7.8h-0.2c-0.8 0-0.9 0.3-0.9 0.4-0.2 1.2 2.3 4.5 4.4 6.1 0-2.1-0.7-4.1-1.8-5.8-0.4-0.4-0.9-0.6-1.5-0.7z"/>
							<path id="&lt;Path&gt;" class="s6" d="m598.1 790l19.7 2c0.7 0.1 1.3 0.6 1.4 1.4l2 16.3c0.2 1.5-0.9 2.8-2.3 3q-0.3 0-0.6 0c-7.1-0.8-13.3-1.8-22.2-2.7-10.4-1-7.9 0.5-20.1-0.5-7.4-0.6-8-9.2-4.8-9.3 14.5-0.4 16.4-4.6 22.5-9.1 1.3-0.9 2.8-1.3 4.4-1.1z"/>
						</g>
						<path id="&lt;Path&gt;" class="s13" d="m600.3 784l18 1.4 1.4-6.6-18-4z"/>
						<path id="&lt;Path&gt;" class="s6" d="m614.9 647.9l-17 124.6 26.4 2 30.7-123.5z"/>
						<path id="&lt;Path&gt;" class="s20" d="m614.9 647.9l-17 124.6 26.4 2 30.7-123.5z"/>
						<path id="&lt;Path&gt;" class="s8" d="m626.7 772.7l-31.7-2.5c0 0-2.8 4.1 0.2 7.8l30.7 2.8c0 0 3-1.8 0.8-8.1z"/>
					</g>
					<g id="&lt;Group&gt;">
						<path id="&lt;Path&gt;" class="s19" d="m645.2 524.7l-6.4-15.6c-0.6-0.8-1.4-1.5-2.4-1.8l-3.2-1.2q-1.1-0.4-1.8-1.2l-1.5-1.7c-1.4-1.4-3.5-1.9-5.3-1.1l-1.4 0.6c-1.4 0.7-2.5 1.9-2.8 3.4-0.8 4.6-1.5 14.7 6.9 21.5l9.3 3.8z"/>
						<path id="&lt;Path&gt;" class="s19" d="m636.6 531.4l12.3 18.6 8.7-9.2-12.4-16.1z"/>
					</g>
					<g id="&lt;Group&gt;">
						<g id="&lt;Group&gt;">
							<g id="&lt;Group&gt;">
								<g id="&lt;Group&gt;">
									<path id="&lt;Path&gt;" class="s6" d="m711.4 487.2c-0.7-1.3-10.6 2.4-22.2 8.2-11.6 5.9-20.6 11.6-19.9 12.9 0.6 1.3 10.6-2.4 22.2-8.3 11.6-5.8 20.5-11.6 19.9-12.8z"/>
									<g id="&lt;Group&gt;">
										<path id="&lt;Path&gt;" class="s8" d="m696.5 491.9q1.6-0.7 3.2-1.4l2 4q-1.5 0.9-3 1.7z"/>
										<path id="&lt;Path&gt;" class="s21" d="m696.5 491.9q1.6-0.7 3.2-1.4l2 4q-1.5 0.9-3 1.7z"/>
									</g>
								</g>
								<g id="&lt;Group&gt;">
									<g id="&lt;Group&gt;">
										<path id="&lt;Path&gt;" class="s8" d="m707.8 486.8c0.6-2.7-9.9 2-10.5 2.3-0.8 0.4-1.3-0.8-0.5-1.2 0.7-0.3 13.4-6.4 12.3-1-0.2 0.8-1.5 0.7-1.3-0.1z"/>
									</g>
									<g id="&lt;Group&gt;" style="opacity: .2">
										<path id="&lt;Path&gt;" class="s15" d="m707.8 486.8c0.6-2.7-9.9 2-10.5 2.3-0.8 0.4-1.3-0.8-0.5-1.2 0.7-0.3 13.4-6.4 12.3-1-0.2 0.8-1.5 0.7-1.3-0.1z"/>
									</g>
								</g>
							</g>
							<path id="&lt;Path&gt;" class="s19" d="m708.4 529.1l-10.3-17.4c0 0 0.5-7.7-4.9-16.9-0.3-0.6-3.8-3.4-3.8-3.4-4 2-6.8 4-8 4.9-3.7 2.9-4.7 5-0.2 11.9 3.8 5.8 8.3 9 8.3 9l9.7 19.7z"/>
							<path id="&lt;Path&gt;" class="s8" d="m710.7 527l-4.5-7.1c0 0-8.2 1.2-13.5 10.5l3.7 8.1z"/>
							<path id="&lt;Path&gt;" class="s6" d="m762.1 488.1c-7.8 0.5-14.5-0.8-27.8 40.9-2.4 7.7-8.8 15.4-8.8 15.4l-14.5-19.9c0 0-9.6 0.6-16.2 12.3 0 0 11.3 37.6 32.4 34.9 21-2.7 32.8-26.9 37.4-41.4 4.7-14.4 14.6-43.4-2.5-42.2z"/>
						</g>
						<g id="&lt;Group&gt;">
							<path id="&lt;Path&gt;" class="s19" d="m724.5 469.1l-1.5 12.9 21.7 0.1 0.5-16.3z"/>
							<path id="&lt;Path&gt;" class="s13" d="m724 475.3c5.4-1.4 9.1-7.9 9.1-7.9l-4.6 0.9-4 0.8z"/>
							<path id="&lt;Path&gt;" class="s6" d="m718.6 432.9c-0.4 1-0.2 2 0.4 2.3 0.7 0.3 1.7-0.4 2.1-1.4 0.3-1 0.2-2.1-0.5-2.3-0.7-0.3-1.6 0.3-2 1.4z"/>
							<path id="&lt;Path&gt;" class="s22" d="m721.2 435.6l-8.3 6c0 0 2 3 6.3 3.1z"/>
							<path id="&lt;Path&gt;" class="s6" d="m722.5 426.7c0.2 0 0.4 0.1 0.5 0.3 0.6 1.3 1.9 2.2 3.3 2.4 0.4 0.1 0.6 0.3 0.6 0.6-0.1 0.4-0.4 0.6-0.7 0.6-1.8-0.3-3.4-1.4-4.2-3.1-0.2-0.3-0.1-0.6 0.2-0.8q0.2 0 0.3 0z"/>
							<path id="&lt;Path&gt;" class="s19" d="m760 444.7c-4.9 13.8-6.6 19.8-16 25.1-13.2 4.3-30.3-1-29.8-15.9 0.5-13.5 8.3-33.8 24-35.7 11.3-1.3 21.5 6.5 22.8 17.4 0.4 3.1 0 6.2-1 9.1z"/>
							<path id="&lt;Path&gt;" class="s6" d="m766.8 456c-3.5 3-6.8 6.2-10 9.6-2 2.1-4.3 3.8-6.8 5-5.1 2.4-11.2 2.3-16.6 0.7 0 0-0.5 0.8 0 0 0 0-14.4-12.8-4.8-36.4-3.6-2.7-5.9-7.2-5.8-11.7 0.2-4.5 2.6-8.9 6.5-11.3 4.5-2.9 11.5-1 15.7 2.3 5.7-1.3 11.7 0.8 15.9 4.7 4.3 4 7 9.4 8.9 14.8 1.6 4.7 2.8 9.8 1.8 14.6-0.6 2.9-2.4 5.8-4.8 7.7z"/>
							<path id="&lt;Path&gt;" class="s19" d="m730 439.9c-2.7 1.3-4.8 3.7-5.8 6.5-1.3 3.7 2.1 5.8 5.8 5 3.4-0.8 8.1-3.7 7.8-7.5-0.4-3.9-4.4-5.5-7.8-4z"/>
							<g id="&lt;Group&gt;">
								<path id="&lt;Path&gt;" class="s8" d="m749.5 473.5c-4.8-2.1-13.5-2.3-26-0.3-1.4 0.2-2.5 1.5-3 2.9-0.5 1.3 0.2 3.1 1.6 3.3-0.1 1.8-0.6 3.8-0.7 5.6 3.6-0.3 7.4 0.5 11 0.6 5.6 0.3 11.2 1.3 16.8 2.3-0.3-2.7-1.1-5.5-0.5-8.1 1.3 0.3 2.6-1 2.9-2.3 0.3-1.2-0.9-3.5-2.1-4z"/>
								<path id="&lt;Path&gt;" class="s8" d="m749.5 473.5c-4.8-2.1-13.5-2.3-26-0.3-1.4 0.2-2.5 1.5-3 2.9-0.5 1.3 0.2 3.1 1.6 3.3-0.1 1.8-0.6 3.8-0.7 5.6 3.6-0.3 7.4 0.5 11 0.6 5.6 0.3 11.2 1.3 16.8 2.3-0.3-2.7-1.1-5.5-0.5-8.1 1.3 0.3 2.6-1 2.9-2.3 0.3-1.2-0.9-3.5-2.1-4z"/>
							</g>
						</g>
						<path id="&lt;Path&gt;" class="s8" d="m690.3 610.7c0 0-4.4-59.4-4.1-102.2 0.2-31.7 22.8-26 52-25.8 23.2 0.1 31.1 2.1 34.2 14.7 3.2 12.6-12.4 113.7-12.4 113.7z"/>
						<path id="&lt;Path&gt;" class="s10" d="m690.3 610.7c0 0-4.4-59.4-4.1-102.2 0.2-31.7 22.8-26 52-25.8 23.2 0.1 31.1 2.1 34.2 14.7 3.2 12.6-12.4 113.7-12.4 113.7z"/>
						<path id="&lt;Path&gt;" class="s8" d="m647.5 526.9c-1.6 0-3.6 0.5-5.3 2-1.7 1.4-4.5 4.1-5.5 7.4-2-3.2-4.6-6-7.8-8l-0.2-0.1c1.1-14.1 12.6-13 12.6-13l0.3 0.7c1.6 3.9 3.6 7.5 5.9 11z"/>
						<path id="&lt;Path&gt;" class="s13" d="m647.5 526.9c-1.6 0-3.6 0.5-5.3 2-1.7 1.4-4.5 4.1-5.5 7.4-2-3.2-4.6-6-7.8-8l-0.2-0.1c1.1-14.1 12.6-13 12.6-13l0.3 0.7c1.6 3.9 3.6 7.5 5.9 11z"/>
						<g id="&lt;Group&gt;">
							<g id="&lt;Group&gt;">
								<path id="&lt;Path&gt;" class="s8" d="m678.2 576.8c-21.3-0.5-41.6-35.6-41.6-35.6-0.5-1.7-0.4-3.4 0.1-4.9 1-3.3 3.8-6 5.5-7.4 1.7-1.5 3.7-2 5.3-2 2.2-0.2 3.9 0.5 3.9 0.5 0 0 15.7 19.3 19.5 17.6 3.8-1.7 5.3-8.2 6.7-16.2 7.4-42.8 15.6-44.1 22.8-44.3 14.9-0.4-3.4 92.7-22.2 92.3z"/>
							</g>
						</g>
						<g id="&lt;Group&gt;" style="opacity: .1">
							<g id="&lt;Group&gt;">
								<path id="&lt;Path&gt;" class="s11" d="m678.2 576.8c-21.3-0.5-41.6-35.6-41.6-35.6-0.5-1.7-0.4-3.4 0.1-4.9 1-3.3 3.8-6 5.5-7.4 1.7-1.5 3.7-2 5.3-2 2.2-0.2 3.9 0.5 3.9 0.5 0 0 15.7 19.3 19.5 17.6 3.8-1.7 5.3-8.2 6.7-16.2 7.4-42.8 15.6-44.1 22.8-44.3 14.9-0.4-3.4 92.7-22.2 92.3z"/>
							</g>
						</g>
					</g>
					<g id="&lt;Group&gt;">
						<path id="&lt;Path&gt;" class="s6" d="m760 611.1c0 0 1.8 18.1 1.6 24.4-1.4 33.8-33.3 45.7-58.8 41l-90.5-9.8c-3.7 12.2-46.4 79.8-46.4 79.8l-22.4-12.9c0 0 23.3-55.8 38.3-94.5 8.5-22.2 76.5-22.8 102.2-18.3 7.8 2.1 6.3-10.1 6.3-10.1z"/>
						<path id="&lt;Path&gt;" class="s19" d="m560.2 747.7l-8.5 14.3-16-8 8.3-16.2z"/>
						<g id="&lt;Group&gt;">
							<path id="&lt;Compound Path&gt;" fill-rule="evenodd" class="s8" d="m527.2 751.1c-2.1-1-4.1-2.3-4.4-3.6-0.1-0.7 0.2-1.4 0.8-1.7 0.5-0.3 1.1-0.5 1.7-0.4 3.2 0.6 7.6 6.6 7.8 6.9 0.1 0.2 0.1 0.4 0 0.5-0.1 0.2-0.3 0.2-0.5 0.2q-2.8-0.7-5.4-1.9zm-1.2-4.5q-0.4-0.2-0.8-0.3c-0.4-0.1-0.8 0-1.1 0.2-0.5 0.4-0.5 0.7-0.4 0.9 0.2 1.4 4.5 3.4 7.8 4.5-1.5-2.1-3.3-3.9-5.5-5.3z"/>
							<path id="&lt;Compound Path&gt;" fill-rule="evenodd" class="s8" d="m532.5 753q-0.1-0.1-0.1-0.1c-1.6-1.9-4-7.4-2.8-9.1 0.2-0.5 0.8-0.9 2-0.5 0.9 0.3 1.5 0.9 1.9 1.7 1.4 2.8-0.3 7.6-0.3 7.8-0.1 0.1-0.2 0.2-0.4 0.3q-0.1 0-0.3-0.1zm-1-8.8l-0.2-0.1c-0.7-0.3-0.9 0-1 0.1-0.6 1.1 0.7 5.2 2.3 7.4 0.6-2 0.7-4.2 0.1-6.3-0.3-0.5-0.7-0.9-1.2-1.1z"/>
							<path id="&lt;Path&gt;" class="s6" d="m535.4 751.4l18.5 8.5c0.7 0.3 1.1 1.1 0.9 1.8l-3.5 16.6c-0.3 1.5-1.8 2.4-3.2 2.1q-0.3 0-0.6-0.2c-6.6-3.1-12.4-6.2-20.7-10-9.8-4.5-7.8-2.2-19.4-7.3-7-3.1-4.7-11.5-1.5-10.6 14.2 4.5 17.5 1.1 24.9-1.4 1.5-0.4 3.2-0.2 4.6 0.5z"/>
						</g>
						<path id="&lt;Path&gt;" class="s13" d="m555.9 755l4.3-7.3-16.2-9.9-4 7.8z"/>
						<path id="&lt;Path&gt;" class="s8" d="m569.5 747.6l-27.8-17.3c0 0-4.5 2.5-3.5 7.3l26.7 17c0 0 3.6-0.1 4.6-7z"/>
					</g>
				</g>
			</g>
			<g id="&lt;Group&gt;">
				<g id="&lt;Group&gt;">
					<path id="&lt;Path&gt;" class="s8" d="m726.7 681.7h46.1c17.8 0 32.6-13.6 34-31.4l6.5-82.8c1.1-13.4-9.5-24.9-23-24.9h-25.5c-29.7 0-55.9 19.5-64.4 48l-17.6 59.2c-3 9.9-12.1 16.7-22.5 16.7h-32.2c-8.4 0-15.2 6.8-15.2 15.2h86.6z"/>
				</g>
				<g id="&lt;Group&gt;">
					<g id="&lt;Group&gt;">
						<path id="&lt;Path&gt;" class="s8" d="m706 681.7c1.2 19.7 4.6 91.5-0.5 107.3-4.4 13.9-24.8 17.2-36.9 24.6-2 1.2-1.3 5.1 0.9 5.1h94c2.3 0 3-3.9 0.9-5.1-12-7.4-32.5-10.7-36.9-24.6-5.1-15.8-1.7-87.6-0.5-107.3z"/>
					</g>
					<path id="&lt;Path&gt;" class="s13" d="m706.8 696.6h19.4c0.3-6 0.6-11.2 0.8-14.9h-21c0.2 3.7 0.5 8.9 0.8 14.9z"/>
				</g>
				<g id="&lt;Group&gt;">
					<path id="&lt;Path&gt;" class="s7" d="m726.7 681.7h46.1c17.8 0 32.6-13.6 34-31.4l6.5-82.8c1.1-13.4-9.5-24.9-23-24.9h-25.5c-29.7 0-55.9 19.5-64.4 48l-17.6 59.2c-3 9.9-12.1 16.7-22.5 16.7h-32.2c-8.4 0-15.2 6.8-15.2 15.2h86.6z"/>
				</g>
			</g>
		</g>
	</g>
</svg>