<svg version="1.2" xmlns="http://www.w3.org/2000/svg" viewBox="0 0 1500 1000" width="1500" height="1000">
	<title>5096435-ai</title>
	<style>
		tspan { white-space:pre } 
		.s0 { fill: #d3e8e8 } 
		.s1 { fill: #ffffff } 
		.s2 { fill: #e1e8f0 } 
		.s3 { fill: #8fc6c6 } 
		.s4 { fill: none;stroke: #206bc7;stroke-width: 2.3 } 
		.s5 { fill: #206bc7 } 
		.s6 { fill: #ffb701 } 
		.s7 { fill: #206bc7;stroke: #206bc7;stroke-width: 4.9 } 
		.s8 { fill: #000400 } 
		.s9 { fill: #ffb4a5 } 
		.s10 { fill: #ff8164 } 
		.s11 { fill: #ff9e87 } 
		.s12 { fill: #000000 } 
		.s13 { fill: #2d2f3d } 
		.s14 { opacity: .2;mix-blend-mode: multiply;fill: #000000 } 
		.s15 { fill: #d18478 } 
		.s16 { opacity: .9;fill: #749e9d } 
		.s17 { fill: #749e9d } 
		.s18 { fill: none;stroke: #000400;stroke-width: 2.3 } 
		.s19 { mix-blend-mode: multiply;fill: #206bc7 } 
		.s20 { opacity: .5;fill: #e1e8f0 } 
		.s21 { fill: #ffe25e } 
		.s22 { opacity: .7;fill: #ffffff } 
		.t23 { font-size: 14px;fill: #ffffff;font-weight: 400;font-family: "Montserrat-Regular", "Montserrat" } 
		.s24 { opacity: .5;fill: #ffe25e } 
		.s25 { fill: none;stroke: #ffffff;stroke-width: 1 } 
		.s26 { mix-blend-mode: multiply;fill: #e1e8f0 } 
		.s27 { fill: none;stroke: #ffb701;stroke-linecap: round;stroke-width: 2.5 } 
	</style>
	<g id="OBJECTS">
		<g id="&lt;Group&gt;">
			<g id="&lt;Group&gt;">
				<path id="&lt;Path&gt;" class="s0" d="m343.6 743.8c-0.7-29.3-5.7-58.8-17.7-85.6-12.1-26.7-31.5-50.6-56.9-65.3-18.1-10.5-42.8-15.3-58.7-1.7-5.3 4.6-8.9 10.7-11.6 17.2-6.9 16.9-7.1 36.4-0.5 53.4 5.6 14.3 15.6 26.5 26.4 37.4 28.8 29.3 66.9 52.4 108 52.2"/>
			</g>
			<g id="&lt;Group&gt;">
				<path id="&lt;Path&gt;" class="s0" d="m338.3 802.7c-17.7-19.9-42.8-33-69.2-36.5-9.3-1.2-30-4.5-35.5 5.7-5.4 9.8 7.4 24.7 13.9 30.1 7.6 6.5 15.9 12.4 25.2 16 21.8 8.7 48.5 3.4 65.4-12.9"/>
			</g>
			<g id="&lt;Group&gt;">
				<path id="&lt;Path&gt;" class="s0" d="m1022.8 749c-14.6-41.8-20.3-88.2-7.2-130.6 13-42.4 47.2-79.8 90.7-88.7 6-1.2 12.2-1.9 18.1-0.3 5.9 1.6 11 5.4 15.4 9.7 20.9 20.4 26.6 52.9 20.3 81.4-6.2 28.5-22.9 53.7-41.7 76.1-20.6 24.6-46.7 47.9-78.7 51.4"/>
			</g>
			<g id="&lt;Group&gt;">
				<path id="&lt;Path&gt;" class="s0" d="m1043.3 796.7c6-9.5 15.9-15.6 25.8-21 19.9-10.9 41.1-20.1 63.5-23.3 12.2-1.7 27-0.3 33.2 10.4 5.1 8.8 1.7 20.3-4 28.8-9.3 13.9-24.6 23.7-41.2 26.3-10.5 1.6-21.2 0.5-31.8-0.9-14.6-2-29.5-4.8-42.2-12.2"/>
			</g>
			<g id="&lt;Group&gt;">
				<g id="&lt;Group&gt;">
					<g id="&lt;Group&gt;">
						<path id="&lt;Path&gt;" class="s1" d="m1096.4 580.8c-34.2 42.2-66 86.3-95.1 132.2q-12.2 19.4-23.8 39.1c-0.9 1.6 1.5 3 2.4 1.5 27.3-46.5 57.3-91.4 89.9-134.3q14-18.5 28.6-36.5c1.2-1.4-0.8-3.4-2-2z"/>
					</g>
				</g>
				<g id="&lt;Group&gt;">
					<g id="&lt;Group&gt;">
						<path id="&lt;Path&gt;" class="s1" d="m1131.1 786.4c-39.5 8.1-79.9 11.7-120.2 10.6-1.8-0.1-1.8 2.8 0 2.8 40.6 1.1 81.2-2.5 120.9-10.7 1.8-0.4 1.1-3.1-0.7-2.7z"/>
					</g>
				</g>
			</g>
			<g id="&lt;Group&gt;">
				<g id="&lt;Group&gt;">
					<g id="&lt;Group&gt;">
						<path id="&lt;Path&gt;" class="s1" d="m234 638.2c49.1 29.6 94.4 65.4 134.6 106.3q16.7 17 32.3 35.2c1.2 1.4 3.2-0.6 2-2-37.2-43.5-79.9-82.3-126.7-115.3q-19.9-14.1-40.8-26.7c-1.5-0.9-3 1.6-1.4 2.5z"/>
					</g>
				</g>
				<g id="&lt;Group&gt;">
					<g id="&lt;Group&gt;">
						<path id="&lt;Path&gt;" class="s1" d="m263.1 790.3c31 10.5 63.3 17.2 96 20q13.9 1.1 27.8 1.4c1.9 0 1.9-2.8 0-2.9-32.5-0.5-64.9-5-96.4-13.2q-13.5-3.6-26.7-8c-1.7-0.6-2.5 2.1-0.7 2.7z"/>
					</g>
				</g>
			</g>
		</g>
		<g id="&lt;Group&gt;">
			<g id="&lt;Group&gt;">
				<g id="&lt;Group&gt;">
					<path id="&lt;Path&gt;" class="s2" d="m345.3 864.2l711.1-1.4-79.6-473.4c-3.1-18.3-18.9-31.6-37.5-31.6l-634.2 1.3c-23.4 0-41.2 21.1-37.3 44.1z"/>
				</g>
			</g>
			<g id="&lt;Group&gt;">
				<g id="&lt;Group&gt;">
					<path id="&lt;Path&gt;" class="s3" d="m397.1 519.8c-9-7.1-20.5-7.1-25.7 0-5.2 7.1-2.1 18.6 6.9 25.7 9 7.1 20.5 7.1 25.7 0 5.2-7.1 2.1-18.6-6.9-25.7z"/>
					<path id="&lt;Path&gt;" class="s4" d="m428.1 533.5h386.9"/>
				</g>
				<g id="&lt;Group&gt;">
					<path id="&lt;Path&gt;" class="s3" d="m431 673.8c-9-7.1-20.5-7.1-25.7 0-5.2 7.1-2.1 18.6 6.9 25.7 9 7.1 20.5 7.1 25.7 0 5.2-7.1 2.1-18.6-6.9-25.7z"/>
					<path id="&lt;Path&gt;" class="s4" d="m462 687.5h386.8"/>
				</g>
			</g>
			<g id="&lt;Group&gt;">
				<g id="&lt;Group&gt;">
					<path id="&lt;Path&gt;" class="s5" d="m268.4 407.9l-0.6-4.7c-3.9-23 13.9-44.1 37.3-44.1l634.2-1.3c18.6 0 34.4 13.3 37.5 31.6l3.3 19.4c1.6-2.9-711.7-0.9-711.7-0.9z"/>
				</g>
			</g>
			<g id="&lt;Group&gt;">
				<path id="&lt;Path&gt;" class="s1" d="m327 380.1c-4.6-3.7-10.6-3.7-13.3 0-2.7 3.7-1.1 9.7 3.6 13.3 4.6 3.7 10.6 3.7 13.3 0 2.7-3.6 1.1-9.6-3.6-13.3z"/>
				<path id="&lt;Path&gt;" class="s6" d="m357.8 380.1c-4.6-3.7-10.6-3.7-13.3 0-2.7 3.7-1.1 9.7 3.6 13.3 4.6 3.7 10.6 3.7 13.3 0 2.7-3.6 1.1-9.6-3.6-13.3z"/>
				<path id="&lt;Path&gt;" class="s3" d="m388.8 380.1c-4.7-3.7-10.6-3.7-13.3 0-2.7 3.7-1.1 9.7 3.5 13.3 4.7 3.7 10.7 3.7 13.4 0 2.7-3.6 1.1-9.6-3.6-13.3z"/>
			</g>
		</g>
		<g id="&lt;Group&gt;">
			<g id="&lt;Group&gt;">
				<g id="&lt;Group&gt;">
					<g id="&lt;Group&gt;">
						<path id="&lt;Path&gt;" class="s7" d="m823.2 309.5c0-13.4-10.8-24.2-24.2-24.2-13.4 0-24.3 10.8-24.3 24.2 0 13.4 10.9 24.3 24.3 24.3 13.4 0 24.2-10.9 24.2-24.3z"/>
						<g id="&lt;Group&gt;">
							<g id="&lt;Group&gt;">
								<path id="&lt;Path&gt;" class="s8" d="m753 390.8l61.1-101.8c3.6-8.4-6.4-33.8-12.8-40.3-17.6-18-43.1-27-68.1-28.7-13.9-1-40.6 14.1-48.5 31.6-8.7 19.4-13.9 38.4-38 47.9-51.5 20.1-41.1 76.5-41.1 76.5"/>
								<path id="&lt;Path&gt;" class="s5" d="m744.4 232.4c4.7-3.5 9.8-6 15-7.8-5.1-1.5-10.2-2.6-15.4-3.4-0.9 0.3-1.8 0.6-2.7 1-24.9 9.8-42.1 44.1-35.9 70 3-0.1 9.8 1.3 12.6 0.7 0.5-21.8 8.4-47.4 26.4-60.5z"/>
								<path id="&lt;Path&gt;" class="s9" d="m722 294.5c-0.3 1.1-1.4 1.8-2.6 1.5-4.9-1.4-15.8-5.6-21 6.7-5.2 12.5 5 23.2 12.3 25.6 2.1 0.7 6.9 2.6 7.9 4.5 3.1 6.1-5.6 54.3-13.9 70.7-0.6 31.2 46 73.8 46 73.8 0 0 12.2-17.3 22.1-55 0 0 3-68.1 3.5-68.3 7.6-4.3 37.7-2 37.1-55.2-0.7-49.4-35-55.6-44-56.5-7.5-0.7-32.8-6.1-47.4 52.2z"/>
								<path id="&lt;Path&gt;" class="s8" d="m794.2 244.5c0 0-28.5 65.5-73.6 51.5 0 0-10.7-84.4 73.6-51.5z"/>
								<g id="&lt;Group&gt;">
									<path id="&lt;Path&gt;" class="s10" d="m702.9 308c0 0 12.2-14 15.8 10.3"/>
									<path id="&lt;Path&gt;" class="s11" d="m764.4 306.4c6.3 1.7 10.1 8.1 8.5 14.5-1.6 6.4-8.1 10.2-14.5 8.5-6.3-1.6-10.1-8.1-8.5-14.4 1.6-6.4 8.1-10.2 14.5-8.6z"/>
									<path id="&lt;Path&gt;" class="s11" d="m810.8 324.1c-4.9-2.4-7.7-8.1-6.3-13.6 1.1-4.3 4.4-7.5 8.4-8.6 0 0 1.3 14.1-2.1 22.2z"/>
									<path id="&lt;Path&gt;" class="s1" d="m802.9 315.5l-19.9 3.8c0 0 6.8 8.6 12.3 6.5 5.6-2.1 7.6-10.3 7.6-10.3z"/>
									<path id="&lt;Path&gt;" class="s10" d="m793.1 299.1l-0.8 13.2 6.8-1c1.3-0.1 1.9-1.6 1.1-2.6z"/>
									<path id="&lt;Path&gt;" class="s12" d="m772 288.1c-2.1 1.7 0.8-5.4 3.8-6.4 3-1 6.1 0.2 6.9 2.8 0 0-5.6-0.4-10.7 3.6z"/>
									<path id="&lt;Path&gt;" class="s12" d="m808.4 284.9c2.3 1.4-1.5-5.3-4.6-5.9-3.1-0.6-6 1.1-6.5 3.7 0 0 5.5-1.2 11.1 2.2z"/>
									<path id="&lt;Path&gt;" class="s12" d="m779.5 300.1c0.2 2.3 1.4 4.1 2.5 4 1.1-0.1 1.8-2.1 1.6-4.4-0.3-2.4-1.4-4.1-2.5-4-1.2 0.1-1.9 2.1-1.6 4.4z"/>
									<path id="&lt;Path&gt;" class="s12" d="m797.8 297c0.2 2.2 1.3 3.9 2.4 3.8 1.1-0.2 1.7-2.1 1.5-4.3-0.3-2.2-1.3-3.9-2.4-3.8-1.1 0.1-1.8 2-1.5 4.3z"/>
									<path id="&lt;Path&gt;" class="s10" d="m778.3 353c0 0-10.8 2.3-21.6-1.5-10.8-3.8 10.3 23.5 21.6 1.5z"/>
								</g>
							</g>
							<g id="&lt;Group&gt;">
								<path id="&lt;Path&gt;" class="s13" d="m712.1 864.1c3.4-14.7 6.2-26.1 7.9-33.6 2.5-10.2 18.3-8 17.1 2.5-0.9 7.5-1.6 18.1-2.2 31.1h120.3c-7.7-105.3-24.9-199.5-58.1-254.4-44.4-6.2-98.6 1.8-143.6 3.2-22.4 39.6-34.3 68.6-47.1 118.9-4.2 16.2-14.6 66.3-27.7 132.3z"/>
								<path id="&lt;Path&gt;" class="s14" d="m796.4 629.6l-201.2 146.8c0 0 15.6-86.5 48.1-147.5z"/>
							</g>
							<g id="&lt;Group&gt;">
								<path id="&lt;Path&gt;" class="s11" d="m1006.9 526.3c0 0-39.2 36.2-102.5 82.3l-0.1 0.2q-0.2-0.1-0.4-0.1c-3.8 0.6-18.9 8.3-22.1 8 0 0-39.3 15.4-66.3-74.6-4-8-60.9-105.1-61.8-106.2 0 0 6.7-20.3 7.2-20.7 35.9-30.8 74.6 92.7 109.9 134.7 1.4 1.8 3.8 2.3 5.9 1.5 4.4-1.8 10.4-4.8 10.4-4.8l36.9-18 64.8-42.2c0 0 5-22.4 6.8-24.9 3.2-1 16.5-1.5 16.5-1.5 0 0 41-34.6 41-26.1 0 5-22.1 29.8-22.1 29.8 0 0 11.3 13.9 12 22.9 0.8 9-36.1 39.7-36.1 39.7z"/>
								<g id="&lt;Group&gt;" style="mix-blend-mode: multiply">
									<g id="&lt;Group&gt;">
										<path id="&lt;Path&gt;" class="s15" d="m995.3 462.4q6.6-0.4 13.2-0.4c2.3-0.1 4.5 0 6.7 0l3.3 0.1c1.1 0.1 2.1-0.1 3.6 0.4 0.8 0.3 1.5 0.9 1.8 1.6 0.4 0.7 0.5 1.5 0.4 2.2-0.1 1.4-0.8 2.7-1.7 3.6-1.9 1.7-4.2 2.5-6.3 3q-6.5 1.8-13 3.1 6.2-2.6 12.4-4.7c2-0.7 4-1.6 5.4-2.9 0.6-0.7 1-1.4 1-2.2 0-0.8-0.3-1.5-0.8-1.6-0.6-0.3-1.8-0.3-2.9-0.3l-3.3-0.2c-2.2-0.1-4.4-0.2-6.6-0.4q-6.6-0.4-13.2-1.3z"/>
									</g>
									<g id="&lt;Group&gt;">
										<path id="&lt;Path&gt;" class="s15" d="m1029.1 463.7c-1.2 1.4-2.5 2.8-3.7 4.3q-1.7 2.1-3.3 4.4c-2.2 3.1-4.1 6.2-5.6 9.6l-0.5-1.5c1.2 0.8 2.9 0.5 4.5-0.2 1.7-0.7 3.2-1.8 4.8-2.9q2.4-1.6 4.8-3.2c1.7-1 3.3-2.1 5-3-1.4 1.4-2.9 2.6-4.3 3.9q-2.2 1.9-4.4 3.7c-1.5 1.2-3.1 2.5-5 3.4-0.9 0.5-1.9 0.9-3.1 1-1.1 0.1-2.4-0.1-3.4-0.7l-0.9-0.6 0.4-0.9c1.7-3.5 3.8-6.7 6.3-9.7q1.8-2.2 4-4.1c1.4-1.2 2.8-2.5 4.4-3.5z"/>
									</g>
									<g id="&lt;Group&gt;">
										<path id="&lt;Path&gt;" class="s15" d="m1021.5 481.7c-0.2 1.1-0.4 2.3-0.3 3.3 0.1 0.9 0.8 1.8 1.4 2.1 0.6 0.2 1.3-0.1 2.3-0.6q1.5-0.8 2.9-1.7c2-1 3.9-2.2 5.8-3.4 1.9-1.1 3.8-2.3 5.8-3.5-2.8 3.7-6.5 6.6-10.5 8.9q-1.5 0.8-3 1.6c-0.6 0.2-1.1 0.5-1.9 0.6-0.7 0.2-1.6 0.1-2.3-0.4-1.3-0.9-1.7-2.4-1.6-3.6 0.2-1.3 0.8-2.3 1.4-3.3z"/>
									</g>
									<g id="&lt;Group&gt;">
										<path id="&lt;Path&gt;" class="s15" d="m1040.9 486.5c-0.5 1.3-1.6 2.4-2.8 3.2-1.2 0.8-2.7 1.2-4.1 1.4-1.5 0.1-3-0.1-4.3-0.7-1.4-0.6-2.6-1.5-3.3-2.7 1.3 0.5 2.5 0.8 3.8 1 1.2 0.2 2.4 0.2 3.6 0.1 1.2-0.1 2.4-0.3 3.5-0.7 1.2-0.4 2.4-0.9 3.6-1.6z"/>
									</g>
								</g>
								<path id="&lt;Path&gt;" class="s3" d="m756.6 414.6c0 0 18.5-17 42.3-2.9 23.8 14.1 68.2 110.6 82.1 129.7l56.5-34.7c0 0 30.7 48.1 42.2 57.3 0 0-86.8 78.1-119 63.3-32.3-14.9-104.1-212.7-104.1-212.7z"/>
								<path id="&lt;Path&gt;" class="s16" d="m826.8 507.6c-11.4-35.3-31.7-66.4-57-93.4-1.7-1.7-2.6-3.7-3-5.6-6.4 2.5-10.2 6-10.2 6 0 0 46.9 129.3 82 186.7 0.9-31.7-2.1-63.3-11.8-93.7z"/>
							</g>
							<g id="&lt;Group&gt;">
								<path id="&lt;Path&gt;" class="s3" d="m773.8 402.2c-1.3 3.1 48.5 98.1 47 128.8-1.6 31-7 87.1-5.3 91.7 0 0-39.8 15-172.4-5.9 1.1-26.7 8.8-195.2 8.8-195.2 0 0 43.3-26.6 54.5-27.4 0 0 8 10.6 19.5 13.6 7.7 2 16.6 3.5 25 3.7 14.1 0.2 16.8-1.8 22.9-9.3z"/>
							</g>
							<g id="&lt;Group&gt;" style="opacity: .9">
								<path id="&lt;Path&gt;" class="s17" d="m740.1 607.2c-91.9-44.2-69.5-140.8-83.8-188.3-2.7 1.7-4.4 2.7-4.4 2.7 0 0-7.7 168.5-8.8 195.2 93 14.7 140.3 11.7 160.3 8.6-9.7-4.9-53.4-13.5-63.3-18.2z"/>
							</g>
							<path id="&lt;Path&gt;" class="s7" d="m732.8 315.3c0-13.4-10.9-24.3-24.2-24.3-13.4 0-24.3 10.9-24.3 24.3 0 13.3 10.9 24.2 24.3 24.2 13.3 0 24.2-10.9 24.2-24.2z"/>
							<g id="&lt;Group&gt;">
								<path id="&lt;Path&gt;" class="s4" d="m721.5 318.1l13.9 15c5.3 5.7 13.1 8.3 20.8 6.9l37.9-6.9"/>
								<path id="&lt;Path&gt;" class="s5" d="m795.8 336l-6.6 1.4c-2 0.4-3.9-0.9-4.3-2.9l-0.2-0.8c-0.4-1.9 0.9-3.9 2.8-4.3l6.7-1.3c2-0.4 3.9 0.8 4.3 2.8l0.2 0.8c0.4 2-0.9 3.9-2.9 4.3z"/>
							</g>
							<path id="&lt;Path&gt;" class="s18" d="m724.5 315.3c0-8.8-7.1-16-15.9-16-8.8 0-16 7.2-16 16 0 8.8 7.2 15.9 16 15.9 8.8 0 15.9-7.1 15.9-15.9z"/>
						</g>
					</g>
				</g>
				<g id="&lt;Group&gt;">
					<g id="&lt;Group&gt;">
						<path id="&lt;Path&gt;" class="s11" d="m678.1 418.2c-25.7-20.9-86.1 56.9-86.1 56.9l-50.8 59.9-84-73.4c-1.2-7.3-3.5-19.8-5.9-25.6-2.5-6.1-1.6-16.1-0.9-21 0.2-1.5-1.3-2.8-2.8-2.2-2.4 1-5.4 3.3-5.9 8.2-0.5 5.4-3.1 13.2-3.3 17.5-0.1 1-1 1.5-1.9 1.1-4.4-1.7-6.3-4.3-12.1-9.1-1.9-1.9-7.2-6.4-12.7-14.7-5.5-8.2-13-19.7-15.6-15.6-1.8 3 8 20 9.7 22.4 3.8 5.2 7.8 15.2 7.9 15.6 0.5 1.6-12.1-10.3-17.5-17.7-5.5-7.5-10.5-15.3-13.4-15-3 0.3 1.2 7.8 1.2 7.8 0 0-5.5-4.4-7-2.6-1 1.3 4.7 13.5 9 21.5-7.8-5.6-7.9-1.3-7.9-1.3 0 0 12.1 18.9 17.7 22.5 4.5 2.8 10.5 10.6 11.5 12.2 1 1.5 16.6 17.2 31.5 24.5 12.7 17.1 113.6 151.7 126.1 140.3 93.7-85.2 149.7-182.5 113.2-212.2z"/>
						<g id="&lt;Group&gt;" style="mix-blend-mode: multiply">
							<g id="&lt;Group&gt;">
								<path id="&lt;Path&gt;" class="s15" d="m385.8 431.5l4.4 4.2c1.5 1.4 3 2.6 4.6 3.6 1.6 1.1 3.4 2.1 5.1 3.3 1.8 1.1 3.4 2.6 5 4h-2.4q2.7-2.2 5.6-4.2c1.9-1.3 3.8-2.6 5.9-3.6-1.3 1.9-2.8 3.7-4.3 5.4q-2.3 2.6-4.8 5l-1.1 1.1-1.3-1.1c-1.5-1.3-3-2.5-4.6-3.6-1.6-1.2-3.4-2.3-5-3.7-1.7-1.4-3.1-3.1-4.3-4.8q-1.7-2.7-2.8-5.6z"/>
							</g>
							<g id="&lt;Group&gt;">
								<path id="&lt;Path&gt;" class="s15" d="m439.3 441.8c0.3 1.9 0.5 3.6 0.7 5.4q0.3 2.6 0.5 5.1l0.6 10.5c-1.5-1.2-2.4-3-3.1-4.8-0.7-1.7-1-3.6-1.2-5.4q-0.2-2.8 0.4-5.6c0.4-1.8 0.9-3.6 2.1-5.2z"/>
							</g>
							<g id="&lt;Group&gt;">
								<path id="&lt;Path&gt;" class="s15" d="m384.5 414.3c1.7 2.6 3.5 4.8 5.3 7q2.9 3.3 5.9 6.5c1.9 2.1 4 4.2 5.9 6.5 1.9 2.3 3.8 4.7 5.1 7.5-2.5-1.8-4.8-3.5-7.1-5.4q-3.5-2.8-6.6-6.1c-2-2.3-4-4.7-5.5-7.3-1.5-2.7-2.7-5.6-3-8.7z"/>
							</g>
						</g>
					</g>
					<path id="&lt;Path&gt;" class="s3" d="m678.1 418.2c-25.7-20.9-86.1 56.9-86.1 56.9l-50.8 59.9-45.6-39.9c-8.1 12.8-27.8 36.7-35.3 49.8 34.7 44.4 96.1 93.3 104.6 85.5 93.7-85.2 149.7-182.5 113.2-212.2z"/>
				</g>
			</g>
			<path id="&lt;Path&gt;" class="s4" d="m227.2 863h978.1"/>
		</g>
		<g id="&lt;Group&gt;">
			<g id="&lt;Group&gt;">
				<g id="&lt;Group&gt;">
					<g id="&lt;Group&gt;">
						<path id="&lt;Path&gt;" class="s3" d="m893.9 304.4l18.5-18.5h69.6c14.1 0 25.6-11.4 25.6-25.6v-5.6c0-14.1-11.5-25.6-25.6-25.6h-62.4c-14.2 0-25.7 11.5-25.7 25.6z"/>
						<g id="&lt;Group&gt;">
							<path id="&lt;Path&gt;" class="s1" d="m970.7 256.8c0 3.5 2.8 6.4 6.4 6.4 3.5 0 6.4-2.9 6.4-6.4 0-3.5-2.9-6.4-6.4-6.4-3.6 0-6.4 2.9-6.4 6.4z"/>
							<path id="&lt;Path&gt;" class="s1" d="m947.2 256.8c0 3.5 2.9 6.4 6.4 6.4 3.5 0 6.4-2.9 6.4-6.4 0-3.5-2.9-6.4-6.4-6.4-3.5 0-6.4 2.9-6.4 6.4z"/>
							<path id="&lt;Path&gt;" class="s1" d="m923.8 256.8c0 3.5 2.8 6.4 6.4 6.4 3.5 0 6.4-2.9 6.4-6.4 0-3.5-2.9-6.4-6.4-6.4-3.6 0-6.4 2.9-6.4 6.4z"/>
						</g>
					</g>
					<path id="&lt;Path&gt;" class="s19" d="m1012.5 228.5c0 7.3-5.9 13.2-13.2 13.2-7.3 0-13.3-5.9-13.3-13.2 0-7.3 6-13.3 13.3-13.3 7.3 0 13.2 6 13.2 13.3z"/>
				</g>
				<g id="&lt;Group&gt;">
					<g id="&lt;Group&gt;">
						<path id="&lt;Path&gt;" class="s6" d="m878.6 225.5l-18.5-18.5h-69.5c-14.2 0-25.7-11.5-25.7-25.6v-5.6c0-14.2 11.5-25.6 25.7-25.6h62.4c14.1 0 25.6 11.4 25.6 25.6z"/>
						<g id="&lt;Group&gt;">
							<path id="&lt;Path&gt;" class="s1" d="m801.9 177.9c0 3.5-2.9 6.4-6.4 6.4-3.6 0-6.4-2.9-6.4-6.4 0-3.6 2.8-6.4 6.4-6.4 3.5 0 6.4 2.8 6.4 6.4z"/>
							<path id="&lt;Path&gt;" class="s1" d="m825.3 177.9c0 3.5-2.8 6.4-6.4 6.4-3.5 0-6.4-2.9-6.4-6.4 0-3.6 2.9-6.4 6.4-6.4 3.6 0 6.4 2.8 6.4 6.4z"/>
							<path id="&lt;Path&gt;" class="s1" d="m848.8 177.9c0 3.5-2.9 6.4-6.4 6.4-3.6 0-6.4-2.9-6.4-6.4 0-3.6 2.8-6.4 6.4-6.4 3.5 0 6.4 2.8 6.4 6.4z"/>
						</g>
					</g>
				</g>
			</g>
			<g id="&lt;Group&gt;">
				<path id="&lt;Path&gt;" class="s20" d="m1027 465.2l60.6-53.3h228.1c46.4 0 84-33 84-73.9v-16c0-40.8-37.6-73.9-84-73.9h-204.6c-46.5 0-84.1 33.1-84.1 73.9z"/>
				<g id="&lt;Group&gt;">
					<g id="&lt;Group&gt;">
						<g id="&lt;Group&gt;">
							<g id="&lt;Group&gt;">
								<path id="&lt;Path&gt;" class="s6" d="m1180.5 364h-93.8v-69.2h93.8z"/>
								<path id="&lt;Path&gt;" class="s21" d="m1086.6 293.7l40.4 40.3c3.6 3.6 9.4 3.6 13 0l40.7-40.7z"/>
								<path id="&lt;Path&gt;" class="s22" d="m1172.7 349.5h-23.9c-0.6 0-1.1-0.5-1.1-1.2 0-0.6 0.5-1.1 1.1-1.1h23.9c0.7 0 1.2 0.5 1.2 1.1 0 0.7-0.5 1.2-1.2 1.2z"/>
								<path id="&lt;Path&gt;" class="s1" d="m1118.6 342.9h-23.9c-0.6 0-1.1-0.5-1.1-1.2 0-0.6 0.5-1.2 1.1-1.2h23.9c0.7 0 1.2 0.6 1.2 1.2 0 0.7-0.5 1.2-1.2 1.2z"/>
								<path id="&lt;Path&gt;" class="s1" d="m1118.6 349.1h-23.9c-0.6 0-1.1-0.5-1.1-1.2 0-0.6 0.5-1.1 1.1-1.1h23.9c0.7 0 1.2 0.5 1.2 1.1 0 0.7-0.5 1.2-1.2 1.2z"/>
							</g>
						</g>
					</g>
					<g id="&lt;Group&gt;">
						<path id="&lt;Path&gt;" class="s1" d="m1346.5 314.4h-141.7c-3.9 0-7-3.1-7-7 0-3.9 3.1-7 7-7h141.7c3.9 0 7 3.1 7 7 0 3.9-3.1 7-7 7z"/>
						<path id="&lt;Path&gt;" class="s1" d="m1279.8 337.3h-78.1c-2.2 0-3.9-1.8-3.9-3.9 0-2.2 1.7-3.9 3.9-3.9h78.1c2.2 0 3.9 1.7 3.9 3.9 0 2.1-1.7 3.9-3.9 3.9z"/>
						<path id="&lt;Path&gt;" class="s1" d="m1279.8 354.3h-78.1c-2.2 0-3.9-1.7-3.9-3.8 0-2.2 1.7-3.9 3.9-3.9h78.1c2.2 0 3.9 1.7 3.9 3.9 0 2.1-1.7 3.8-3.9 3.8z"/>
					</g>
				</g>
			</g>
			<g id="&lt;Group&gt;">
				<g id="&lt;Group&gt;">
					<path id="&lt;Path&gt;" class="s6" d="m1148.5 717.3h-209.6l-17.4-71.3h209.6z"/>
					<text id="ON LINE
" style="transform: matrix(2,0,.518,1.932,981.766,690.285)" >
						<tspan x="0" y="0" class="t23">ON LINE
</tspan>
					</text>
				</g>
				<g id="&lt;Group&gt;">
					<path id="&lt;Path&gt;" class="s5" d="m896.3 743.8c1.6 5.9 7.7 10.7 13.6 10.7 5.9 0 9.5-4.8 7.9-10.7-1.6-6-7.7-10.8-13.7-10.8-5.9 0-9.4 4.8-7.8 10.8z"/>
					<path id="&lt;Path&gt;" class="s19" d="m919.3 707.8c3.1 11.6 15.1 21.1 26.8 21.1 11.6 0 18.6-9.5 15.4-21.1-3.1-11.7-15.1-21.2-26.7-21.2-11.7 0-18.6 9.5-15.5 21.2z"/>
					<path id="&lt;Path&gt;" class="s3" d="m926.5 720.5l-12.5-3.9c-1.2-0.4-1.6-2-0.6-2.3l23.1-7.8c0.9-0.3 2 0.6 1.9 1.5l-1.7 25.2c-0.1 1.1-1.7 1.1-2.3 0l-7-11.9c-0.2-0.4-0.5-0.7-0.9-0.8z"/>
				</g>
			</g>
			<g id="&lt;Group&gt;">
				<g id="&lt;Group&gt;">
					<g id="&lt;Group&gt;">
						<path id="&lt;Path&gt;" class="s6" d="m469.2 332.7c0-20.5-16.6-37-37.1-37-20.4 0-37 16.5-37 37 0 20.4 35.2 52.5 35.2 52.5 0 0 38.9-32.1 38.9-52.5z"/>
						<path id="&lt;Path&gt;" class="s24" d="m407.3 305.3c-1.6 3.8-2.5 7.9-2.5 12.6 0.1 15.8 11.4 32.9 27.4 36.1 15.4 3.2 32.3-7.4 36.8-22.2q0.1-0.1 0.1-0.3c-0.6-19.9-16.9-35.8-37-35.8-9.5 0-18.2 3.6-24.8 9.6z"/>
						<path id="&lt;Path&gt;" class="s21" d="m425.9 375.9c-2.4-0.6-4.8-1.4-7.1-2.3 6.4 6.9 11.5 11.6 11.5 11.6 0 0 3.9-3.2 9.1-8.1-4.5 0.2-9.1-0.2-13.5-1.2z"/>
						<path id="&lt;Path&gt;" class="s25" d="m421.4 368.5c0 0 4.8-38.8-0.6-36.4-5.4 2.4-8.4 8.3-2.4 9.5 6 1.2 29.9 0 29.9 0 0 0 2.1-6.8-1.8-8.3-6-2.4-6 20.3-7.2 36.4"/>
						<g id="&lt;Group&gt;">
							<path id="&lt;Path&gt;" class="s2" d="m445.3 376.9h-29.9c-2.3 0-4.2-1.9-4.2-4.2 0-2.3 1.9-4.2 4.2-4.2h29.9c2.3 0 4.2 1.9 4.2 4.2 0 2.3-1.9 4.2-4.2 4.2z"/>
							<path id="&lt;Path&gt;" class="s2" d="m430.9 396c-9.5 0-17.3-7.8-17.3-17.4v-2.9h34.7v2.9c0 9.6-7.8 17.4-17.4 17.4z"/>
							<path id="&lt;Path&gt;" class="s26" d="m438.2 394.4c5.9-2.8 10.1-8.8 10.1-15.8v-2.9h-32.3q11 9.4 22.2 18.7z"/>
						</g>
					</g>
					<g id="&lt;Group&gt;">
						<g id="&lt;Group&gt;">
							<path id="&lt;Path&gt;" class="s27" d="m365.4 332.9h16.8"/>
							<path id="&lt;Path&gt;" class="s27" d="m483.2 332.9h16.8"/>
						</g>
						<g id="&lt;Group&gt;">
							<path id="&lt;Path&gt;" class="s27" d="m385.1 285.3l11.9 11.9"/>
						</g>
						<g id="&lt;Group&gt;">
							<path id="&lt;Path&gt;" class="s27" d="m432.7 265.6v16.8"/>
						</g>
						<g id="&lt;Group&gt;">
							<path id="&lt;Path&gt;" class="s27" d="m480.3 285.3l-11.9 11.9"/>
						</g>
					</g>
				</g>
				<g id="&lt;Group&gt;" style="mix-blend-mode: multiply">
					<path id="&lt;Compound Path&gt;" fill-rule="evenodd" class="s26" d="m407 175.4c7.4-2.6 15-4.4 22.5-5.4 4.2-0.6 7.4-3.7 8.1-7.8l3.2-18.4c0.9-4.8 5.2-8.2 10-8 15.5 0.8 30.9 4.2 45.4 9.9 4.6 1.8 7.1 6.7 5.8 11.4l-4.8 17.9c-1.1 4 0.5 8.3 4.1 10.5 6.5 4.1 12.6 8.8 18.2 14.2 3 2.8 7.5 3.4 11.1 1.4l16.3-9c4.3-2.3 9.6-1.1 12.5 2.8 4.5 6.4 8.6 13.2 12.1 20.3 3.4 6.9 6.2 14.1 8.5 21.5 1.4 4.6-0.8 9.6-5.3 11.5l-17.1 7.7c-3.7 1.7-6.1 5.6-5.6 9.7 0.8 7 0.9 14.1 0.4 21.1-0.3 3.9 1.8 7.5 5.3 9.2l18.2 9c4.2 2 6.3 6.8 5 11.2-4.2 15.1-10.9 29.6-19.8 42.5-2.7 4.1-8.2 5.4-12.5 3l-15.8-8.7c-3.7-2.1-8.4-1.5-11.3 1.6-4.9 4.9-10.2 9.3-16 13.3-3 2.1-4.4 5.8-3.8 9.4l3.8 21.2c0.8 4.5-1.7 8.8-5.9 10.6-14.6 6.2-29.8 9.9-45.5 11-5 0.4-9.5-3.1-10.3-8.1l-2.7-17.5c-0.6-4.2-4.1-7.5-8.4-8-7.6-0.8-15.1-2.4-22.4-4.7-3.8-1.2-8 0.1-10.4 3.3l-11.8 15.5c-2.9 3.8-8.1 4.9-12.3 2.6-13.9-7.5-26.5-17.4-37.2-29.1-3.2-3.4-3.4-8.7-0.5-12.4l12.2-15.7c2.4-3.1 2.7-7.4 0.6-10.7q-2.6-4.4-4.9-9-2.5-5-4.4-10.1c-1.4-3.8-5.1-6.2-9.2-6l-19.1 0.6c-4.8 0.2-8.9-3.2-9.8-7.9-2.7-15.6-2.8-31.7-0.3-47.4 0.7-4.5 4.5-7.9 9.1-8.1l20.7-0.8c3.8-0.1 7.2-2.5 8.5-6.1 2.5-6.7 5.6-13.2 9.4-19.3 2.2-3.7 1.7-8.3-1.2-11.4l-12.3-13.3c-3.4-3.6-3.4-9.2-0.1-12.9 10.3-11.6 22.2-21.3 35.7-29 4.4-2.5 9.9-1.3 12.7 2.8l10.3 14.6c2.5 3.5 7 5 11 3.5zm58.8 33.1c-91.6-17.1-130 95.7-47 138.1 0.9 0.5 1.9 0.8 2.9 1 91.7 17.1 130.1-95.8 47-138.2-0.9-0.4-1.9-0.8-2.9-0.9z"/>
					<path id="&lt;Compound Path&gt;" fill-rule="evenodd" class="s26" d="m185.4 307.5c5.9-2.1 12-3.6 18.1-4.4 3.4-0.4 6-3 6.6-6.3l2.5-14.8c0.7-3.9 4.2-6.6 8.1-6.4 12.5 0.6 24.9 3.3 36.6 7.9 3.6 1.5 5.6 5.5 4.6 9.3l-3.9 14.3c-0.8 3.3 0.5 6.8 3.4 8.5 5.2 3.3 10.1 7.1 14.6 11.4 2.4 2.4 6.1 2.8 9 1.2l13.1-7.2c3.5-1.9 7.8-1 10.1 2.2 3.7 5.2 6.9 10.6 9.7 16.3 2.8 5.6 5.1 11.4 6.9 17.4 1.1 3.7-0.7 7.7-4.3 9.3l-13.8 6.2c-3 1.3-4.8 4.5-4.5 7.7 0.7 5.8 0.8 11.5 0.3 17.1-0.2 3.1 1.5 6 4.3 7.4l14.7 7.2c3.4 1.7 5 5.5 4 9.1-3.4 12.2-8.8 23.8-15.9 34.2-2.3 3.3-6.6 4.4-10.1 2.4l-12.8-7c-3-1.7-6.7-1.1-9.1 1.3-3.9 3.9-8.1 7.5-12.8 10.7-2.4 1.7-3.6 4.7-3.1 7.6l3 17.1c0.7 3.6-1.3 7.1-4.7 8.5-11.7 5-24 8-36.7 8.9-4 0.3-7.6-2.5-8.3-6.5l-2.1-14.1c-0.6-3.4-3.3-6.1-6.8-6.5-6.1-0.6-12.2-1.9-18-3.8-3.1-0.9-6.5 0.1-8.4 2.7l-9.6 12.5c-2.3 3.1-6.5 3.9-9.9 2.1-11.2-6.1-21.4-14.1-29.9-23.4-2.6-2.8-2.8-7.1-0.5-10l9.9-12.7c1.9-2.5 2.2-6 0.5-8.7q-2.2-3.5-4-7.2-2-4-3.5-8.1c-1.1-3.1-4.1-5-7.4-4.9l-15.4 0.5c-3.9 0.2-7.2-2.6-7.9-6.4-2.2-12.5-2.3-25.5-0.3-38.1 0.6-3.7 3.7-6.4 7.4-6.6l16.6-0.6c3.1-0.1 5.9-2 6.9-4.9 2-5.4 4.5-10.7 7.6-15.6 1.7-2.9 1.3-6.7-1-9.2l-9.9-10.7c-2.8-2.9-2.8-7.4-0.1-10.4 8.3-9.3 17.9-17.2 28.8-23.4 3.5-2 7.9-1 10.2 2.3l8.3 11.8c2 2.8 5.6 4 8.9 2.8zm47.4 26.6c-73.9-13.7-104.8 77.2-37.9 111.4 0.7 0.3 1.5 0.6 2.3 0.7 73.9 13.8 104.8-77.1 37.9-111.3-0.7-0.3-1.5-0.6-2.3-0.8z"/>
				</g>
			</g>
		</g>
		<g id="&lt;Group&gt;">
			<path id="&lt;Path&gt;" class="s6" d="m203.1 728.9c0-13.3-10.8-24.1-24.1-24.1-13.4 0-24.2 10.8-24.2 24.1 0 13.3 10.8 24.1 24.2 24.1 13.3 0 24.1-10.8 24.1-24.1z"/>
			<path id="&lt;Path&gt;" class="s6" d="m157.7 671.4c0-6.5-5.4-11.8-11.9-11.8-6.6 0-11.9 5.3-11.9 11.8 0 6.6 5.3 11.9 11.9 11.9 6.5 0 11.9-5.3 11.9-11.9z"/>
			<path id="&lt;Path&gt;" class="s6" d="m272.4 234.6c0-6.6-5.3-11.9-11.9-11.9-6.5 0-11.8 5.3-11.8 11.9 0 6.5 5.3 11.8 11.8 11.8 6.6 0 11.9-5.3 11.9-11.8z"/>
			<path id="&lt;Path&gt;" class="s6" d="m1212.6 828.6c0-6.6-5.3-11.9-11.8-11.9-6.6 0-11.9 5.3-11.9 11.9 0 6.5 5.3 11.8 11.9 11.8 6.5 0 11.8-5.3 11.8-11.8z"/>
			<path id="&lt;Path&gt;" class="s6" d="m1119.2 457.6c0-6.5-5.3-11.8-11.9-11.8-6.5 0-11.8 5.3-11.8 11.8 0 6.6 5.3 11.9 11.8 11.9 6.6 0 11.9-5.3 11.9-11.9z"/>
			<path id="&lt;Path&gt;" class="s6" d="m642.5 267.7c0-11.3-9.1-20.5-20.5-20.5-11.3 0-20.4 9.2-20.4 20.5 0 11.3 9.1 20.5 20.4 20.5 11.4 0 20.5-9.2 20.5-20.5z"/>
		</g>
	</g>
</svg>