<svg width="466" height="435" viewBox="0 0 466 435" fill="none" xmlns="http://www.w3.org/2000/svg">
<path fill-rule="evenodd" clip-rule="evenodd" d="M195.112 5.2503C261.776 -13.0451 337.754 18.1798 383.388 72.4199C427.328 124.645 427.396 201.237 418.071 270.252C410.119 329.105 384.006 386.496 336.573 418.893C295.462 446.973 243.59 430.274 195.112 422.537C156.793 416.421 122.072 403.979 90.9586 379.692C52.4986 349.67 1.39592 320.575 0.0247351 270.252C-1.35494 219.617 55.3225 194.428 84.8189 154.36C122.925 102.598 134.854 21.7879 195.112 5.2503Z" fill="#D5E2FB"/>
<rect width="4.46716" height="4.46716" transform="matrix(-0.680136 -0.733086 -0.680136 0.733086 44.1372 240.841)" fill="#F53867"/>
<path d="M34.1523 240.841H29.378" stroke="#F53867" stroke-width="0.875035"/>
<path d="M52.3818 240.841H47.6075" stroke="#F53867" stroke-width="0.875035"/>
<path d="M41.0903 248.786L41.0903 253.932" stroke="#F53867" stroke-width="0.875035"/>
<path d="M41.0967 228.21L41.0967 233.356" stroke="#F53867" stroke-width="0.875035"/>
<rect width="5.9186" height="5.9186" transform="matrix(-0.707107 -0.707107 -0.707107 0.707107 102.946 59.5171)" fill="#424242"/>
<path d="M89.1924 59.5171H82.6159" stroke="#424242" stroke-width="1.20532"/>
<path d="M114.302 59.5171H107.726" stroke="#424242" stroke-width="1.20532"/>
<path d="M98.7485 69.6697L98.7485 76.2461" stroke="#424242" stroke-width="1.20532"/>
<path d="M98.7573 43.375L98.7573 49.9514" stroke="#424242" stroke-width="1.20532"/>
<rect width="4.34957" height="4.34957" transform="matrix(-0.707107 -0.707107 -0.707107 0.707107 457.142 214.077)" fill="#424242"/>
<path d="M447.035 214.077H442.202" stroke="#424242" stroke-width="0.885788"/>
<path d="M465.488 214.077H460.655" stroke="#424242" stroke-width="0.885788"/>
<path d="M454.058 221.538L454.058 226.371" stroke="#424242" stroke-width="0.885788"/>
<path d="M454.064 202.214L454.064 207.047" stroke="#424242" stroke-width="0.885788"/>
<mask id="path-17-inside-1_13964_39856" fill="white">
<path d="M182.587 301.012C178.872 298.829 175.657 295.889 173.15 292.384C170.643 288.879 168.901 284.886 168.036 280.664C167.17 276.443 167.201 272.087 168.126 267.878C169.052 263.669 170.851 259.702 173.407 256.232C177.407 250.862 183.307 246.232 184.047 239.632C184.827 232.762 179.677 226.802 177.307 220.312C175.898 216.325 175.509 212.049 176.174 207.873C176.84 203.697 178.539 199.754 181.117 196.402C184.877 191.602 190.437 188.132 192.947 182.582C194.527 179.082 194.717 175.152 195.157 171.342C195.597 167.532 196.397 163.562 198.907 160.662C201.417 157.762 206.117 156.452 209.167 158.762C214.957 152.762 221.767 145.542 229.437 142.322C237.107 139.102 246.327 138.652 253.497 142.852C259.177 146.182 262.957 151.932 267.947 156.232C272.227 159.922 277.347 162.482 281.947 165.742C286.547 169.002 290.877 173.252 292.297 178.742C294.627 187.742 288.607 196.742 288.297 206.052C288.017 215.052 293.157 223.402 294.297 232.352C295.437 241.302 292.387 250.662 287.547 258.432C282.707 266.202 276.227 272.752 269.757 279.242C267.137 290.942 258.507 299.242 247.507 304.002C236.507 308.762 224.177 309.592 212.187 309.162C202.427 308.802 191.007 305.962 182.587 301.012Z"/>
</mask>
<path d="M182.587 301.012C178.872 298.829 175.657 295.889 173.15 292.384C170.643 288.879 168.901 284.886 168.036 280.664C167.17 276.443 167.201 272.087 168.126 267.878C169.052 263.669 170.851 259.702 173.407 256.232C177.407 250.862 183.307 246.232 184.047 239.632C184.827 232.762 179.677 226.802 177.307 220.312C175.898 216.325 175.509 212.049 176.174 207.873C176.84 203.697 178.539 199.754 181.117 196.402C184.877 191.602 190.437 188.132 192.947 182.582C194.527 179.082 194.717 175.152 195.157 171.342C195.597 167.532 196.397 163.562 198.907 160.662C201.417 157.762 206.117 156.452 209.167 158.762C214.957 152.762 221.767 145.542 229.437 142.322C237.107 139.102 246.327 138.652 253.497 142.852C259.177 146.182 262.957 151.932 267.947 156.232C272.227 159.922 277.347 162.482 281.947 165.742C286.547 169.002 290.877 173.252 292.297 178.742C294.627 187.742 288.607 196.742 288.297 206.052C288.017 215.052 293.157 223.402 294.297 232.352C295.437 241.302 292.387 250.662 287.547 258.432C282.707 266.202 276.227 272.752 269.757 279.242C267.137 290.942 258.507 299.242 247.507 304.002C236.507 308.762 224.177 309.592 212.187 309.162C202.427 308.802 191.007 305.962 182.587 301.012Z" fill="#424242" stroke="#424242" stroke-width="2" mask="url(#path-17-inside-1_13964_39856)"/>
<mask id="path-18-inside-2_13964_39856" fill="white">
<path d="M303.587 287.082C296.458 277.903 286.465 271.371 275.197 268.522C270.057 267.232 264.697 266.752 259.697 265.152C258.256 264.697 256.852 264.132 255.497 263.462C253.503 255.719 252.524 247.749 252.587 239.752H222.977C223.035 247.738 222.06 255.697 220.077 263.432C218.722 264.102 217.318 264.667 215.877 265.122C210.827 266.712 205.497 267.202 200.367 268.492C189.082 271.31 179.075 277.849 171.964 287.054C164.854 296.258 161.053 307.592 161.177 319.222V392.392L293.257 390.452C298.888 390.374 304.262 388.081 308.217 384.071C312.171 380.06 314.387 374.654 314.387 369.022V319.252C314.472 307.625 310.67 296.303 303.587 287.082V287.082Z"/>
</mask>
<path d="M303.587 287.082C296.458 277.903 286.465 271.371 275.197 268.522C270.057 267.232 264.697 266.752 259.697 265.152C258.256 264.697 256.852 264.132 255.497 263.462C253.503 255.719 252.524 247.749 252.587 239.752H222.977C223.035 247.738 222.06 255.697 220.077 263.432C218.722 264.102 217.318 264.667 215.877 265.122C210.827 266.712 205.497 267.202 200.367 268.492C189.082 271.31 179.075 277.849 171.964 287.054C164.854 296.258 161.053 307.592 161.177 319.222V392.392L293.257 390.452C298.888 390.374 304.262 388.081 308.217 384.071C312.171 380.06 314.387 374.654 314.387 369.022V319.252C314.472 307.625 310.67 296.303 303.587 287.082V287.082Z" fill="white" stroke="#424242" stroke-width="2" mask="url(#path-18-inside-2_13964_39856)"/>
<mask id="path-19-inside-3_13964_39856" fill="white">
<path d="M252.237 387.692C254.757 381.082 254.967 373.862 255.887 366.852C257.637 353.392 262.027 340.432 265.137 327.222C268.247 314.012 271.017 294.532 267.607 281.392C248.059 289.523 228.809 290.144 209.557 281.392C202.267 284.452 198.487 298.642 197.137 306.392C195.787 314.142 196.767 322.142 196.917 330.042C197.087 338.682 196.237 347.332 196.647 355.962C197.057 364.592 198.837 373.432 203.717 380.562C206.848 384.889 210.734 388.615 215.187 391.562L250.627 391.042C251.241 389.965 251.779 388.845 252.237 387.692Z"/>
</mask>
<path d="M252.237 387.692C254.757 381.082 254.967 373.862 255.887 366.852C257.637 353.392 262.027 340.432 265.137 327.222C268.247 314.012 271.017 294.532 267.607 281.392C248.059 289.523 228.809 290.144 209.557 281.392C202.267 284.452 198.487 298.642 197.137 306.392C195.787 314.142 196.767 322.142 196.917 330.042C197.087 338.682 196.237 347.332 196.647 355.962C197.057 364.592 198.837 373.432 203.717 380.562C206.848 384.889 210.734 388.615 215.187 391.562L250.627 391.042C251.241 389.965 251.779 388.845 252.237 387.692Z" fill="#FF4800" stroke="#424242" stroke-width="2" mask="url(#path-19-inside-3_13964_39856)"/>
<path d="M196.917 336.972C196.917 336.702 196.917 336.432 196.917 336.162C196.787 342.092 196.447 348.022 196.607 353.942C196.697 348.282 197.027 342.632 196.917 336.972Z" fill="#EDEDED"/>
<mask id="path-21-inside-4_13964_39856" fill="white">
<path d="M209.807 201.532C208.607 199.312 207.157 197.092 204.977 195.832C202.797 194.572 199.697 194.582 197.977 196.462C196.617 197.992 196.517 200.252 196.647 202.292C196.897 206.422 197.807 210.672 200.297 213.982C202.787 217.292 207.147 219.432 211.157 218.372C211.767 212.752 212.487 206.512 209.807 201.532Z"/>
</mask>
<path d="M209.807 201.532C208.607 199.312 207.157 197.092 204.977 195.832C202.797 194.572 199.697 194.582 197.977 196.462C196.617 197.992 196.517 200.252 196.647 202.292C196.897 206.422 197.807 210.672 200.297 213.982C202.787 217.292 207.147 219.432 211.157 218.372C211.767 212.752 212.487 206.512 209.807 201.532Z" fill="white" stroke="#424242" stroke-width="2" mask="url(#path-21-inside-4_13964_39856)"/>
<path d="M206.977 214.292C211.683 214.292 215.497 210.478 215.497 205.772C215.497 201.067 211.683 197.252 206.977 197.252C202.272 197.252 198.457 201.067 198.457 205.772C198.457 210.478 202.272 214.292 206.977 214.292Z" fill="#126AFA"/>
<mask id="path-23-inside-5_13964_39856" fill="white">
<path d="M263.917 203.692C265.117 201.472 266.557 199.252 268.747 197.992C270.937 196.732 274.027 196.742 275.747 198.622C277.107 200.152 277.197 202.412 277.077 204.452C276.827 208.582 275.917 212.832 273.417 216.142C270.917 219.452 266.567 221.592 262.567 220.532C261.957 214.902 261.237 208.672 263.917 203.692Z"/>
</mask>
<path d="M263.917 203.692C265.117 201.472 266.557 199.252 268.747 197.992C270.937 196.732 274.027 196.742 275.747 198.622C277.107 200.152 277.197 202.412 277.077 204.452C276.827 208.582 275.917 212.832 273.417 216.142C270.917 219.452 266.567 221.592 262.567 220.532C261.957 214.902 261.237 208.672 263.917 203.692Z" fill="white" stroke="#424242" stroke-width="2" mask="url(#path-23-inside-5_13964_39856)"/>
<path d="M267.307 214.292C272.013 214.292 275.827 210.478 275.827 205.772C275.827 201.067 272.013 197.252 267.307 197.252C262.602 197.252 258.787 201.067 258.787 205.772C258.787 210.478 262.602 214.292 267.307 214.292Z" fill="#2370ED"/>
<path d="M237.087 248.242C248.494 248.242 264.145 229.951 267.297 207.612C267.297 185.173 253.771 166.982 237.087 166.982C220.402 166.982 206.877 185.173 206.877 207.612C211.173 229.55 222.208 248.242 237.087 248.242Z" fill="white"/>
<path d="M195.747 209.752C206.002 202.253 213.778 191.857 218.077 179.902C225.489 186.613 235.237 190.15 245.227 189.752C243.344 188.748 241.779 187.238 240.707 185.392C250.147 187.622 258.267 193.392 264.487 200.802C267.017 203.802 269.157 207.192 272.007 209.902C274.857 212.612 278.687 214.672 282.597 214.252C280.157 203.862 277.777 193.122 273.867 183.182C271.467 177.092 268.627 170.872 263.607 166.662C257.367 161.412 248.607 160.082 240.517 160.662C231.801 161.279 223.352 163.941 215.857 168.432C205.677 174.647 197.89 184.114 193.757 195.302C192.758 197.729 192.245 200.328 192.247 202.952C192.303 204.272 192.646 205.563 193.25 206.737C193.854 207.911 194.706 208.94 195.747 209.752Z" fill="#424242"/>
<path d="M227.217 235.162H227.167C223.985 235.067 220.817 234.699 217.697 234.062C214.467 233.401 211.46 231.921 208.967 229.762C205.517 226.612 204.057 222.242 203.437 219.132C202.81 215.246 202.589 211.305 202.777 207.372C202.787 207.134 202.889 206.91 203.06 206.744C203.231 206.578 203.459 206.485 203.697 206.482C203.816 206.482 203.933 206.506 204.042 206.552C204.152 206.598 204.251 206.665 204.334 206.75C204.417 206.835 204.482 206.935 204.525 207.046C204.569 207.156 204.59 207.274 204.587 207.392C204.398 211.2 204.606 215.018 205.207 218.782C205.829 222.441 207.577 225.814 210.207 228.432C212.471 230.382 215.198 231.714 218.127 232.302C221.145 232.915 224.209 233.27 227.287 233.362C227.526 233.362 227.755 233.457 227.924 233.626C228.092 233.795 228.187 234.024 228.187 234.262C228.187 234.501 228.092 234.73 227.924 234.899C227.755 235.068 227.526 235.162 227.287 235.162H227.217Z" fill="#126AFA"/>
<mask id="path-27-inside-6_13964_39856" fill="white">
<path d="M275.197 268.522C270.937 267.452 266.557 266.922 262.297 265.872C253.344 307.213 247.021 349.081 243.367 391.222L293.257 390.482C298.889 390.403 304.263 388.111 308.217 384.101C312.171 380.09 314.388 374.684 314.387 369.052V319.252C314.506 307.623 310.703 296.292 303.593 287.089C296.483 277.885 286.48 271.344 275.197 268.522Z"/>
</mask>
<path d="M275.197 268.522C270.937 267.452 266.557 266.922 262.297 265.872C253.344 307.213 247.021 349.081 243.367 391.222L293.257 390.482C298.889 390.403 304.263 388.111 308.217 384.101C312.171 380.09 314.388 374.684 314.387 369.052V319.252C314.506 307.623 310.703 296.292 303.593 287.089C296.483 277.885 286.48 271.344 275.197 268.522Z" fill="#6C69FF" stroke="#424242" stroke-width="2" mask="url(#path-27-inside-6_13964_39856)"/>
<path d="M214.207 265.632C209.657 266.852 204.937 267.372 200.367 268.522C189.082 271.34 179.075 277.879 171.964 287.084C164.854 296.288 161.053 307.621 161.177 319.252V392.422L233.177 391.362C229.524 349.093 223.188 307.098 214.207 265.632Z" fill="#6C69FF"/>
<mask id="path-29-inside-7_13964_39856" fill="white">
<path d="M214.207 265.632C210.507 266.632 206.697 267.162 202.947 267.932C199.86 278.479 197.06 289.086 194.547 299.752C199.027 302.892 203.367 306.802 208.237 309.282C206.487 314.502 204.597 320.282 202.837 325.482C211.889 346.975 219.571 369.019 225.837 391.482L233.227 391.372C229.558 349.098 223.206 307.1 214.207 265.632Z"/>
</mask>
<path d="M214.207 265.632C210.507 266.632 206.697 267.162 202.947 267.932C199.86 278.479 197.06 289.086 194.547 299.752C199.027 302.892 203.367 306.802 208.237 309.282C206.487 314.502 204.597 320.282 202.837 325.482C211.889 346.975 219.571 369.019 225.837 391.482L233.227 391.372C229.558 349.098 223.206 307.1 214.207 265.632Z" fill="#6C69FF" stroke="#424242" stroke-width="2" mask="url(#path-29-inside-7_13964_39856)"/>
<mask id="path-30-inside-8_13964_39856" fill="white">
<path d="M274.467 268.352C270.467 267.352 266.317 266.862 262.297 265.872C253.344 307.213 247.021 349.081 243.367 391.222L251.577 391.092C257.818 368.767 265.46 346.856 274.457 325.492C272.697 320.282 270.807 314.492 269.047 309.292C273.927 306.812 278.257 302.902 282.747 299.762C280.274 289.222 277.514 278.752 274.467 268.352Z"/>
</mask>
<path d="M274.467 268.352C270.467 267.352 266.317 266.862 262.297 265.872C253.344 307.213 247.021 349.081 243.367 391.222L251.577 391.092C257.818 368.767 265.46 346.856 274.457 325.492C272.697 320.282 270.807 314.492 269.047 309.292C273.927 306.812 278.257 302.902 282.747 299.762C280.274 289.222 277.514 278.752 274.467 268.352Z" fill="#6C69FF" stroke="#424242" stroke-width="2" mask="url(#path-30-inside-8_13964_39856)"/>
<path d="M234.619 234.191C234.619 235.984 232.601 237.444 230.104 237.444C227.607 237.444 225.589 235.984 225.589 234.191C225.589 232.398 227.621 230.95 230.104 230.95C232.588 230.95 234.619 232.398 234.619 234.191Z" fill="#424242"/>
<path d="M174.367 285.972C164.137 296.472 157.107 309.742 152.187 323.542C147.267 337.342 144.357 351.772 141.457 366.142C140.627 370.272 139.797 374.572 140.837 378.662C142.977 387.032 152.227 391.612 160.837 392.612C169.447 393.612 178.207 392.172 186.697 393.762C192.987 358.062 190.357 318.512 174.367 285.972Z" fill="#6C69FF"/>
<mask id="path-33-inside-9_13964_39856" fill="white">
<path d="M241.977 373.162C236.057 370.312 221.464 368.092 212.3 370.578L203.676 389.174L225.695 390.117L254.167 387.772C252.817 381.342 247.897 376.012 241.977 373.162Z"/>
</mask>
<path d="M241.977 373.162C236.057 370.312 221.464 368.092 212.3 370.578L203.676 389.174L225.695 390.117L254.167 387.772C252.817 381.342 247.897 376.012 241.977 373.162Z" fill="white" stroke="#424242" stroke-width="2" mask="url(#path-33-inside-9_13964_39856)"/>
<path d="M159.361 364.438C177.559 363.406 195.8 363.379 214.001 364.358C215.671 372.898 217.901 382.238 217.161 390.908C202.615 394.828 187.31 394.976 172.691 391.338C162.671 388.868 159.231 374.758 159.361 364.438Z" fill="#6C69FF"/>
<path d="M177.417 386.162H385.207V387.882C385.207 388.994 384.766 390.059 383.98 390.845C383.194 391.631 382.128 392.072 381.017 392.072H181.607C180.496 392.072 179.43 391.631 178.644 390.845C177.858 390.059 177.417 388.994 177.417 387.882V386.162Z" fill="#E0E8FF"/>
<mask id="path-36-inside-10_13964_39856" fill="white">
<path d="M177.417 386.162H385.207V387.882C385.207 388.994 384.766 390.059 383.98 390.845C383.194 391.631 382.128 392.072 381.017 392.072H181.607C180.496 392.072 179.43 391.631 178.644 390.845C177.858 390.059 177.417 388.994 177.417 387.882V386.162Z"/>
</mask>
<path d="M177.417 386.162H385.207V387.882C385.207 388.994 384.766 390.059 383.98 390.845C383.194 391.631 382.128 392.072 381.017 392.072H181.607C180.496 392.072 179.43 391.631 178.644 390.845C177.858 390.059 177.417 388.994 177.417 387.882V386.162Z" fill="#ADADAD" stroke="#424242" stroke-width="2" mask="url(#path-36-inside-10_13964_39856)"/>
<mask id="path-37-inside-11_13964_39856" fill="white">
<path d="M250.291 386.162V387.973C250.291 388.553 250.181 389.127 249.969 389.663C249.756 390.199 249.445 390.686 249.052 391.095C248.659 391.505 248.193 391.83 247.68 392.051L184.494 392.071C179.931 392.223 179.676 391.859 178.795 391.045C178.004 390.219 177.42 389.142 177.417 387.973V386.162H250.291Z"/>
</mask>
<path d="M250.291 386.162V387.973C250.291 388.553 250.181 389.127 249.969 389.663C249.756 390.199 249.445 390.686 249.052 391.095C248.659 391.505 248.193 391.83 247.68 392.051L184.494 392.071C179.931 392.223 179.676 391.859 178.795 391.045C178.004 390.219 177.42 389.142 177.417 387.973V386.162H250.291Z" stroke="#424242" stroke-width="2" mask="url(#path-37-inside-11_13964_39856)"/>
<mask id="path-38-inside-12_13964_39856" fill="white">
<path d="M385.207 387.26H249.807L279.997 303.232C280.609 301.653 281.651 300.283 283.002 299.279C284.352 298.276 285.956 297.681 287.627 297.562H411.847C414.937 297.562 416.527 300.104 415.397 303.232L385.207 387.26Z"/>
</mask>
<path d="M385.207 387.26H249.807L279.997 303.232C280.609 301.653 281.651 300.283 283.002 299.279C284.352 298.276 285.956 297.681 287.627 297.562H411.847C414.937 297.562 416.527 300.104 415.397 303.232L385.207 387.26Z" fill="#C8C8C8" stroke="#424242" stroke-width="2" mask="url(#path-38-inside-12_13964_39856)"/>
<path d="M436.567 405.502H74.5668C73.6831 405.501 72.8084 405.325 71.9928 404.985C71.1773 404.645 70.437 404.147 69.8144 403.52C69.1919 402.892 68.6993 402.148 68.3651 401.33C68.0309 400.512 67.8615 399.636 67.8668 398.752V398.752C67.8655 397.871 68.0382 396.998 68.3749 396.183C68.7116 395.368 69.2059 394.628 69.8292 394.005C70.4525 393.382 71.1928 392.887 72.0075 392.551C72.8221 392.214 73.6953 392.041 74.5768 392.042H436.577C437.459 392.041 438.332 392.214 439.148 392.55C439.963 392.887 440.704 393.381 441.328 394.004C441.952 394.627 442.447 395.368 442.785 396.182C443.123 396.997 443.297 397.87 443.297 398.752V398.752C443.301 399.638 443.13 400.516 442.793 401.336C442.456 402.155 441.961 402.9 441.336 403.527C440.71 404.155 439.967 404.652 439.148 404.991C438.33 405.33 437.453 405.504 436.567 405.502V405.502Z" fill="#424242"/>
<g style="mix-blend-mode:multiply">
<path d="M235.297 390.203H230.597C230.313 390.203 230.041 390.09 229.84 389.889C229.64 389.688 229.527 389.416 229.527 389.133C229.527 388.849 229.64 388.577 229.84 388.376C230.041 388.175 230.313 388.062 230.597 388.062H235.297C235.581 388.062 235.853 388.175 236.053 388.376C236.254 388.577 236.367 388.849 236.367 389.133C236.367 389.416 236.254 389.688 236.053 389.889C235.853 390.09 235.581 390.203 235.297 390.203Z" fill="#424242"/>
</g>
<g style="mix-blend-mode:multiply">
<path d="M225.767 390.203H221.067C220.782 390.203 220.509 390.09 220.307 389.89C220.104 389.689 219.989 389.417 219.987 389.133C219.989 388.848 220.104 388.576 220.307 388.375C220.509 388.175 220.782 388.062 221.067 388.063H225.767C226.051 388.063 226.323 388.175 226.523 388.376C226.724 388.577 226.837 388.849 226.837 389.133V389.133C226.837 389.416 226.724 389.688 226.523 389.889C226.323 390.09 226.051 390.203 225.767 390.203V390.203Z" fill="#424242"/>
</g>
<g style="mix-blend-mode:multiply">
<path d="M216.237 390.202H211.537C211.396 390.204 211.255 390.177 211.124 390.124C210.994 390.071 210.874 389.992 210.774 389.892C210.674 389.793 210.594 389.675 210.539 389.544C210.485 389.414 210.457 389.274 210.457 389.132C210.457 388.991 210.485 388.851 210.539 388.721C210.594 388.59 210.674 388.472 210.774 388.372C210.874 388.273 210.994 388.194 211.124 388.141C211.255 388.088 211.396 388.061 211.537 388.062H216.237C216.521 388.062 216.793 388.175 216.994 388.376C217.194 388.576 217.307 388.849 217.307 389.132C217.307 389.416 217.194 389.688 216.994 389.889C216.793 390.09 216.521 390.202 216.237 390.202Z" fill="#424242"/>
</g>
<g style="mix-blend-mode:multiply">
<path d="M83.3159 159.228C83.3284 158.494 82.7431 157.888 82.0086 157.876C81.2742 157.863 80.6687 158.449 80.6563 159.183C80.6439 159.918 81.2292 160.523 81.9636 160.535C82.698 160.548 83.3035 159.963 83.3159 159.228Z" fill="#E0E8FF"/>
</g>
<path opacity="0.6" d="M340.016 350.034C339.323 351.708 340.176 353.251 341.842 353.231C341.962 353.231 342.082 353.231 342.082 353.231C340.076 355.517 337.116 357.101 334.367 357.01C330.664 356.93 328.958 353.973 330.594 350.374C332.099 346.665 336.363 343.869 340.066 343.829C342.333 343.919 343.899 345.092 344.4 346.876C342.725 347.026 340.828 348.239 340.016 350.034Z" fill="#141414"/>
<path d="M203.866 268.211C196.813 269.004 180.299 274.271 170.673 289C163.516 300.314 148.567 327.401 146.019 345.233C143.543 354.482 139.928 373.631 140.712 377.682C141.641 382.481 146.777 390.722 160.272 392.693C175.06 393.297 206.071 393.937 211.809 391.661" stroke="#424242"/>
<path d="M185.509 328.138C186.14 334.302 187.022 348.856 185.509 357.765C188.13 358.223 195.512 360.04 204.071 363.643" stroke="#424242"/>
<circle cx="226.864" cy="295.24" r="1.95501" fill="white"/>
<circle cx="245.322" cy="313.042" r="1.95501" fill="white"/>
<circle cx="249.807" cy="295.607" r="1.95501" fill="white"/>
<circle cx="231.272" cy="320.046" r="1.95501" fill="white"/>
<circle cx="243.367" cy="336.477" r="1.95501" fill="white"/>
<circle cx="236.694" cy="358.234" r="1.95501" fill="white"/>
<circle cx="90.4439" cy="295.356" r="38.1095" fill="white" stroke="#424242"/>
<circle cx="384.4" cy="295.356" r="38.1095" fill="white" stroke="#424242"/>
<circle cx="237.422" cy="48.8897" r="38.1095" fill="white" stroke="#424242"/>
<mask id="path-56-inside-13_13964_39856" fill="white">
<path d="M66.9155 283.96H113.972V309.958H66.9155V283.96Z"/>
</mask>
<path d="M66.9155 283.96H113.972V309.958H66.9155V283.96Z" fill="#FFBB22"/>
<path d="M90.3153 296.765L90.0752 297.204L90.314 297.334L90.5533 297.205L90.3153 296.765ZM66.6755 284.399L90.0752 297.204L90.5553 296.326L67.1555 283.522L66.6755 284.399ZM90.5533 297.205L114.21 284.4L113.734 283.521L90.0773 296.325L90.5533 297.205ZM66.9155 283.96V282.96H65.9155V283.96H66.9155ZM113.972 283.96H114.972V282.96H113.972V283.96ZM113.972 309.958V310.958H114.972V309.958H113.972ZM66.9155 309.958H65.9155V310.958H66.9155V309.958ZM66.9155 284.96H113.972V282.96H66.9155V284.96ZM112.972 283.96V309.958H114.972V283.96H112.972ZM113.972 308.958H66.9155V310.958H113.972V308.958ZM67.9155 309.958V283.96H65.9155V309.958H67.9155Z" fill="#424242" mask="url(#path-56-inside-13_13964_39856)"/>
<circle cx="85.9386" cy="142.235" r="38.1095" fill="white" stroke="#424242"/>
<mask id="path-59-inside-14_13964_39856" fill="white">
<path d="M98.6818 156.195C98.627 156.198 98.5722 156.186 98.5221 156.158C98.4719 156.131 98.4277 156.089 98.3929 156.036C98.2627 155.796 98.0874 155.601 97.8822 155.466C97.6771 155.331 97.4485 155.261 97.2165 155.263C96.9845 155.265 96.7562 155.337 96.5516 155.475C96.3471 155.612 96.1727 155.81 96.0436 156.052C96.0094 156.105 95.9657 156.147 95.9159 156.175C95.8662 156.203 95.8118 156.216 95.7573 156.213L61.9421 156.393C61.8935 156.395 61.8452 156.384 61.8 156.362C61.7548 156.34 61.7136 156.306 61.6787 156.264C61.6438 156.222 61.6159 156.172 61.5967 156.116C61.5775 156.06 61.5674 156 61.5668 155.94L61.5556 147.803C62.9094 147.417 63.9269 145.919 63.9243 144.156C63.9217 142.393 62.9003 140.906 61.5451 140.537L61.5339 132.4C61.5342 132.34 61.5441 132.28 61.563 132.224C61.5819 132.168 61.6094 132.118 61.6439 132.075C61.6785 132.033 61.7193 131.999 61.7642 131.976C61.8091 131.954 61.8572 131.942 61.9056 131.943L95.7208 131.761C95.7755 131.757 95.8303 131.769 95.8804 131.797C95.9305 131.825 95.9746 131.867 96.009 131.92C96.1392 132.16 96.3147 132.355 96.5198 132.49C96.725 132.625 96.9537 132.695 97.1857 132.693C97.4178 132.691 97.6461 132.619 97.8507 132.481C98.0553 132.344 98.2298 132.146 98.359 131.905C98.3933 131.852 98.4371 131.81 98.4868 131.782C98.5366 131.754 98.5908 131.741 98.6452 131.744L110.532 131.681C110.58 131.68 110.629 131.69 110.674 131.712C110.719 131.734 110.76 131.767 110.795 131.81C110.83 131.852 110.858 131.902 110.877 131.958C110.896 132.013 110.907 132.073 110.907 132.134L110.918 140.259C109.543 140.623 108.509 142.127 108.511 143.916C108.514 145.705 109.551 147.199 110.929 147.549L110.94 155.673C110.939 155.795 110.899 155.912 110.83 155.998C110.76 156.083 110.666 156.131 110.568 156.131L98.6818 156.195Z"/>
</mask>
<path d="M98.6818 156.195C98.627 156.198 98.5722 156.186 98.5221 156.158C98.4719 156.131 98.4277 156.089 98.3929 156.036C98.2627 155.796 98.0874 155.601 97.8822 155.466C97.6771 155.331 97.4485 155.261 97.2165 155.263C96.9845 155.265 96.7562 155.337 96.5516 155.475C96.3471 155.612 96.1727 155.81 96.0436 156.052C96.0094 156.105 95.9657 156.147 95.9159 156.175C95.8662 156.203 95.8118 156.216 95.7573 156.213L61.9421 156.393C61.8935 156.395 61.8452 156.384 61.8 156.362C61.7548 156.34 61.7136 156.306 61.6787 156.264C61.6438 156.222 61.6159 156.172 61.5967 156.116C61.5775 156.06 61.5674 156 61.5668 155.94L61.5556 147.803C62.9094 147.417 63.9269 145.919 63.9243 144.156C63.9217 142.393 62.9003 140.906 61.5451 140.537L61.5339 132.4C61.5342 132.34 61.5441 132.28 61.563 132.224C61.5819 132.168 61.6094 132.118 61.6439 132.075C61.6785 132.033 61.7193 131.999 61.7642 131.976C61.8091 131.954 61.8572 131.942 61.9056 131.943L95.7208 131.761C95.7755 131.757 95.8303 131.769 95.8804 131.797C95.9305 131.825 95.9746 131.867 96.009 131.92C96.1392 132.16 96.3147 132.355 96.5198 132.49C96.725 132.625 96.9537 132.695 97.1857 132.693C97.4178 132.691 97.6461 132.619 97.8507 132.481C98.0553 132.344 98.2298 132.146 98.359 131.905C98.3933 131.852 98.4371 131.81 98.4868 131.782C98.5366 131.754 98.5908 131.741 98.6452 131.744L110.532 131.681C110.58 131.68 110.629 131.69 110.674 131.712C110.719 131.734 110.76 131.767 110.795 131.81C110.83 131.852 110.858 131.902 110.877 131.958C110.896 132.013 110.907 132.073 110.907 132.134L110.918 140.259C109.543 140.623 108.509 142.127 108.511 143.916C108.514 145.705 109.551 147.199 110.929 147.549L110.94 155.673C110.939 155.795 110.899 155.912 110.83 155.998C110.76 156.083 110.666 156.131 110.568 156.131L98.6818 156.195Z" fill="#00D2F6" stroke="#424242" stroke-width="2" mask="url(#path-59-inside-14_13964_39856)"/>
<path d="M97.188 135.152L97.1682 153.059" stroke="#424242" stroke-dasharray="2.27 2.27"/>
<path d="M68.0107 136.779L92.9638 136.601" stroke="#424242"/>
<path d="M67.876 141.128L82.4655 141.075" stroke="#424242"/>
<circle cx="237.422" cy="48.8898" r="20.215" fill="#FFBB22" stroke="#424242"/>
<mask id="path-64-inside-15_13964_39856" fill="white">
<path d="M242.979 41.3365C242.979 38.2643 240.497 35.7844 237.421 35.7844C234.346 35.7844 231.864 38.2643 231.864 41.3365C231.864 44.4086 234.346 46.8885 237.421 46.8885C240.497 46.8885 242.979 44.4086 242.979 41.3365Z"/>
<path d="M226.307 56.1049C228.696 59.6952 232.79 62.0641 237.421 62.0641C242.053 62.0641 246.147 59.6952 248.536 56.1049C248.481 52.422 241.108 50.4048 237.421 50.4048C233.716 50.4048 226.362 52.422 226.307 56.1049Z"/>
</mask>
<path d="M242.979 41.3365C242.979 38.2643 240.497 35.7844 237.421 35.7844C234.346 35.7844 231.864 38.2643 231.864 41.3365C231.864 44.4086 234.346 46.8885 237.421 46.8885C240.497 46.8885 242.979 44.4086 242.979 41.3365Z" fill="white"/>
<path d="M226.307 56.1049C228.696 59.6952 232.79 62.0641 237.421 62.0641C242.053 62.0641 246.147 59.6952 248.536 56.1049C248.481 52.422 241.108 50.4048 237.421 50.4048C233.716 50.4048 226.362 52.422 226.307 56.1049Z" fill="white"/>
<path d="M242.979 41.3365C242.979 38.2643 240.497 35.7844 237.421 35.7844C234.346 35.7844 231.864 38.2643 231.864 41.3365C231.864 44.4086 234.346 46.8885 237.421 46.8885C240.497 46.8885 242.979 44.4086 242.979 41.3365Z" stroke="#424242" stroke-width="2" mask="url(#path-64-inside-15_13964_39856)"/>
<path d="M226.307 56.1049C228.696 59.6952 232.79 62.0641 237.421 62.0641C242.053 62.0641 246.147 59.6952 248.536 56.1049C248.481 52.422 241.108 50.4048 237.421 50.4048C233.716 50.4048 226.362 52.422 226.307 56.1049Z" stroke="#424242" stroke-width="2" mask="url(#path-64-inside-15_13964_39856)"/>
<circle cx="384.4" cy="142.235" r="38.1095" fill="white" stroke="#424242"/>
<mask id="path-66-inside-16_13964_39856" fill="white">
<path d="M375.102 131.419C375.102 126.283 379.265 122.12 384.4 122.12V122.12C389.536 122.12 393.699 126.283 393.699 131.419V137.727H375.102V131.419Z"/>
</mask>
<path d="M375.102 131.419C375.102 126.283 379.265 122.12 384.4 122.12V122.12C389.536 122.12 393.699 126.283 393.699 131.419V137.727H375.102V131.419Z" stroke="#424242" stroke-width="2" mask="url(#path-66-inside-16_13964_39856)"/>
<mask id="path-67-inside-17_13964_39856" fill="white">
<path d="M368.394 139.466C368.394 136.798 370.557 134.635 373.225 134.635H395.575C398.244 134.635 400.407 136.798 400.407 139.466V157.518C400.407 160.186 398.243 162.35 395.575 162.35H373.225C370.557 162.35 368.394 160.186 368.394 157.518V139.466Z"/>
</mask>
<path d="M368.394 139.466C368.394 136.798 370.557 134.635 373.225 134.635H395.575C398.244 134.635 400.407 136.798 400.407 139.466V157.518C400.407 160.186 398.243 162.35 395.575 162.35H373.225C370.557 162.35 368.394 160.186 368.394 157.518V139.466Z" fill="#126AFA" stroke="#424242" stroke-width="2" mask="url(#path-67-inside-17_13964_39856)"/>
<circle cx="384.4" cy="148.492" r="3.76227" fill="white" stroke="#424242"/>
<circle cx="384.4" cy="295.356" r="20.2169" fill="#00D2F6"/>
<circle cx="384.4" cy="295.356" r="20.2169" stroke="#424242"/>
<circle cx="384.4" cy="295.356" r="20.2169" stroke="black" stroke-opacity="0.2"/>
<mask id="path-70-inside-18_13964_39856" fill="white">
<path d="M392.594 295.356C392.594 306.797 388.926 316.073 384.4 316.073C379.874 316.073 376.206 306.797 376.206 295.356C376.206 283.914 379.874 274.639 384.4 274.639C388.926 274.639 392.594 283.914 392.594 295.356Z"/>
</mask>
<path d="M392.594 295.356C392.594 306.797 388.926 316.073 384.4 316.073C379.874 316.073 376.206 306.797 376.206 295.356C376.206 283.914 379.874 274.639 384.4 274.639C388.926 274.639 392.594 283.914 392.594 295.356Z" fill="#00D2F6"/>
<path d="M392.594 295.356C392.594 306.797 388.926 316.073 384.4 316.073C379.874 316.073 376.206 306.797 376.206 295.356C376.206 283.914 379.874 274.639 384.4 274.639C388.926 274.639 392.594 283.914 392.594 295.356Z" stroke="#424242" stroke-width="2" mask="url(#path-70-inside-18_13964_39856)"/>
<path d="M392.594 295.356C392.594 306.797 388.926 316.073 384.4 316.073C379.874 316.073 376.206 306.797 376.206 295.356C376.206 283.914 379.874 274.639 384.4 274.639C388.926 274.639 392.594 283.914 392.594 295.356Z" stroke="black" stroke-opacity="0.2" stroke-width="2" mask="url(#path-70-inside-18_13964_39856)"/>
<path d="M365.686 289.032H403.138" stroke="#424242"/>
<path d="M365.686 301.615H403.138" stroke="#424242"/>
</svg>
