<svg version="1.2" xmlns="http://www.w3.org/2000/svg" viewBox="0 0 1000 1000" width="1000" height="1000">
	<title>2924717-ai</title>
	<style>
		.s0 { fill: #ebebeb } 
		.s1 { fill: #e6e6e6 } 
		.s2 { fill: #f5f5f5 } 
		.s3 { fill: #ffffff } 
		.s4 { fill: #f0f0f0 } 
		.s5 { fill: #407bff } 
		.s6 { opacity: .3;fill: #000000 } 
		.s7 { opacity: .2;fill: #000000 } 
		.s8 { fill: #263238 } 
		.s9 { opacity: .6;fill: #000000 } 
		.s10 { opacity: .7;fill: #ffffff } 
		.s11 { opacity: .1;fill: #407bff } 
		.s12 { opacity: .4;fill: #ffffff } 
		.s13 { fill: #b65b52 } 
		.s14 { fill: #b55b52 } 
		.s15 { opacity: .5;fill: #ffffff } 
		.s16 { fill: #fafafa } 
		.s17 { opacity: .6;fill: #407bff } 
		.s18 { fill: #a02724 } 
		.s19 { opacity: .3;fill: #fafafa } 
	</style>
	<g id="Background Complete">
		<g id="&lt;Group&gt;">
			<path id="&lt;Path&gt;" class="s0" d="m1000 765.3h-1000v-0.5h1000z"/>
			<path id="&lt;Path&gt;" class="s0" d="m833.6 797h66.2v0.5h-66.2z"/>
			<path id="&lt;Path&gt;" class="s0" d="m645.1 802.4h17.3v0.5h-17.3z"/>
			<path id="&lt;Path&gt;" class="s0" d="m793.2 778.4h38.4v0.5h-38.4z"/>
			<path id="&lt;Path&gt;" class="s0" d="m104.9 781.8h86.4v0.5h-86.4z"/>
			<path id="&lt;Path&gt;" class="s0" d="m209.1 781.8h12.7v0.5h-12.7z"/>
			<path id="&lt;Path&gt;" class="s0" d="m262.9 790.2h187.4v0.5h-187.4z"/>
			<path id="&lt;Compound Path&gt;" fill-rule="evenodd" class="s0" d="m474 675.6h-386.2c-6.3 0-11.4-5.1-11.4-11.4v-542.9c0-6.3 5.1-11.4 11.4-11.4h386.2c6.3 0 11.4 5.1 11.4 11.4v542.9c0 6.3-5.1 11.4-11.4 11.4zm-386.2-565.2c-6 0-10.9 4.9-10.9 10.9v542.9c0 6 4.9 10.9 10.9 10.9h386.2c6 0 10.9-4.9 10.9-10.9v-542.9c0-6-4.9-10.9-10.9-10.9z"/>
			<path id="&lt;Compound Path&gt;" fill-rule="evenodd" class="s0" d="m906.6 675.6h-386.2c-6.3 0-11.4-5.1-11.4-11.4v-542.9c0-6.3 5.1-11.4 11.4-11.4h386.2c6.3 0 11.4 5.1 11.4 11.4v542.9c0 6.3-5.1 11.4-11.4 11.4zm-386.2-565.2c-6 0-10.9 4.9-10.9 10.9v542.9c0 6 4.9 10.9 10.9 10.9h386.2c6 0 10.9-4.9 10.9-10.9v-542.9c0-6-4.9-10.9-10.9-10.9z"/>
		</g>
		<g id="&lt;Group&gt;">
			<g id="&lt;Group&gt;">
				<g id="&lt;Group&gt;">
					<g id="&lt;Group&gt;">
						<g id="&lt;Group&gt;">
							<path id="&lt;Path&gt;" class="s1" d="m358.3 485.4h463.4v-308.2h-463.4z"/>
							<path id="&lt;Path&gt;" class="s2" d="m351.1 485.4h463.4v-308.2h-463.4z"/>
							<path id="&lt;Path&gt;" class="s3" d="m801.6 470.9v-279.2h-437.6v279.2z"/>
							<path id="&lt;Path&gt;" class="s1" d="m369.4 470.9v-279.2h-5.4v279.2z"/>
							<path id="&lt;Path&gt;" class="s2" d="m356.4 403.5h452.8v-19.4h-452.8z"/>
						</g>
					</g>
				</g>
				<g id="&lt;Group&gt;" style="opacity: .4">
					<path id="&lt;Path&gt;" class="s1" d="m380.5 422.7h-43.8v-260.7h43.8z"/>
					<path id="&lt;Path&gt;" class="s2" d="m380.5 401.8h21.7v-239.8h-21.7z"/>
					<path id="&lt;Path&gt;" class="s1" d="m445.9 422.7h-43.7v-260.7h43.7z"/>
					<path id="&lt;Path&gt;" class="s2" d="m445.9 401.8h21.7v-239.8h-21.7z"/>
					<path id="&lt;Path&gt;" class="s1" d="m511.3 422.7h-43.7v-260.7h43.7z"/>
					<path id="&lt;Path&gt;" class="s2" d="m511.3 401.8h21.7v-239.8h-21.7z"/>
					<path id="&lt;Path&gt;" class="s1" d="m576.8 422.7h-43.8v-260.7h43.8z"/>
					<path id="&lt;Path&gt;" class="s2" d="m576.8 401.8h21.7v-239.8h-21.7z"/>
					<path id="&lt;Path&gt;" class="s1" d="m642.2 422.7h-43.7v-260.7h43.7z"/>
					<path id="&lt;Path&gt;" class="s2" d="m642.2 401.8h21.7v-239.8h-21.7z"/>
					<path id="&lt;Path&gt;" class="s1" d="m707.7 422.7h-43.8v-260.7h43.8z"/>
					<path id="&lt;Path&gt;" class="s2" d="m707.7 401.8h21.6v-239.8h-21.6z"/>
					<path id="&lt;Path&gt;" class="s1" d="m773.1 422.7h-43.8v-260.7h43.8z"/>
					<path id="&lt;Path&gt;" class="s2" d="m773.1 401.8h21.7v-239.8h-21.7z"/>
					<path id="&lt;Path&gt;" class="s1" d="m838.5 422.7h-43.7v-260.7h43.7z"/>
				</g>
			</g>
			<g id="&lt;Group&gt;">
				<path id="&lt;Path&gt;" class="s0" d="m165.6 764.8h102.6v-210.8h-102.6z"/>
				<path id="&lt;Path&gt;" class="s2" d="m185.1 764.8h-19.5v-42.9h39.9z"/>
				<path id="&lt;Path&gt;" class="s0" d="m750.9 764.8h102.5v-210.8h-102.5z"/>
				<path id="&lt;Path&gt;" class="s2" d="m165.6 738.5h602.3v-184.5h-602.3z"/>
				<g id="&lt;Group&gt;">
					<path id="&lt;Compound Path&gt;" fill-rule="evenodd" class="s1" d="m747.8 686.4h-178.5c-0.9 0-1.6-0.7-1.6-1.6v-116.7c0-1 0.7-1.7 1.6-1.7h33q0.5 0 0.9 0.3c4.8 3.5 10.2 6.3 16.1 8.3 6.9 2.3 14.1 3.4 21.6 3.4h35.3c14.1 0 27.5-4.1 37.7-11.7q0.4-0.3 1-0.3h32.9c0.9 0 1.7 0.7 1.7 1.7v116.7c0 0.9-0.8 1.6-1.7 1.6zm-176.9-3.3h175.3v-113.4h-30.8c-10.7 7.8-24.6 12-39.2 12h-35.3c-7.8 0-15.4-1.2-22.6-3.6-6.1-2-11.7-4.9-16.6-8.4h-30.8z"/>
				</g>
				<g id="&lt;Group&gt;">
					<path id="&lt;Compound Path&gt;" fill-rule="evenodd" class="s1" d="m556 686.4h-178.6c-0.9 0-1.6-0.7-1.6-1.6v-116.7c0-1 0.7-1.7 1.6-1.7h31.2q0.6 0 1 0.3c4.8 3.6 10.2 6.3 16.1 8.3 6.8 2.3 14.1 3.4 21.6 3.4h35.3c14.1 0 27.4-4.1 37.6-11.7q0.4-0.3 1-0.3h34.8c0.9 0 1.6 0.7 1.6 1.7v116.7c0 0.9-0.7 1.6-1.6 1.6zm-176.9-3.3h175.2v-113.4h-32.6c-10.7 7.8-24.5 12-39.1 12h-35.3c-7.9 0-15.5-1.2-22.6-3.6-6.1-2-11.7-4.8-16.6-8.4h-29z"/>
				</g>
				<g id="&lt;Group&gt;">
					<path id="&lt;Compound Path&gt;" fill-rule="evenodd" class="s1" d="m364.1 686.4h-178.5c-0.9 0-1.6-0.7-1.6-1.6v-116.7c0-1 0.7-1.7 1.6-1.7h31.2q0.5 0 0.9 0.3c4.8 3.5 10.2 6.3 16.1 8.3 6.9 2.3 14.1 3.4 21.6 3.4h35.3c14.1 0 27.5-4.1 37.7-11.7q0.4-0.3 1-0.3h34.7c0.9 0 1.7 0.7 1.7 1.7v116.7c0 0.9-0.8 1.6-1.7 1.6zm-176.9-3.3h175.3v-113.4h-32.6c-10.7 7.8-24.6 12-39.2 12h-35.3c-7.8 0-15.4-1.2-22.6-3.6-6.1-2-11.7-4.8-16.6-8.4h-29z"/>
				</g>
				<path id="&lt;Path&gt;" class="s2" d="m748.4 764.8h19.5v-42.9h-39.9z"/>
			</g>
			<g id="&lt;Group&gt;">
				<path id="&lt;Path&gt;" class="s1" d="m287.9 518.7h-16.2c0.1-11.2 0-39.7-1.1-104.8-2-118.1-5.8-125.3-5.8-125.3l19.3 58.3c4.5 13.7 7.2 28 7.8 42.4 2.1 45.4-5.9 81.7-4 129.4z"/>
				<path id="&lt;Path&gt;" class="s1" d="m300.2 329.3c21.6-32.6 64.6-49.7 108.7-65.7 17.3-6.3-31.3 71.8-66.5 107.3-27.4 27.5-53.9 26.9-61.9 54.1-1.5-31.6 1.1-67.5 19.7-95.7z"/>
				<path id="&lt;Path&gt;" class="s1" d="m275.5 308.4c-17-38.2-59.7-87.8-107.7-122.7-18.9-13.7 27.6 103.9 60.5 152.1 25.5 37.6 49.4 60.4 53.1 87.2 16.1-33.5 11-78.5-5.9-116.6z"/>
				<g id="&lt;Group&gt;">
					<path id="&lt;Path&gt;" class="s4" d="m277.1 554c18.9 0 34.6-14.8 35.7-33.8l3.2-32.4h-77.9l3.2 32.4c1.1 19 16.8 33.8 35.8 33.8z"/>
					<path id="&lt;Path&gt;" class="s4" d="m233.1 488h87.9l2.6-11.5h-93z"/>
					<path id="&lt;Path&gt;" class="s4" d="m237.4 507.7h79.3l2.3-11.5h-83.9z"/>
				</g>
			</g>
		</g>
	</g>
	<g id="Shadow">
		<path id="&lt;Path&gt; 93 " class="s2" d="m887.8 832.5c0 12.5-173.6 22.6-387.8 22.6-214.2 0-387.8-10.1-387.8-22.6 0-12.5 173.6-22.7 387.8-22.7 214.2 0 387.8 10.2 387.8 22.7z"/>
	</g>
	<g id="Table">
		<g id="&lt;Group&gt;">
			<g id="&lt;Group&gt;">
				<path id="&lt;Path&gt;" class="s5" d="m810.6 707h-621.2v-70.3h621.2z"/>
				<path id="&lt;Path&gt;" class="s6" d="m810.6 707h-133.3v-70.3h133.3z"/>
			</g>
			<g id="&lt;Group&gt;">
				<path id="&lt;Path&gt;" class="s5" d="m258 832.5h-68.6v-125.5h68.6z"/>
				<path id="&lt;Path&gt;" class="s6" d="m189.4 707v7l48.6 14.7v103.8h20v-125.5z"/>
			</g>
			<g id="&lt;Group&gt;">
				<g id="&lt;Group&gt;">
					<path id="&lt;Path&gt;" class="s5" d="m810.6 832.5h-68.6v-125.5h68.6z"/>
					<path id="&lt;Path&gt;" class="s7" d="m810.6 832.5h-68.6v-125.5h68.6z"/>
				</g>
				<path id="&lt;Path&gt;" class="s6" d="m742 707v7l48.6 14.7v103.8h20v-125.5z"/>
			</g>
			<g id="&lt;Group&gt;">
				<path id="&lt;Path&gt;" class="s5" d="m677.3 832.5h-68.5v-125.5h68.5z"/>
				<path id="&lt;Path&gt;" class="s6" d="m608.8 707v7l48.5 14.7v103.8h20v-125.5z"/>
			</g>
			<g id="&lt;Group&gt;">
				<g id="&lt;Group&gt;">
					<path id="&lt;Path&gt;" class="s5" d="m391.2 832.5h-68.5v-125.5h68.5z"/>
					<path id="&lt;Path&gt;" class="s7" d="m391.2 832.5h-68.5v-125.5h68.5z"/>
				</g>
				<path id="&lt;Path&gt;" class="s6" d="m322.7 707v7l48.5 14.7v103.8h20v-125.5z"/>
			</g>
		</g>
	</g>
	<g id="Character">
		<g id="&lt;Group&gt;">
			<g id="&lt;Group&gt;">
				<g id="&lt;Group&gt;">
					<g id="&lt;Group&gt;">
						<path id="&lt;Path&gt;" class="s8" d="m725 622.8h-379.8c-5 0-8.9-4.1-8.6-9.2l15.6-248.1c0.4-5.1 4.8-9.2 9.8-9.2h379.8c5 0 8.9 4.1 8.6 9.2l-15.7 248.1c-0.3 5.1-4.7 9.2-9.7 9.2z"/>
						<path id="&lt;Path&gt;" class="s9" d="m725 622.8h-379.8c-5 0-8.9-4.1-8.6-9.2l15.6-248.1c0.4-5.1 4.8-9.2 9.8-9.2h379.8c5 0 8.9 4.1 8.6 9.2l-15.7 248.1c-0.3 5.1-4.7 9.2-9.7 9.2z"/>
					</g>
					<g id="&lt;Group&gt;">
						<path id="&lt;Path&gt;" class="s8" d="m722.1 622.8h-379.7c-5.1 0-9-4.1-8.6-9.2l15.6-248.1c0.3-5.1 4.7-9.2 9.8-9.2h379.7c5.1 0 8.9 4.1 8.6 9.2l-15.6 248.1c-0.3 5.1-4.7 9.2-9.8 9.2z"/>
					</g>
					<g id="&lt;Group&gt;">
						<g id="&lt;Group&gt;">
							<path id="&lt;Path&gt;" class="s8" d="m721.6 626h-451.8c-4.4 0-8.2 2.5-9.9 6.1-1 2.1 0.5 4.6 2.9 4.6h465.8c2.4 0 3.9-2.5 2.9-4.6-1.7-3.6-5.5-6.1-9.9-6.1z"/>
						</g>
						<path id="&lt;Path&gt;" class="s9" d="m721.6 626h-64.2c-4.4 0-8.2 2.5-9.9 6.1-1 2.1 0.5 4.6 2.9 4.6h78.2c2.4 0 3.9-2.5 2.9-4.6-1.7-3.6-5.5-6.1-9.9-6.1z"/>
						<path id="&lt;Path&gt;" class="s5" d="m681.8 633.8h-16.6c-0.8 0-1.4-0.7-1.4-1.5 0-0.8 0.6-1.4 1.4-1.4h16.6c0.8 0 1.5 0.6 1.5 1.4 0 0.8-0.7 1.5-1.5 1.5z"/>
						<path id="&lt;Path&gt;" class="s10" d="m468.3 633.8h-16.5c-0.8 0-1.5-0.7-1.5-1.5 0-0.8 0.7-1.4 1.5-1.4h16.5c0.8 0 1.5 0.6 1.5 1.4 0 0.8-0.7 1.5-1.5 1.5z"/>
						<path id="&lt;Path&gt;" class="s5" d="m699 633.8h-10.9c-0.6 0-1.2-0.5-1.2-1.2v-0.5c0-0.7 0.6-1.2 1.2-1.2h10.9c0.6 0 1.2 0.5 1.2 1.2v0.5c0 0.7-0.6 1.2-1.2 1.2z"/>
					</g>
					<path id="&lt;Path&gt;" class="s3" d="m342.3 604.7l14.5-230.3c0.2-1.9 1.9-3.5 3.8-3.5h375c2 0 3.5 1.6 3.4 3.5l-14.5 230.3c-0.2 1.9-1.9 3.5-3.9 3.5h-374.9c-2 0-3.5-1.6-3.4-3.5z"/>
					<path id="&lt;Path&gt;" class="s11" d="m555.6 363.8l-124.9 237.4h-92.1c-2 0-3.5-1.6-3.4-3.6l14.6-230.3c0.1-1.9 1.8-3.5 3.8-3.5z"/>
					<path id="&lt;Path&gt;" class="s11" d="m665 363.8l-124.9 237.4h-29.1l124.9-237.4z"/>
					<path id="&lt;Path&gt;" class="s11" d="m731.9 367.3l-14.5 230.3c-0.2 2-1.9 3.6-3.8 3.6h-142l124.9-237.4h32c2 0 3.5 1.6 3.4 3.5z"/>
					<path id="&lt;Path&gt;" class="s12" d="m551.3 364c-0.1 1.4-1.4 2.7-2.9 2.7-1.5 0-2.6-1.3-2.5-2.7 0.1-1.5 1.3-2.7 2.8-2.7 1.5 0 2.7 1.2 2.6 2.7z"/>
				</g>
			</g>
			<g id="&lt;Group&gt;">
				<g id="&lt;Group&gt;">
					<path id="&lt;Path&gt;" class="s8" d="m489.3 308.8c-10.9 12.5-17.3 50.9-9.2 69.8 8.2 18.9-85.8 37.7-8.3 68.4 77.6 30.7 139.6-4.9 117.1-36.7-22.4-31.7 2.4-84.7-23.5-98-23.5-12.1-54.2-28.6-76.1-3.5z"/>
					<path id="&lt;Path&gt;" class="s13" d="m466.1 463.3c-4.1 14.1-8.4 28.1-13 42-4.5 14-9.2 27.9-14.2 41.8l-1.9 5.2-0.9 2.6-0.3 0.8-0.5 1.2c-0.3 0.8-0.8 1.6-1.2 2.4-1.7 3.2-4.7 6.5-8.4 8.5-3.6 2-7.4 2.7-10.5 2.7-6.2 0.1-10.8-1.4-14.9-2.9-4.2-1.6-7.8-3.5-11.3-5.6-13.8-8.2-25-18-35.8-28.9l8.7-10.1c2.9 1.8 5.9 3.8 9 5.7 3 1.8 6.1 3.6 9.1 5.4 6.2 3.5 12.4 6.8 18.5 9.4 3 1.3 6 2.4 8.8 3.2 2.8 0.7 5.5 1 6.6 0.7 0.5-0.1 0.4-0.3-0.1-0.1-0.4 0.1-0.9 0.7-0.9 0.6-0.1 0 0 0-0.1-0.1q0.1-0.1 0.1-0.1l0.1-0.5 0.8-2.6 1.5-5.2 12.2-42c4.2-14 8.5-28 12.9-41.9z"/>
					<path id="&lt;Path&gt;" class="s14" d="m361.2 522.6l-23.1-8.6 9.2 24.5c0 0 16.4 2.4 22.8-6.2l-5.2-7c-0.9-1.2-2.2-2.2-3.7-2.7z"/>
					<path id="&lt;Path&gt;" class="s14" d="m317.5 521.1l8.8 20.2 21-2.8-9.2-24.5z"/>
					<g id="&lt;Group&gt;">
						<path id="&lt;Path&gt;" class="s5" d="m449.2 427.1c-10.7 2.7-18.1 46.4-18.1 46.4l29.3 20c0 0 28.1-44.2 19.9-55.8-8.5-12.2-15.6-14.5-31.1-10.6z"/>
						<path id="&lt;Path&gt;" class="s15" d="m449.2 427.1c-10.7 2.7-18.1 46.4-18.1 46.4l29.3 20c0 0 28.1-44.2 19.9-55.8-8.5-12.2-15.6-14.5-31.1-10.6z"/>
					</g>
					<path id="&lt;Path&gt;" class="s7" d="m448.2 443l22.7 5.3 2.2 22.2c-5.9 12.3-12.7 23-12.7 23l-17.8-12.1c0.8-10.2 2.7-31.5 5.6-38.4z"/>
					<g id="&lt;Group&gt;">
						<path id="&lt;Path&gt;" class="s5" d="m449.2 427.1c0 0-12.3 4.3 12.3 155.6 41.5 0 84.5 0 104.7 0-1.8-42.6-1.8-68.9 18.6-156.3 0 0-22-4.8-44.5-5.9-17.6-0.9-32.1-1.4-47.6 0-20.4 1.9-43.5 6.6-43.5 6.6z"/>
						<path id="&lt;Path&gt;" class="s15" d="m449.2 427.1c0 0-12.3 4.3 12.3 155.6 41.5 0 84.5 0 104.7 0-1.8-42.6-1.8-68.9 18.6-156.3 0 0-22-4.8-44.5-5.9-17.6-0.9-32.1-1.4-47.6 0-20.4 1.9-43.5 6.6-43.5 6.6z"/>
					</g>
					<path id="&lt;Path&gt;" class="s7" d="m560.1 467l13.5 11.5c-2.8 15.3-4.8 28-6 39.4-2.5-11.4-9-42.2-7.5-50.9z"/>
					<path id="&lt;Path&gt;" class="s14" d="m535.6 366.9c-3 15.3-6 43.4 4.7 53.6 0 0-9.9 22.9-36.5 22.9-26.6 0-11.1-22.9-11.1-22.9 17.1-4.1 16.7-16.7 13.7-28.6z"/>
					<path id="&lt;Path&gt;" class="s16" d="m536.9 414.8c-2.5 5.1-10.6 16.7-33.3 20.9-0.6 0.1-1.3 0-1.8-0.4-4.3-2.9-6.9-9.2-5.1-16.4 0.6-2-1.4-3.8-3.3-3-2.2 0.9-4.1 2.1-5 2.6q-0.5 0.4-0.8 1c-1.7 3.1-8.4 18.4 11.9 27.8q0.5 0.2 1 0.2c11.9 0.3 33-2.1 46.3-26 0.4-0.9 0.4-2-0.3-2.8-1.4-1.8-4.1-3.7-6.1-4.9-1.2-0.8-2.9-0.3-3.5 1z"/>
					<path id="&lt;Path&gt;" class="s16" d="m542.5 477.7l-27-0.7c-1.2-0.1-2.1-1.1-2-2.3l0.2-3.3c0.1-1.2 1.2-2.1 2.4-2.1l27 0.8c1.2 0 2.1 1 2 2.2l-0.3 3.3c-0.1 1.2-1.1 2.2-2.3 2.1z"/>
					<path id="&lt;Path&gt;" class="s7" d="m523.7 377.1l-17.3 14.8c0.7 2.8 1.3 5.6 1.5 8.4 6.5-0.9 15.4-8.1 16.1-14.9 0.4-3.4 0.2-6.7-0.3-8.3z"/>
					<path id="&lt;Path&gt;" class="s14" d="m555.7 338c-4.8 25.2-6.3 35.9-20.8 47.3-21.7 17-51.6 5.6-54.3-20.5-2.5-23.4 5.8-60.6 31.9-67.5 25.7-6.7 48.1 15.6 43.2 40.7z"/>
					<path id="&lt;Path&gt;" class="s8" d="m541.4 319.4c-3.1 15.7-3.8 36.7 10.7 36.7 14.5 0 25.7-24.6 13.3-43.8-12.5-19.2-22.1-2.2-24 7.1z"/>
					<path id="&lt;Path&gt;" class="s8" d="m566.4 321.3c0 17.2-21.6 8.7-31.1 1.3-9.6-7.4-10.1-6.6-27.7-6.6-17.6 0-21.2-1.2-26.5-9.7-5.2-8.4-4.7-14 7.1-12.2 11.7 1.8 1.8-10.2 10.6-16.9 8.8-6.6 19.1-4.9 31.1 10.3 12 15.2 36.5 4.2 36.5 33.8z"/>
					<g id="&lt;Group&gt;">
						<path id="&lt;Path&gt;" class="s3" d="m560 360.4c-2.3 7.7-8.2 12.8-13.2 11.3-5-1.5-7.2-8.9-4.9-16.7 2.2-7.7 8.1-12.8 13.1-11.3 5.1 1.5 7.3 8.9 5 16.7z"/>
						<path id="&lt;Path&gt;" class="s3" d="m519.9 379.7c-4.6 0-9.1-0.9-13.5-2.8-0.4-0.1-0.5-0.6-0.4-0.9 0.2-0.4 0.6-0.6 1-0.4 8.2 3.4 17.3 3.5 25.5 0.1 8-3.3 14.3-9.5 17.5-17.5 6.1-17.2 12.1-38.6 5-51.9-2.7-5.2-7.4-8.6-13.8-10.3-0.4-0.1-0.6-0.5-0.5-0.9 0.1-0.4 0.5-0.6 0.9-0.5 6.8 1.7 11.8 5.4 14.8 11 7.3 13.8 1.2 35.6-5 53.1-3.4 8.4-9.9 14.9-18.3 18.4-4.3 1.7-8.7 2.6-13.2 2.6z"/>
						<path id="&lt;Path&gt;" class="s17" d="m559.3 360.4c-1.8 6.1-5.9 10.3-9.1 9.3-3.3-0.9-4.5-6.6-2.7-12.7 1.8-6.1 5.9-10.3 9.1-9.3 3.3 0.9 4.5 6.7 2.7 12.7z"/>
						<path id="&lt;Path&gt;" class="s3" d="m507.5 379l-7.8-1.5c-1.4-0.2-2.3-1.6-2-3l0.1-0.4c0.2-1.4 1.6-2.3 3-2l7.8 1.5c1.4 0.3 2.3 1.6 2 3l-0.1 0.4c-0.2 1.4-1.6 2.3-3 2z"/>
					</g>
					<path id="&lt;Path&gt;" class="s18" d="m498.3 340.1c0 0-4.6 8.4-9 12.2 2.4 2.9 7.2 2.3 7.2 2.3z"/>
					<path id="&lt;Path&gt;" class="s8" d="m502.8 365.4q0 0 0.1 0.1c7 0.8 12.4-3.7 12.6-3.9 0.2-0.1 0.2-0.4 0.1-0.5-0.2-0.2-0.4-0.2-0.6-0.1 0 0.1-5.3 4.5-12 3.7-0.2 0-0.4 0.1-0.4 0.3 0 0.2 0 0.3 0.2 0.4z"/>
					<path id="&lt;Path&gt;" class="s8" d="m525.6 330.2c0.3 0.1 0.5 0.1 0.8 0 0.3-0.3 0.4-0.8 0.2-1.1-3.5-5.5-8.9-5.7-9.1-5.7-0.4 0-0.8 0.3-0.8 0.8 0 0.4 0.4 0.8 0.8 0.8 0.2 0 4.8 0.1 7.8 4.9q0.1 0.2 0.3 0.3z"/>
					<path id="&lt;Path&gt;" class="s8" d="m514.2 340.4c-0.4 2.1-1.7 3.6-3.1 3.4-1.3-0.3-2.1-2.1-1.8-4.2 0.4-2.1 1.7-3.5 3.1-3.3 1.3 0.2 2.1 2.1 1.8 4.1z"/>
					<path id="&lt;Path&gt;" class="s8" d="m490.9 336.5c-0.4 2-1.8 3.5-3.1 3.3-1.4-0.2-2.2-2.1-1.8-4.2 0.3-2 1.7-3.5 3.1-3.3 1.3 0.2 2.1 2.1 1.8 4.2z"/>
					<path id="&lt;Path&gt;" class="s8" d="m489.6 332.5l-4.7-2.2c0 0 1.9 4.3 4.7 2.2z"/>
					<path id="&lt;Path&gt;" class="s8" d="m513 336.5l-4.8-2.3c0 0 1.9 4.3 4.8 2.3z"/>
					<path id="&lt;Path&gt;" class="s8" d="m482.9 322.5c0.3 0.2 0.6 0.1 0.8 0 4.5-3.5 8.9-2 9.1-2 0.4 0.2 0.8 0 1-0.4 0.1-0.5-0.1-0.9-0.5-1-0.2-0.1-5.3-1.9-10.5 2.1-0.3 0.3-0.4 0.8-0.1 1.1q0.1 0.2 0.2 0.2z"/>
					<g id="&lt;Group&gt;">
						<path id="&lt;Path&gt;" class="s5" d="m457.5 608.2c0 0-0.3-14.3 4-25.5 9.1 0 104.7 0 104.7 0 0 0 9.4 15.2 11.9 25.5-11.8 0-120.6 0-120.6 0z"/>
						<path id="&lt;Path&gt;" class="s5" d="m567.8 576.6l0.8 9.4c0.4 0.7-0.5 1.4-1.7 1.4h-105.9c-1 0-1.8-0.4-1.8-1l-1-9.4c0-0.6 0.8-1.2 1.8-1.2h106.1c0.7 0 1.4 0.3 1.7 0.8z"/>
						<path id="&lt;Path&gt;" class="s19" d="m567.8 576.6l0.8 9.4c0.4 0.7-0.5 1.4-1.7 1.4h-105.9c-1 0-1.8-0.4-1.8-1l-1-9.4c0-0.6 0.8-1.2 1.8-1.2h106.1c0.7 0 1.4 0.3 1.7 0.8z"/>
					</g>
					<path id="&lt;Path&gt;" class="s5" d="m553.5 588.4h2.9c0.5 0 1-0.2 0.9-0.6l-1.3-12.2c0-0.3-0.5-0.6-1.1-0.6h-2.8c-0.6 0-1 0.3-1 0.6l1.3 12.2c0.1 0.4 0.6 0.6 1.1 0.6z"/>
					<path id="&lt;Path&gt;" class="s5" d="m468.9 588.4h2.9c0.5 0 1-0.2 0.9-0.6l-1.3-12.2c0-0.3-0.5-0.6-1.1-0.6h-2.8c-0.6 0-1 0.3-1 0.6l1.3 12.2c0.1 0.4 0.6 0.6 1.1 0.6z"/>
					<path id="&lt;Path&gt;" class="s5" d="m511.2 588.4h2.9c0.5 0 1-0.2 0.9-0.6l-1.3-12.2c0-0.3-0.5-0.6-1.1-0.6h-2.8c-0.6 0-1 0.3-1 0.6l1.3 12.2c0.1 0.4 0.6 0.6 1.1 0.6z"/>
				</g>
				<g id="&lt;Group&gt;">
					<path id="&lt;Path&gt;" class="s13" d="m593.7 455.9c4.6 14.9 9 30 13.3 45l6.4 22.6 3.1 11.2 0.8 2.7 0.4 1.4 0.1 0.3 0.1 0.1c0 0.1 0 0.1 0 0.1l-0.4-0.5c-0.2-0.4-0.7-1-1.8-1.9-1.1-0.9-3.3-1.8-5.4-1.9-2-0.1-3.5 0.5-4.2 0.8-1.4 0.8-1.3 1-1.2 0.9 0.2-0.2 0.6-0.5 0.9-1 0.8-1 1.8-2.3 2.6-3.7 1.8-2.9 3.5-6.1 5.2-9.5 3.4-6.6 6.4-13.6 9.5-20.7q4.6-10.7 9-21.5c3.1-7.1 5.9-14.5 8.9-21.6l12.7 3.8c-3.3 15.6-7.2 30.9-11.9 46.2-2.4 7.6-5 15.2-8 22.9-1.6 3.8-3.2 7.7-5.3 11.6-1 2-2.2 4.1-3.7 6.3-0.7 1.1-1.6 2.3-2.8 3.5-1.2 1.3-2.6 2.8-5.8 4.5-1.6 0.7-4 1.6-7.1 1.4-3 0-6.2-1.4-8-2.9-1.9-1.5-3-2.9-3.8-4.1-0.8-1.2-1.3-2.1-1.7-3.1-0.2-0.4-0.4-0.9-0.5-1.3l-0.4-0.9-0.5-1.5-1.1-2.8c-1.3-3.7-2.7-7.5-4-11.2-2.5-7.5-5.1-14.9-7.5-22.4-4.9-15-9.4-30.1-13.7-45.2z"/>
					<g id="&lt;Group&gt;">
						<path id="&lt;Path&gt;" class="s5" d="m584.8 426.4c10.5 3.1 26.5 44.3 26.5 44.3l-40.7 29.1c0 0-18.3-35.2-13.9-48.7 4.6-14.2 16.1-28.4 28.1-24.7z"/>
						<path id="&lt;Path&gt;" class="s15" d="m584.8 426.4c10.5 3.1 26.5 44.3 26.5 44.3l-40.7 29.1c0 0-18.3-35.2-13.9-48.7 4.6-14.2 16.1-28.4 28.1-24.7z"/>
					</g>
					<path id="&lt;Path&gt;" class="s14" d="m641.4 464.1l-5.6-24.6 23.2 12.2c0 0 0.3 16.6-9.1 21.8z"/>
					<path id="&lt;Path&gt;" class="s14" d="m645.5 420l14.8 10.5-1.3 21.2-23.2-12.2z"/>
				</g>
			</g>
		</g>
	</g>
	<g id="Chat">
		<g id="&lt;Group&gt;">
			<g id="&lt;Group&gt;">
				<path id="&lt;Path&gt;" class="s5" d="m230 296.2h162c13.2 0 23.4 10.8 22.5 24l-4.4 73.3c-0.9 13.2-12.3 24-25.5 24h-18.8l7.7 25.2-36.7-25.2h-114.2c-13.2 0-23.4-10.8-22.5-24l4.4-73.3c0.9-13.2 12.3-24 25.5-24z"/>
				<g id="&lt;Group&gt;">
					<path id="&lt;Path&gt;" class="s3" d="m377.2 334.6h-137c-2.5 0-4.4-2-4.3-4.5 0.2-2.5 2.3-4.6 4.8-4.6h137c2.5 0 4.4 2.1 4.3 4.6-0.2 2.5-2.3 4.5-4.8 4.5z"/>
					<path id="&lt;Path&gt;" class="s3" d="m296.1 361.4h-57.6c-2.5 0-4.4-2.1-4.2-4.6 0.1-2.4 2.3-4.5 4.8-4.5h57.5c2.5 0 4.4 2.1 4.3 4.5-0.2 2.5-2.3 4.6-4.8 4.6z"/>
					<path id="&lt;Path&gt;" class="s3" d="m345.3 388.1h-108.4c-2.5 0-4.4-2-4.3-4.5 0.2-2.5 2.3-4.5 4.8-4.5h108.4c2.5 0 4.4 2 4.3 4.5-0.2 2.5-2.3 4.5-4.8 4.5z"/>
					<path id="&lt;Path&gt;" class="s3" d="m338.2 361.4h-22.6c-2.5 0-4.4-2.1-4.3-4.6 0.2-2.4 2.3-4.5 4.8-4.5h22.7c2.5 0 4.4 2.1 4.2 4.5-0.1 2.5-2.3 4.6-4.8 4.6z"/>
				</g>
			</g>
			<g id="&lt;Group&gt;">
				<g id="&lt;Group&gt;">
					<g id="&lt;Group&gt;">
						<path id="&lt;Path&gt;" class="s5" d="m455.6 164.4h-88.3c-10.3 0-19.2 8.4-19.9 18.6l-3.5 57.1c-0.6 10.3 7.3 18.7 17.6 18.7h14.6l-8.4 19.6 30.9-19.6h51.2c10.3 0 19.2-8.4 19.8-18.7l3.5-57.1c0.6-10.2-7.2-18.6-17.5-18.6z"/>
					</g>
					<g id="&lt;Group&gt;" style="opacity: .5">
						<path id="&lt;Path&gt;" class="s16" d="m455.6 164.4h-88.3c-10.3 0-19.2 8.4-19.9 18.6l-3.5 57.1c-0.6 10.3 7.3 18.7 17.6 18.7h14.6l-8.4 19.6 30.9-19.6h51.2c10.3 0 19.2-8.4 19.8-18.7l3.5-57.1c0.6-10.2-7.2-18.6-17.5-18.6z"/>
					</g>
				</g>
				<g id="&lt;Group&gt;">
					<path id="&lt;Compound Path&gt;" class="s3" d="m413 220.9c-0.6 2.6-3 4.4-5.6 4.4h-5.2q0.1-2.2 0.1-2.7 0.3-5 2.2-8.2 1.8-3.3 7.1-7.3 5.2-4.1 6.2-5.3 1.7-2 1.8-4.4 0.2-3.3-2.3-5.7-2.5-2.3-7-2.3-4.3 0-7.4 2.4-1.8 1.5-3 3.8c-1.2 2.1-3.4 3.5-5.8 3.2-3.7-0.4-5.6-4.4-3.7-7.7q1.7-2.9 4.6-5.3 6-5.1 15.3-5.1 9.8 0 15.3 5.1 5.5 5.1 5.1 11.9-0.3 3.8-2.6 7.2-2.3 3.3-9.6 9.1-3.8 3-4.8 4.8-0.4 0.8-0.7 2.1zm-11.4 14.4v-0.7c0.2-2.9 2.7-5.3 5.7-5.3h0.6c3 0 5.3 2.4 5.1 5.3v0.7c-0.2 2.9-2.8 5.4-5.8 5.4h-0.6c-2.9 0-5.2-2.5-5-5.4z"/>
				</g>
			</g>
		</g>
	</g>
</svg>