<svg version="1.2" xmlns="http://www.w3.org/2000/svg" viewBox="0 0 850 714" width="850" height="714">
	<title>53515-ai</title>
	<style>
		.s0 { fill: #b39fcb } 
		.s1 { fill: #605371 } 
		.s2 { fill: #2a383d } 
		.s3 { fill: #d1d2d3 } 
		.s4 { fill: #b3b5b7 } 
		.s5 { fill: #e1e2e3 } 
		.s6 { fill: #a6a9ab } 
		.s7 { fill: #00b1d0 } 
		.s8 { mix-blend-mode: multiply;fill: #d1d2d3 } 
		.s9 { fill: #fefefe } 
		.s10 { fill: #177fa6 } 
		.s11 { fill: #52b9d5 } 
		.s12 { fill: #435359 } 
		.s13 { fill: none;stroke: #f05a29;stroke-width: 6.5 } 
		.s14 { fill: none;stroke: #bbbdbf;stroke-width: 6.5 } 
		.s15 { fill: #cccdcf } 
		.s16 { fill: #063d5b } 
		.s17 { fill: #2193af } 
		.s18 { fill: none;stroke: #063d5b;stroke-width: 20.3 } 
		.s19 { fill: none;stroke: #063d5b;stroke-linecap: round;stroke-width: 33.9 } 
		.s20 { fill: #7ec2d7 } 
		.s21 { fill: #d19779 } 
		.s22 { fill: #161c2d } 
		.s23 { fill: #21293a } 
		.s24 { fill: #30394c } 
		.s25 { fill: #f9b18d } 
		.s26 { fill: #e19a7e } 
		.s27 { mix-blend-mode: multiply;fill: #ba9a9e } 
		.s28 { fill: #fafbfb } 
		.s29 { fill: #ceecfb } 
		.s30 { fill: #38474d } 
		.s31 { fill: #2d3b40 } 
	</style>
	<g id="Capa 1">
		<path id="&lt;Compound Path&gt;" fill-rule="evenodd" class="s0" d="m741.5 259.1c16.8 0 30.4 14.3 30.4 31.9 0 17.6-13.6 31.9-30.4 31.9h-90.1c-16.8 0-30.4 14.3-30.4 32 0 17.6 13.6 31.9 30.4 31.9h90.1c16.8 0 30.4 14.3 30.4 31.9 0 17.6-13.6 31.9-30.4 31.9 16.8 0 30.4 14.3 30.4 31.9 0 17.7-13.6 32-30.4 32h-57.5c13.8 0 24.9 14.2 24.9 31.9 0 17.6-11.1 31.9-24.9 31.9h-517.6c-13.8 0-24.9-14.3-24.9-31.9 0-17.7 11.1-31.9 24.9-31.9h-57.5c-16.8 0-30.4-14.3-30.4-32 0-17.6 13.6-31.9 30.4-31.9-16.8 0-30.4-14.3-30.4-31.9 0-17.6 13.6-31.9 30.4-31.9h187.4c16.8 0 30.5-14.3 30.5-31.9 0-17.7-13.7-32-30.5-32h-187.4c-16.8 0-30.4-14.3-30.4-31.9 0-17.6 13.6-31.9 30.4-31.9h64.9c16.9 0 30.5-14.3 30.5-31.9 0-17.7-13.6-32-30.5-32h-64.9c-16.8 0-30.4-14.2-30.4-31.9 0-17.6 13.6-31.9 30.4-31.9-16.8 0-30.4-14.3-30.4-31.9 0-17.6 13.6-31.9 30.4-31.9h632.6c16.8 0 30.4 14.3 30.4 31.9 0 17.6-13.6 31.9-30.4 31.9h-40.9c-16.8 0-30.5 14.3-30.5 31.9 0 17.7 13.7 31.9 30.5 31.9h40.9c16.8 0 30.4 14.3 30.4 32 0 17.6-13.6 31.9-30.4 31.9zm-122.9 191.5h-105.6c-16.8 0-30.4 14.3-30.4 31.9 0 17.7 13.6 32 30.4 32h105.6c16.8 0 30.4-14.3 30.4-32 0-17.6-13.6-31.9-30.4-31.9z"/>
		<path id="&lt;Path&gt;" class="s1" d="m800.2 610c0 19.5-15.8 35.3-35.4 35.3h-679.3c-19.5 0-35.3-15.8-35.3-35.3 0-19.5 15.8-35.3 35.3-35.3h679.3c19.6 0 35.4 15.8 35.4 35.3z"/>
		<g id="&lt;Group&gt;">
			<g id="&lt;Group&gt;">
				<path id="&lt;Path&gt;" class="s2" d="m696.1 551.2c0 11.3-11.1 20.4-24.7 20.4h-535.9c-13.7 0-24.8-9.1-24.8-20.4 0-11.3 11.1-20.4 24.8-20.4h535.9c13.6 0 24.7 9.1 24.7 20.4z"/>
				<path id="&lt;Path&gt;" class="s3" d="m111 548.8c-0.1 0.8-0.3 1.6-0.3 2.4 0 11.3 11.1 20.4 24.8 20.4h535.9c13.6 0 24.7-9.1 24.7-20.4 0-0.8-0.2-1.6-0.3-2.4z"/>
				<path id="&lt;Path&gt;" class="s4" d="m110.7 530.8h585.4v20.4h-585.4z"/>
			</g>
			<g id="&lt;Group&gt;">
				<path id="&lt;Path&gt;" class="s3" d="m635.3 206.4c15.1 0 18.8 1.6 18.8 14.1v297.6c0 12.5-3.7 14.2-18.8 14.2h-463.8c-15.1 0-18.8-1.7-18.8-14.2v-297.6c0-12.5 3.7-14.1 18.8-14.1z"/>
				<path id="&lt;Path&gt;" class="s5" d="m152.7 220.5v297.6c0 7.4 1.3 10.9 5.4 12.7-0.8-2.1-1.1-4.8-1.1-8.4v-297.6c0-12.5 3.7-14.2 18.8-14.2h463.8c6.2 0 10.5 0.3 13.4 1.5-2-4.9-7-5.7-17.7-5.7h-463.8c-15.1 0-18.8 1.6-18.8 14.1z"/>
				<path id="&lt;Path&gt;" class="s6" d="m433.4 219.8c0 2.9-1.5 5.3-3.4 5.3h-32c-1.8 0-3.4-2.4-3.4-5.4 0-2.9 1.6-5.3 3.4-5.3h32c1.9 0 3.4 2.4 3.4 5.3z"/>
				<path id="&lt;Path&gt;" class="s6" d="m447.3 219.8c0 2.9-2.4 5.3-5.3 5.3-3 0-5.4-2.4-5.4-5.3 0-3 2.4-5.4 5.4-5.4 2.9 0 5.3 2.4 5.3 5.4z"/>
				<path id="&lt;Path&gt;" class="s7" d="m168.5 514.6v-283.8h465.8v283.8z"/>
				<path id="&lt;Path&gt;" class="s8" d="m179.7 239.2h454.6v-8.4h-465.8v283.8h11.2z"/>
			</g>
		</g>
		<g id="&lt;Group&gt;">
			<path id="&lt;Path&gt;" class="s9" d="m701.4 476h-480.5v-324.7h480.5z"/>
			<path id="&lt;Path&gt;" class="s10" d="m701.4 203.2h-480.5v-27.6h480.5z"/>
			<path id="&lt;Path&gt;" class="s11" d="m701.4 203.2h-480.5v40.6h480.5z"/>
			<path id="&lt;Path&gt;" class="s9" d="m461.2 232.5h-214.3v-16.3h214.3z"/>
			<path id="&lt;Path&gt;" class="s12" d="m535.9 232.5h-58.5v-16.3h58.5z"/>
			<path id="&lt;Path&gt;" class="s3" d="m354 334.3h-95.7v-68.2h95.7z"/>
			<g id="&lt;Group&gt;">
				<path id="&lt;Path&gt;" class="s13" d="m373.5 273.4h103.9"/>
				<path id="&lt;Path&gt;" class="s14" d="m373.5 297.8h287.4"/>
				<path id="&lt;Path&gt;" class="s14" d="m373.5 312.4h287.4"/>
				<path id="&lt;Path&gt;" class="s14" d="m373.5 327h133.1"/>
			</g>
			<path id="&lt;Path&gt;" class="s3" d="m354 419.8h-95.7v-68.2h95.7z"/>
			<g id="&lt;Group&gt;">
				<path id="&lt;Path&gt;" class="s13" d="m373.5 358.9h103.9"/>
				<path id="&lt;Path&gt;" class="s14" d="m373.5 383.3h287.4"/>
				<path id="&lt;Path&gt;" class="s14" d="m373.5 397.9h287.4"/>
				<path id="&lt;Path&gt;" class="s14" d="m373.5 412.5h133.1"/>
			</g>
			<path id="&lt;Path&gt;" class="s15" d="m645.3 163c0 5-4.1 9.1-9.1 9.1-5 0-9.1-4.1-9.1-9.1 0-5 4.1-9.1 9.1-9.1 5 0 9.1 4.1 9.1 9.1z"/>
			<path id="&lt;Path&gt;" class="s15" d="m670 163c0 5-4.1 9.1-9.1 9.1-5.1 0-9.2-4.1-9.2-9.1 0-5 4.1-9.1 9.2-9.1 5 0 9.1 4.1 9.1 9.1z"/>
			<path id="&lt;Path&gt;" class="s15" d="m621 163c0 5-4.1 9.1-9.2 9.1-5 0-9.1-4.1-9.1-9.1 0-5 4.1-9.1 9.1-9.1 5.1 0 9.2 4.1 9.2 9.1z"/>
		</g>
		<g id="&lt;Group&gt;">
			<path id="&lt;Path&gt;" class="s16" d="m328.1 360.1c-19.9 58.5-83.4 89.8-141.9 69.9-58.5-19.9-89.8-83.4-69.9-141.9 19.9-58.5 83.5-89.8 142-69.9 58.4 19.9 89.7 83.5 69.8 141.9z"/>
			<path id="&lt;Path&gt;" class="s11" d="m313.4 355.2c-17.1 50.3-71.9 77.3-122.2 60.1-50.4-17.1-77.4-71.9-60.2-122.2 17.1-50.4 71.9-77.4 122.3-60.2 50.3 17.1 77.3 71.9 60.1 122.3z"/>
			<path id="&lt;Path&gt;" class="s17" d="m207 415.7c-50.4-17.2-77.3-71.9-60.2-122.3 13-38.1 47.4-62.8 85.2-65.1-43.7-4.5-86.3 21.4-101 64.8-17.2 50.3 9.8 105.1 60.2 122.2 12.3 4.2 24.8 5.8 37 5-7.1-0.7-14.2-2.2-21.2-4.6z"/>
			<path id="&lt;Path&gt;" class="s18" d="m186.2 430l-11.2 33"/>
			<path id="&lt;Path&gt;" class="s19" d="m177.2 457.5l-42 123.5"/>
			<path id="&lt;Path&gt;" class="s20" d="m298.1 354.2c-13.1 3.5-29.3-14-36.2-39.2-6.9-25.2-1.9-48.5 11.2-52.1 13.1-3.6 29.3 13.9 36.2 39.1 6.9 25.2 1.9 48.6-11.2 52.2z"/>
		</g>
		<g id="&lt;Group&gt;">
			<path id="&lt;Path&gt;" class="s21" d="m638.9 322.7l-3.3-5.1c0 0-6.1-4.9-5.5-7.8 0.6-2.9 4-5.6 6.8-7 2.8-1.3 5.3 2.1 5.3 2.1 0 0 2.9-2.6 4.8-2.1 1.8 0.6 1.9 2.4 2.5 5.3 0.5 3-1.2 13.4-1.2 13.4z"/>
			<g id="&lt;Group&gt;">
				<g id="&lt;Group&gt;">
					<path id="&lt;Path&gt;" class="s21" d="m696.6 314.8c0 0-0.5 1.5-1.4 4.3-0.9 2.6-2.2 6.5-4 11-1.7 4.6-3.7 9.9-6.2 15.6-1.3 2.8-2.7 5.8-4.3 8.8-0.9 1.5-1.8 3-2.9 4.5-0.5 0.8-1.1 1.6-1.9 2.5-0.7 0.8-1.6 1.7-3.2 2.7-0.8 0.4-1.9 0.9-3.4 1.1-1.6 0.1-3.4-0.3-4.6-1.1-0.6-0.4-1.1-0.8-1.5-1.2l-0.3-0.3-0.1-0.2-0.3-0.3-0.1-0.2-0.7-1c-1-1.3-1.9-2.6-2.8-4.1q-1.3-2.1-2.7-4.2-1.2-2.1-2.3-4c-3.1-5.3-5.9-10.2-8.2-14.4-4.7-8.4-7.8-14.1-7.8-14.1l8.5-4.7c0 0 3.3 5.5 8.1 13.7 2.5 4.1 5.3 8.9 8.5 13.9q1.2 1.9 2.4 3.8 1.2 1.8 2.4 3.6c0.8 1.2 1.7 2.5 2.7 3.8l0.7 0.9 0.2 0.3c0.2 0.2-0.2-0.3-0.2-0.3l-0.1-0.1c-0.1-0.1-0.3-0.3-0.5-0.4-0.6-0.4-1.6-0.7-2.4-0.6-0.6 0.1-1 0.3-1.1 0.3-0.3 0.2 0.1-0.1 0.4-0.4 0.3-0.4 0.6-0.9 1-1.4 0.7-1.1 1.4-2.3 2-3.6 1.3-2.5 2.5-5.3 3.6-7.9 2.2-5.4 4.1-10.6 5.6-15.1 1.5-4.4 2.7-8.2 3.5-10.8 0.8-2.7 1.3-4.2 1.3-4.2z"/>
				</g>
			</g>
			<path id="&lt;Path&gt;" class="s22" d="m670.1 575.9c0 0-13.9 8-30.1 10.3-7.2 1-8.9 6-6 7.3 9.2 1.7 51.6 3.9 53.5-0.3 2.5-5.6-3.6-16.1-3.1-19.1 0.9-4.4-14.3 1.8-14.3 1.8z"/>
			<path id="&lt;Path&gt;" class="s22" d="m749.7 574.3c0 0 5.5 14 21.1 16 6.9 0.9 6 8.5 3.1 9.8-4 0.8-20 2.6-20 2.6 0 0-25.6-10.1-26.6-12.3-2.3-5.4 7.2-13.1 6.7-15.9-0.8-4.3 15.7-0.2 15.7-0.2z"/>
			<path id="&lt;Path&gt;" class="s23" d="m671.3 407.1c-1.4 13.6-2.2 58.7-1.9 88.5 0.2 19.1 0.7 80.3 0.7 80.3l21.5 3.1c1-10.1 6.3-80.3 6.3-80.3 0 0 5.5-55.5 5.6-71.2 0.1-30.7-30.1-40.4-32.2-20.4z"/>
			<path id="&lt;Path&gt;" class="s24" d="m669.5 393.5c-1.3-20 50.3-18.9 57 0 9.6 27.4 25.9 183.1 25.9 183.1l-22.2-0.4c-2.8-9.8-18.6-109.5-29.1-133.9-16.2-8.4-29.8-18.4-31.6-48.8z"/>
			<path id="&lt;Path&gt;" class="s9" d="m668.3 341.3c2.3-29.2 8.6-53.2 16.7-56.7 3.8-1.6 14.4-1.1 18.5-0.8 5.3 0.3 15.2 3.9 19.1 10.4 7.5 12.6 2.2 47.6 3.3 61 1.8 22.4 2.3 43.8 2.3 43.8h-59.3c0 0-2.4-35.4-0.6-57.7z"/>
			<path id="&lt;Path&gt;" class="s25" d="m688.4 275.1c0-5.6 14.6-7.6 13.9-2.6-0.6 5.1 1.2 11.3 1.2 11.3 0 0-3.8 7-11.7 7.1-7.9 0-6.8-6.3-6.8-6.3l3.6-2.2c0 0-0.2-4.5-0.2-7.3z"/>
			<g id="&lt;Group&gt;">
				<path id="&lt;Path&gt;" class="s23" d="m669.9 234.3c0 26.6 8.5 31.6 27.4 36.7 12.6 3.5 35-4.3 36.5-42.5 0.4-11.3-1.2-27.3-9.9-26.2-5.6-15.4-13.1-12.5-24.4-12.5-23.3 0-48.9 14-29.6 44.5z"/>
				<path id="&lt;Path&gt;" class="s26" d="m666.6 239.7c0 27.4 9.8 38.6 21.8 38.6 13.8 0 32.4-16.4 32.4-38.6 0-27.4-12.1-42.5-27.1-42.5-15 0-27.1 15.1-27.1 42.5z"/>
				<path id="&lt;Path&gt;" class="s25" d="m667.9 238.2c0 26.4 5.6 37.6 19.8 37.6 14.2 0 31.8-9.1 33.1-37.9 1.2-26.4-12.9-40.7-27.1-40.7-14.3 0-25.8 14.6-25.8 41z"/>
				<g id="&lt;Group&gt;">
					<path id="&lt;Path&gt;" class="s23" d="m691.7 196c12 0 26.4 6.7 27.8 18.5-4.8 4.6-10.6 7.6-17.1 9.4-4.1 1-10.1-5.8-14.7-5.8-6.3 0-11.2 7-16 5.2-4.4-1.7-7.4-4.5-7.8-9.2 7.8-8.5 16-18.1 27.8-18.1z"/>
				</g>
				<path id="&lt;Path&gt;" class="s25" d="m727.6 240c6.3 2.5 0.6 14.6-5.8 13.5-2.8-0.4-6.9-0.5-6.9-4.9 0-4.4 5.1-4.6 5.1-4.6 0 0 1.9-6.3 7.6-4z"/>
				<path id="&lt;Path&gt;" class="s27" d="m723.3 241.9c0 0 3.3-1.2 4.6 1.3 1.6 3.2-3.3 8.3-3.3 8.3 0 0 3.3-5 1.7-8-1-2-3-1.6-3-1.6z"/>
				<path id="&lt;Path&gt;" class="s27" d="m686.4 248.2c1.1 0 2 0.2 2.8 0.6-0.4-1.2-1.5-2.1-2.8-2.1-1.2 0-2.3 0.9-2.7 2.1 0.8-0.4 1.7-0.6 2.7-0.6z"/>
				<path id="&lt;Path&gt;" class="s28" d="m698.5 257.2c0 0-1.6 9.5-10.8 9.5-9.2 0-10.8-9.5-10.8-9.5z"/>
				<path id="&lt;Path&gt;" class="s23" d="m707.6 231.2c-1.8-2.7-5.9-2.5-9.9-1.4-1.4 0.4-0.7 2.3 0.7 2.1 2.5-0.4 5.4-0.4 7.5 2.3 0.9 1.1 2.6-1.9 1.7-3z"/>
				<g id="&lt;Group&gt;">
					<path id="&lt;Path&gt;" class="s23" d="m719.2 235.4c4.1-16.4-9.3-14.3-9.3-14.3 0 0 7.9-14.9 11-8.8 1.2 2.3 7.5 21.5 1.6 28.2 0 4-3.6 7.1-4.8 6.7-1.3-0.4 0.2-6.8 1.5-11.8z"/>
				</g>
				<path id="&lt;Path&gt;" class="s23" d="m699.6 241.2c0 0.6 0.5 1.1 1.1 1.1 0.6 0 1.1-0.5 1.1-1.1v-3.4c0-0.6-0.5-1.1-1.1-1.1-0.6 0-1.1 0.5-1.1 1.1z"/>
				<path id="&lt;Path&gt;" class="s23" d="m669.9 231.2c1.9-2.7 5.9-2.5 10-1.4 1.4 0.4 0.7 2.3-0.7 2.1-2.5-0.4-5.5-0.4-7.6 2.3-0.8 1.1-2.5-1.9-1.7-3z"/>
				<path id="&lt;Path&gt;" class="s23" d="m678 241.2c0 0.6-0.5 1.1-1.1 1.1-0.6 0-1.1-0.5-1.1-1.1v-3.4c0-0.6 0.5-1.1 1.1-1.1 0.6 0 1.1 0.5 1.1 1.1z"/>
			</g>
			<g id="&lt;Group&gt;">
				<g id="&lt;Group&gt;">
					<path id="&lt;Path&gt;" class="s25" d="m720.8 329.7c0 0-0.5 1.5-1.4 4.2-0.9 2.7-2.2 6.5-3.9 11.1-1.8 4.6-3.8 9.9-6.3 15.6-1.3 2.8-2.7 5.7-4.3 8.7-0.9 1.5-1.8 3-2.8 4.6-0.6 0.8-1.2 1.6-2 2.4-0.7 0.9-1.6 1.8-3.2 2.7-0.8 0.5-1.9 1-3.4 1.2-1.6 0.1-3.4-0.4-4.6-1.1-0.6-0.4-1.1-0.9-1.5-1.2l-0.3-0.3-0.1-0.2-0.2-0.3h-0.1l-0.1-0.3-0.7-1c-1-1.2-1.9-2.5-2.8-4q-1.3-2.2-2.7-4.3-1.2-2-2.3-4c-3.1-5.2-5.9-10.1-8.2-14.3-4.7-8.4-7.8-14.1-7.8-14.1l8.5-4.8c0 0 3.3 5.5 8.1 13.8 2.5 4.1 5.4 8.9 8.5 13.9q1.2 1.8 2.4 3.8 1.2 1.8 2.4 3.6c0.8 1.2 1.7 2.5 2.7 3.7l0.7 1 0.2 0.2v0.1c0.2 0.2-0.2-0.3-0.2-0.3l-0.1-0.1c-0.1-0.1-0.3-0.3-0.5-0.5-0.6-0.3-1.6-0.6-2.3-0.5-0.7 0-1.1 0.3-1.2 0.3-0.3 0.2 0.1-0.1 0.4-0.4 0.3-0.4 0.6-0.9 1-1.4 0.7-1.1 1.4-2.3 2-3.6 1.3-2.6 2.5-5.3 3.6-8 2.2-5.3 4.1-10.5 5.6-15 1.5-4.5 2.7-8.2 3.5-10.9 0.8-2.6 1.3-4.1 1.3-4.1z"/>
				</g>
			</g>
			<path id="&lt;Path&gt;" class="s29" d="m716.1 361.7l-19.9-1.5c0 0 3.2-71.1 21.2-70.4 26.7 1-1.3 71.9-1.3 71.9z"/>
			<g id="&lt;Group&gt;">
				<path id="&lt;Path&gt;" class="s12" d="m655.4 312.9h-25.6v-3.9h25.6z"/>
				<path id="&lt;Path&gt;" class="s30" d="m655.4 312.9h-25.6l24.8 18.1h18.5z"/>
				<path id="&lt;Path&gt;" class="s31" d="m655.4 312.9l17.7 18.1v-3.9l-17.7-18.1z"/>
			</g>
			<path id="&lt;Path&gt;" class="s25" d="m663.5 337.4l-4.6-4-8-3 5.4-12.2 5.2 1.2-0.2-4.3c0 0 2.2-0.8 4.1-0.8 1.9 0 2.2 2.3 3.6 5 1.3 2.7 3.2 14.2 3.2 14.2z"/>
			<path id="&lt;Path&gt;" class="s25" d="m650.9 330.4c0 0-9-3.2-10.1-4-1.1-0.8-1.1-2.6 0.1-2.3 1.2 0.4 13.1 3.7 13.1 3.7z"/>
			<path id="&lt;Path&gt;" class="s25" d="m652.3 327.8c0 0-13.5-4.7-14.6-5.5-1.1-0.8-1.1-2.6 0.1-2.3 1.2 0.4 16.2 4.6 16.2 4.6z"/>
			<path id="&lt;Path&gt;" class="s25" d="m654.6 324.6c0 0-13.5-4.7-14.6-5.5-1.1-0.8-1.1-2.6 0.1-2.2 1.2 0.3 16.2 4.5 16.2 4.5z"/>
			<path id="&lt;Path&gt;" class="s25" d="m657.8 322.1c0 0-13.5-4.6-14.6-5.4-1.1-0.8-1.1-2.7 0.1-2.3 1.2 0.3 16.2 4.6 16.2 4.6z"/>
		</g>
	</g>
</svg>